<svg xmlns="http://www.w3.org/2000/svg" xmlns:xlink="http://www.w3.org/1999/xlink" viewBox="0 0 764.03 1358.25"><defs><style>.cls-1{fill:url(#linear-gradient);}.cls-2{fill:url(#linear-gradient-2);}.cls-3{fill:url(#linear-gradient-3);}.cls-4{fill:url(#linear-gradient-4);}.cls-5{fill:url(#linear-gradient-5);}.cls-6{fill:url(#linear-gradient-7);}.cls-7{fill:url(#linear-gradient-8);}.cls-8{fill:url(#linear-gradient-9);}.cls-9{fill:url(#linear-gradient-10);}.cls-10{fill:url(#linear-gradient-11);}.cls-11{fill:url(#linear-gradient-12);}.cls-12{fill:url(#linear-gradient-13);}.cls-13{fill:url(#linear-gradient-14);}.cls-14{fill:url(#linear-gradient-15);}.cls-15{fill:url(#linear-gradient-16);}.cls-16{fill:url(#linear-gradient-17);}.cls-17{fill:url(#linear-gradient-18);}.cls-18{fill:url(#linear-gradient-19);}.cls-19{fill:url(#linear-gradient-20);}.cls-20{fill:url(#linear-gradient-21);}.cls-21{fill:url(#linear-gradient-22);}.cls-22{fill:url(#linear-gradient-23);}</style><linearGradient id="linear-gradient" x1="917.6" y1="1153.37" x2="-32.26" y2="1498.27" gradientUnits="userSpaceOnUse"><stop offset="0" stop-color="#d3dee0"/><stop offset="0.08" stop-color="#b7e2ee"/><stop offset="0.19" stop-color="#6f9bd3"/><stop offset="0.21" stop-color="#72a0d4"/><stop offset="0.23" stop-color="#79add6"/><stop offset="0.25" stop-color="#85c3d9"/><stop offset="0.27" stop-color="#8ed3db"/><stop offset="0.34" stop-color="#8ed3db"/><stop offset="0.38" stop-color="#8ac4cf"/><stop offset="0.45" stop-color="#7f9daf"/><stop offset="0.54" stop-color="#6c5d7c"/><stop offset="0.64" stop-color="#57123f"/><stop offset="0.7" stop-color="#bc1d23"/><stop offset="0.73" stop-color="#e45f26"/><stop offset="0.77" stop-color="#e45f26"/><stop offset="0.89" stop-color="#bc1d23"/><stop offset="1" stop-color="#600e20"/></linearGradient><linearGradient id="linear-gradient-2" x1="1326.66" y1="491.69" x2="-2324.18" y2="1817.31" gradientUnits="userSpaceOnUse"><stop offset="0" stop-color="#d3dee0"/><stop offset="0.08" stop-color="#b7e2ee"/><stop offset="0.19" stop-color="#6f9bd3"/><stop offset="0.21" stop-color="#72a0d4"/><stop offset="0.23" stop-color="#79add6"/><stop offset="0.25" stop-color="#85c3d9"/><stop offset="0.27" stop-color="#8ed3db"/><stop offset="0.34" stop-color="#8ed3db"/><stop offset="0.38" stop-color="#8ac4cf"/><stop offset="0.45" stop-color="#7f9daf"/><stop offset="0.54" stop-color="#6c5d7c"/><stop offset="0.64" stop-color="#57123f"/><stop offset="0.7" stop-color="#bc1d23"/><stop offset="0.73" stop-color="#e45f26"/><stop offset="0.77" stop-color="#e45f26"/><stop offset="0.89" stop-color="#bc1d23"/></linearGradient><linearGradient id="linear-gradient-3" x1="809.15" y1="-138.71" x2="-144.22" y2="207.46" xlink:href="#linear-gradient-2"/><linearGradient id="linear-gradient-4" x1="813.04" y1="-110.32" x2="-140.34" y2="235.85" xlink:href="#linear-gradient-2"/><linearGradient id="linear-gradient-5" x1="993.68" y1="-15" x2="-1353.53" y2="837.27" xlink:href="#linear-gradient-2"/><linearGradient id="linear-gradient-7" x1="1912.48" y1="-608.78" x2="-434.73" y2="243.5" xlink:href="#linear-gradient-2"/><linearGradient id="linear-gradient-8" x1="1922.68" y1="-580.69" x2="-424.53" y2="271.58" xlink:href="#linear-gradient-2"/><linearGradient id="linear-gradient-9" x1="1932.87" y1="-552.61" x2="-414.34" y2="299.66" xlink:href="#linear-gradient-2"/><linearGradient id="linear-gradient-10" x1="1943.07" y1="-524.52" x2="-404.14" y2="327.75" xlink:href="#linear-gradient-2"/><linearGradient id="linear-gradient-11" x1="1953.27" y1="-496.44" x2="-393.94" y2="355.83" xlink:href="#linear-gradient-2"/><linearGradient id="linear-gradient-12" x1="3449.52" y1="-460.31" x2="-505.54" y2="975.78" xlink:href="#linear-gradient-2"/><linearGradient id="linear-gradient-13" x1="3460.47" y1="-472.41" x2="-494.6" y2="963.68" xlink:href="#linear-gradient-2"/><linearGradient id="linear-gradient-14" x1="-8390.67" y1="4191.21" x2="-10737.88" y2="5043.49" gradientTransform="matrix(0, 1, -1, 0, 5180.36, 9257.72)" xlink:href="#linear-gradient-2"/><linearGradient id="linear-gradient-15" x1="-8380.47" y1="4219.3" x2="-10727.68" y2="5071.57" gradientTransform="matrix(0, 1, -1, 0, 5180.36, 9257.72)" xlink:href="#linear-gradient-2"/><linearGradient id="linear-gradient-16" x1="-8370.28" y1="4247.38" x2="-10717.49" y2="5099.65" gradientTransform="matrix(0, 1, -1, 0, 5180.36, 9257.72)" xlink:href="#linear-gradient-2"/><linearGradient id="linear-gradient-17" x1="-8360.08" y1="4275.47" x2="-10707.29" y2="5127.74" gradientTransform="matrix(0, 1, -1, 0, 5180.36, 9257.72)" xlink:href="#linear-gradient-2"/><linearGradient id="linear-gradient-18" x1="-8349.88" y1="4303.55" x2="-10697.09" y2="5155.82" gradientTransform="matrix(0, 1, -1, 0, 5180.36, 9257.72)" xlink:href="#linear-gradient-2"/><linearGradient id="linear-gradient-19" x1="-8742.91" y1="4596.78" x2="-9827.04" y2="4990.43" gradientTransform="matrix(0, 1, -1, 0, 5180.36, 9257.72)" xlink:href="#linear-gradient-2"/><linearGradient id="linear-gradient-20" x1="-8752.34" y1="4594.44" x2="-9836.41" y2="4988.07" gradientTransform="matrix(0, 1, -1, 0, 5180.36, 9257.72)" xlink:href="#linear-gradient-2"/><linearGradient id="linear-gradient-21" x1="2338.61" y1="510.62" x2="-201.45" y2="1432.92" xlink:href="#linear-gradient-2"/><linearGradient id="linear-gradient-22" x1="822.29" y1="1129.62" x2="-7.94" y2="1431.08" xlink:href="#linear-gradient-2"/><linearGradient id="linear-gradient-23" x1="911.65" y1="1143.44" x2="-6.29" y2="1476.74" xlink:href="#linear-gradient-2"/></defs><title>Asset 2</title><g id="Layer_2" data-name="Layer 2"><g id="Layer_1-2" data-name="Layer 1"><path class="cls-1" d="M763.93,1358.25H0v-20.78H763.93ZM3,1355.28H761v-14.84H3Z"/><path class="cls-2" d="M764,1317.77H716.69V91.39H764Zm-44.38-3h41.41V94.35H719.65Z"/><path class="cls-3" d="M764,32.77H0V0H764ZM3,29.8H761.06V3H3Z"/><path class="cls-4" d="M764,62.57H0V29.8H764ZM3,59.6H761.06V32.77H3Z"/><path class="cls-5" d="M764,94.35H716.69V59.6H764Zm-44.38-3h41.41V62.57H719.65Z"/><path class="cls-2" d="M764,1317.77H716.69V91.39H764Zm-44.38-3h41.41V94.35H719.65Z"/><path class="cls-6" d="M47.74,94.35H0V59.6H47.74ZM3,91.39h41.8V62.57H3Z"/><path class="cls-7" d="M47.74,126.14H0V91.39H47.74ZM3,123.18h41.8V94.35H3Z"/><path class="cls-8" d="M47.74,157.93H0V123.18H47.74ZM3,155h41.8V126.14H3Z"/><path class="cls-9" d="M47.74,189.72H0V155H47.74ZM3,186.75h41.8V157.93H3Z"/><path class="cls-10" d="M47.74,221.5H0V186.75H47.74ZM3,218.54h41.8V189.72H3Z"/><path class="cls-11" d="M47.74,1340.44H22.39V218.53H47.74Zm-22.38-3H44.77V221.5H25.36Z"/><path class="cls-12" d="M25.36,1340.44H0V218.53H25.36Zm-22.38-3H22.39V221.5H3Z"/><path class="cls-13" d="M684.9,94.35V59.6h34.75V94.35Zm3-31.78V91.39h28.83V62.57Z"/><path class="cls-14" d="M653.11,94.35V59.6h34.75V94.35Zm3-31.78V91.39H684.9V62.57Z"/><path class="cls-15" d="M621.32,94.35V59.6h34.76V94.35Zm3-31.78V91.39h28.82V62.57Z"/><path class="cls-16" d="M589.54,94.35V59.6h34.75V94.35Zm3-31.78V91.39h28.82V62.57Z"/><path class="cls-17" d="M557.75,94.35V59.6H592.5V94.35Zm3-31.78V91.39h28.82V62.57Z"/><path class="cls-18" d="M294.25,94.35V75.49H560.72V94.35Zm3-15.89V91.39H557.76V78.46Z"/><path class="cls-19" d="M294.25,78.46V59.61H560.72V78.46Zm3-15.88V75.49H557.76V62.58Z"/><path class="cls-20" d="M441,1288H44.77V1255.2H441Zm-393.23-3H438v-26.84H47.74Z"/><path class="cls-21" d="M653.72,1317.77H44.77V1285h609Zm-606-3h603V1288h-603Z"/><path class="cls-22" d="M764,1340.44H44.77V1314.8H764Zm-716.29-3H761.06v-19.7H47.74Z"/></g></g></svg>