<svg xmlns="http://www.w3.org/2000/svg" preserveAspectRatio="none" xmlns:xlink="http://www.w3.org/1999/xlink" viewBox="0 0 1777.03 817.7"><defs><style>.cls-1{fill:url(#linear-gradient);}.cls-2{fill:url(#linear-gradient-2);}.cls-3{fill:url(#linear-gradient-3);}.cls-4{fill:url(#linear-gradient-4);}.cls-5{fill:url(#linear-gradient-5);}.cls-6{fill:url(#linear-gradient-7);}.cls-7{fill:url(#linear-gradient-8);}.cls-8{fill:url(#linear-gradient-9);}.cls-9{fill:url(#linear-gradient-10);}.cls-10{fill:url(#linear-gradient-11);}.cls-11{fill:url(#linear-gradient-12);}.cls-12{fill:url(#linear-gradient-13);}.cls-13{fill:url(#linear-gradient-14);}.cls-14{fill:url(#linear-gradient-15);}.cls-15{fill:url(#linear-gradient-16);}.cls-16{fill:url(#linear-gradient-17);}.cls-17{fill:url(#linear-gradient-18);}.cls-18{fill:url(#linear-gradient-19);}.cls-19{fill:url(#linear-gradient-20);}.cls-20{fill:url(#linear-gradient-21);}.cls-21{fill:url(#linear-gradient-22);}.cls-22{fill:url(#linear-gradient-23);}</style><linearGradient id="linear-gradient" x1="2127.11" y1="358.23" x2="-69.44" y2="1155.8" gradientUnits="userSpaceOnUse"><stop offset="0" stop-color="#d3dee0"/><stop offset="0.08" stop-color="#b7e2ee"/><stop offset="0.19" stop-color="#6f9bd3"/><stop offset="0.21" stop-color="#72a0d4"/><stop offset="0.23" stop-color="#79add6"/><stop offset="0.25" stop-color="#85c3d9"/><stop offset="0.27" stop-color="#8ed3db"/><stop offset="0.34" stop-color="#8ed3db"/><stop offset="0.38" stop-color="#8ac4cf"/><stop offset="0.45" stop-color="#7f9daf"/><stop offset="0.54" stop-color="#6c5d7c"/><stop offset="0.64" stop-color="#57123f"/><stop offset="0.7" stop-color="#bc1d23"/><stop offset="0.73" stop-color="#e45f26"/><stop offset="0.77" stop-color="#e45f26"/><stop offset="0.89" stop-color="#bc1d23"/><stop offset="1" stop-color="#600e20"/></linearGradient><linearGradient id="linear-gradient-2" x1="2107.63" y1="304.58" x2="-88.92" y2="1102.15" gradientUnits="userSpaceOnUse"><stop offset="0" stop-color="#d3dee0"/><stop offset="0.08" stop-color="#b7e2ee"/><stop offset="0.19" stop-color="#6f9bd3"/><stop offset="0.21" stop-color="#72a0d4"/><stop offset="0.23" stop-color="#79add6"/><stop offset="0.25" stop-color="#85c3d9"/><stop offset="0.27" stop-color="#8ed3db"/><stop offset="0.34" stop-color="#8ed3db"/><stop offset="0.38" stop-color="#8ac4cf"/><stop offset="0.45" stop-color="#7f9daf"/><stop offset="0.54" stop-color="#6c5d7c"/><stop offset="0.64" stop-color="#57123f"/><stop offset="0.7" stop-color="#bc1d23"/><stop offset="0.73" stop-color="#e45f26"/><stop offset="0.77" stop-color="#e45f26"/><stop offset="0.89" stop-color="#bc1d23"/></linearGradient><linearGradient id="linear-gradient-3" x1="1872.86" y1="-342" x2="-323.7" y2="455.57" xlink:href="#linear-gradient-2"/><linearGradient id="linear-gradient-4" x1="1881.81" y1="-317.36" x2="-314.75" y2="480.21" xlink:href="#linear-gradient-2"/><linearGradient id="linear-gradient-5" x1="1991.94" y1="-14.04" x2="-204.61" y2="783.53" xlink:href="#linear-gradient-2"/><linearGradient id="linear-gradient-7" x1="1790.18" y1="-569.7" x2="-406.38" y2="227.87" xlink:href="#linear-gradient-2"/><linearGradient id="linear-gradient-8" x1="1799.72" y1="-543.42" x2="-396.83" y2="254.15" xlink:href="#linear-gradient-2"/><linearGradient id="linear-gradient-9" x1="1809.27" y1="-517.14" x2="-387.29" y2="280.43" xlink:href="#linear-gradient-2"/><linearGradient id="linear-gradient-10" x1="1818.81" y1="-490.86" x2="-377.75" y2="306.71" xlink:href="#linear-gradient-2"/><linearGradient id="linear-gradient-11" x1="1828.35" y1="-464.58" x2="-368.2" y2="332.99" xlink:href="#linear-gradient-2"/><linearGradient id="linear-gradient-12" x1="1929.58" y1="-185.79" x2="-266.97" y2="611.78" xlink:href="#linear-gradient-2"/><linearGradient id="linear-gradient-13" x1="1927.14" y1="-192.5" x2="-269.41" y2="605.07" xlink:href="#linear-gradient-2"/><linearGradient id="linear-gradient-14" x1="-6222.57" y1="5159.19" x2="-8419.13" y2="5956.76" gradientTransform="matrix(0, 1, -1, 0, 7146.88, 7033.96)" xlink:href="#linear-gradient-2"/><linearGradient id="linear-gradient-15" x1="-6213.03" y1="5185.47" x2="-8409.59" y2="5983.04" gradientTransform="matrix(0, 1, -1, 0, 7146.88, 7033.96)" xlink:href="#linear-gradient-2"/><linearGradient id="linear-gradient-16" x1="-6203.49" y1="5211.75" x2="-8400.04" y2="6009.32" gradientTransform="matrix(0, 1, -1, 0, 7146.88, 7033.96)" xlink:href="#linear-gradient-2"/><linearGradient id="linear-gradient-17" x1="-6193.94" y1="5238.03" x2="-8390.5" y2="6035.6" gradientTransform="matrix(0, 1, -1, 0, 7146.88, 7033.96)" xlink:href="#linear-gradient-2"/><linearGradient id="linear-gradient-18" x1="-6184.4" y1="5264.32" x2="-8380.96" y2="6061.89" gradientTransform="matrix(0, 1, -1, 0, 7146.88, 7033.96)" xlink:href="#linear-gradient-2"/><linearGradient id="linear-gradient-19" x1="-6083.53" y1="5542.13" x2="-8280.08" y2="6339.7" gradientTransform="matrix(0, 1, -1, 0, 7146.88, 7033.96)" xlink:href="#linear-gradient-2"/><linearGradient id="linear-gradient-20" x1="-6085.26" y1="5537.36" x2="-8281.81" y2="6334.93" gradientTransform="matrix(0, 1, -1, 0, 7146.88, 7033.96)" xlink:href="#linear-gradient-2"/><linearGradient id="linear-gradient-21" x1="2025.56" y1="78.54" x2="-171" y2="876.11" xlink:href="#linear-gradient-2"/><linearGradient id="linear-gradient-22" x1="2109.62" y1="310.05" x2="-86.94" y2="1107.62" xlink:href="#linear-gradient-2"/><linearGradient id="linear-gradient-23" x1="2123.51" y1="348.3" x2="-73.05" y2="1145.87" xlink:href="#linear-gradient-2"/></defs><title>Asset 2</title><g id="Layer_2" data-name="Layer 2"><g id="Layer_1-2" data-name="Layer 1"><path class="cls-1" d="M1776.94,817.7H0V798.26H1776.94ZM2.78,814.92H1774.17V801H2.78Z"/><path class="cls-2" d="M1777,779.81h-44.3V85.52H1777ZM1735.5,777h38.75V88.3H1735.5Z"/><path class="cls-3" d="M1777,30.66H.45V0H1777ZM3.23,27.89h1771V2.78H3.23Z"/><path class="cls-4" d="M1777,58.55H.45V27.89H1777ZM3.23,55.78h1771V30.66H3.23Z"/><path class="cls-5" d="M1777,88.3h-44.3V55.78H1777Zm-41.53-2.78h38.75v-27H1735.5Z"/><path class="cls-2" d="M1777,779.81h-44.3V85.52H1777ZM1735.5,777h38.75V88.3H1735.5Z"/><path class="cls-6" d="M45.13,88.3H.45V55.78H45.13ZM3.23,85.52H42.35v-27H3.23Z"/><path class="cls-7" d="M45.13,118.05H.45V85.52H45.13Zm-41.9-2.78H42.35v-27H3.23Z"/><path class="cls-8" d="M45.13,147.79H.45V115.27H45.13ZM3.23,145H42.35v-27H3.23Z"/><path class="cls-9" d="M45.13,177.54H.45V145H45.13Zm-41.9-2.78H42.35v-27H3.23Z"/><path class="cls-10" d="M45.13,207.29H.45V174.76H45.13Zm-41.9-2.78H42.35v-27H3.23Z"/><path class="cls-11" d="M45.13,801H21.41V204.5H45.13Zm-21-2.78H42.35v-591H24.18Z"/><path class="cls-12" d="M24.18,801H.46V204.5H24.18ZM3.24,798.25H21.41v-591H3.24Z"/><path class="cls-13" d="M1703,88.3V55.78h32.52V88.3Zm2.78-29.75v27h27v-27Z"/><path class="cls-14" d="M1673.23,88.3V55.78h32.53V88.3ZM1676,58.55v27h27v-27Z"/><path class="cls-15" d="M1643.49,88.3V55.78H1676V88.3Zm2.77-29.75v27h27v-27Z"/><path class="cls-16" d="M1613.74,88.3V55.78h32.52V88.3Zm2.78-29.75v27h27v-27Z"/><path class="cls-17" d="M1584,88.3V55.78h32.53V88.3Zm2.78-29.75v27h27v-27Z"/><path class="cls-18" d="M990.25,88.3V70.65h596.52V88.3ZM993,73.42v12.1h591V73.43Z"/><path class="cls-19" d="M990.25,73.42V55.79h596.52V73.42ZM993,58.56V70.65h591V58.56Z"/><path class="cls-20" d="M384.13,751.92H42.35V721.26H384.13Zm-339-2.77H381.35V724H45.13Z"/><path class="cls-21" d="M1673.81,779.81H42.35V749.15H1673.81ZM45.13,777H1671V751.92H45.13Z"/><path class="cls-22" d="M1777,801H42.35V777H1777ZM45.13,798.26H1774.25V779.81H45.13Z"/></g></g></svg>