<svg xmlns="http://www.w3.org/2000/svg" preserveAspectRatio="none" xmlns:xlink="http://www.w3.org/1999/xlink" viewBox="0 0 1923 795.32"><defs><style>.cls-1{fill:url(#linear-gradient);}.cls-2{fill:url(#linear-gradient-2);}.cls-3{fill:url(#linear-gradient-3);}.cls-4{fill:url(#linear-gradient-4);}.cls-5{fill:url(#linear-gradient-5);}.cls-6{fill:url(#linear-gradient-6);}.cls-7{fill:url(#linear-gradient-7);}.cls-8{fill:url(#linear-gradient-8);}.cls-9{fill:url(#linear-gradient-9);}.cls-10{fill:url(#linear-gradient-10);}.cls-11{fill:url(#linear-gradient-11);}.cls-12{fill:url(#linear-gradient-12);}.cls-13{fill:url(#linear-gradient-13);}.cls-14{fill:url(#linear-gradient-14);}.cls-15{fill:url(#linear-gradient-15);}.cls-16{fill:url(#linear-gradient-16);}.cls-17{fill:url(#linear-gradient-17);}.cls-18{fill:url(#linear-gradient-18);}.cls-19{fill:url(#linear-gradient-19);}.cls-20{fill:url(#linear-gradient-20);}.cls-21{fill:url(#linear-gradient-21);}.cls-22{fill:url(#linear-gradient-22);}.cls-23{fill:url(#linear-gradient-23);}.cls-24{fill:url(#linear-gradient-24);}.cls-25{fill:url(#linear-gradient-25);}.cls-26{fill:url(#linear-gradient-26);}.cls-27{fill:url(#linear-gradient-27);}.cls-28{fill:url(#linear-gradient-28);}.cls-29{fill:url(#linear-gradient-29);}.cls-30{fill:url(#linear-gradient-30);}.cls-31{fill:url(#linear-gradient-31);}.cls-32{fill:url(#linear-gradient-32);}.cls-33{fill:url(#linear-gradient-33);}.cls-34{fill:url(#linear-gradient-34);}.cls-35{fill:url(#linear-gradient-35);}.cls-36{fill:url(#linear-gradient-36);}.cls-37{fill:url(#linear-gradient-37);}.cls-38{fill:url(#linear-gradient-38);}.cls-39{fill:url(#linear-gradient-39);}.cls-40{fill:url(#linear-gradient-40);}.cls-41{fill:url(#linear-gradient-41);}.cls-42{fill:url(#linear-gradient-42);}.cls-43{fill:url(#linear-gradient-43);}.cls-44{fill:url(#linear-gradient-44);}.cls-45{fill:url(#linear-gradient-45);}.cls-46{fill:url(#linear-gradient-46);}</style><linearGradient id="linear-gradient" x1="2257.87" y1="-422.54" x2="-406.13" y2="689.46" gradientUnits="userSpaceOnUse"><stop offset="0" stop-color="#d3dee0"/><stop offset="0.08" stop-color="#b7e2ee"/><stop offset="0.19" stop-color="#6f9bd3"/><stop offset="0.21" stop-color="#72a0d4"/><stop offset="0.23" stop-color="#79add6"/><stop offset="0.25" stop-color="#85c3d9"/><stop offset="0.27" stop-color="#8ed3db"/><stop offset="0.34" stop-color="#8ed3db"/><stop offset="0.38" stop-color="#8ac4cf"/><stop offset="0.45" stop-color="#7f9daf"/><stop offset="0.54" stop-color="#6c5d7c"/><stop offset="0.64" stop-color="#57123f"/><stop offset="0.7" stop-color="#bc1d23"/><stop offset="0.73" stop-color="#e45f26"/><stop offset="0.77" stop-color="#e45f26"/><stop offset="0.89" stop-color="#bc1d23"/><stop offset="1" stop-color="#600e20"/></linearGradient><linearGradient id="linear-gradient-2" x1="2264.27" y1="-407.2" x2="-399.73" y2="704.8" xlink:href="#linear-gradient"/><linearGradient id="linear-gradient-3" x1="2270.67" y1="-391.86" x2="-393.33" y2="720.14" xlink:href="#linear-gradient"/><linearGradient id="linear-gradient-4" x1="2257.87" y1="-476.58" x2="-406.13" y2="635.42" xlink:href="#linear-gradient"/><linearGradient id="linear-gradient-5" x1="2264.27" y1="-461.24" x2="-399.73" y2="650.76" xlink:href="#linear-gradient"/><linearGradient id="linear-gradient-6" x1="2270.67" y1="-445.9" x2="-393.33" y2="666.1" xlink:href="#linear-gradient"/><linearGradient id="linear-gradient-7" x1="2257.87" y1="-530.62" x2="-406.13" y2="581.38" xlink:href="#linear-gradient"/><linearGradient id="linear-gradient-8" x1="2264.27" y1="-515.28" x2="-399.73" y2="596.72" xlink:href="#linear-gradient"/><linearGradient id="linear-gradient-9" x1="2270.67" y1="-499.94" x2="-393.33" y2="612.06" xlink:href="#linear-gradient"/><linearGradient id="linear-gradient-10" x1="2257.87" y1="-62.54" x2="-406.13" y2="1049.46" xlink:href="#linear-gradient"/><linearGradient id="linear-gradient-11" x1="2264.27" y1="-47.2" x2="-399.73" y2="1064.8" xlink:href="#linear-gradient"/><linearGradient id="linear-gradient-12" x1="2270.67" y1="-31.86" x2="-393.33" y2="1080.14" xlink:href="#linear-gradient"/><linearGradient id="linear-gradient-13" x1="2119.53" y1="218.01" x2="570.67" y2="864.54" xlink:href="#linear-gradient"/><linearGradient id="linear-gradient-14" x1="2123.25" y1="234.47" x2="574.39" y2="880.99" xlink:href="#linear-gradient"/><linearGradient id="linear-gradient-15" x1="2126.97" y1="250.93" x2="578.11" y2="897.45" xlink:href="#linear-gradient"/><linearGradient id="linear-gradient-16" x1="2119.53" y1="272.05" x2="570.67" y2="918.58" xlink:href="#linear-gradient"/><linearGradient id="linear-gradient-17" x1="2123.25" y1="288.51" x2="574.39" y2="935.03" xlink:href="#linear-gradient"/><linearGradient id="linear-gradient-18" x1="2126.97" y1="304.97" x2="578.11" y2="951.49" xlink:href="#linear-gradient"/><linearGradient id="linear-gradient-19" x1="1310.9" y1="380.13" x2="-237.96" y2="1026.66" xlink:href="#linear-gradient"/><linearGradient id="linear-gradient-20" x1="1314.62" y1="396.59" x2="-234.24" y2="1043.11" xlink:href="#linear-gradient"/><linearGradient id="linear-gradient-21" x1="1318.34" y1="413.05" x2="-230.52" y2="1059.57" xlink:href="#linear-gradient"/><linearGradient id="linear-gradient-22" x1="1310.9" y1="434.17" x2="-237.96" y2="1080.7" xlink:href="#linear-gradient"/><linearGradient id="linear-gradient-23" x1="1314.62" y1="450.63" x2="-234.24" y2="1097.16" xlink:href="#linear-gradient"/><linearGradient id="linear-gradient-24" x1="2270.1" y1="238.48" x2="-393.23" y2="1350.2" xlink:href="#linear-gradient"/><linearGradient id="linear-gradient-25" x1="2257.87" y1="99.58" x2="-406.13" y2="1211.58" xlink:href="#linear-gradient"/><linearGradient id="linear-gradient-26" x1="2264.27" y1="114.92" x2="-399.73" y2="1226.92" xlink:href="#linear-gradient"/><linearGradient id="linear-gradient-27" x1="2270.67" y1="130.26" x2="-393.33" y2="1242.26" xlink:href="#linear-gradient"/><linearGradient id="linear-gradient-28" x1="2143.66" y1="-696.13" x2="-520.34" y2="415.87" xlink:href="#linear-gradient"/><linearGradient id="linear-gradient-29" x1="2406.18" y1="-67.24" x2="-257.82" y2="1044.76" xlink:href="#linear-gradient"/><linearGradient id="linear-gradient-30" x1="2456.9" y1="54.29" x2="-207.1" y2="1166.29" xlink:href="#linear-gradient"/><linearGradient id="linear-gradient-31" x1="2150.07" y1="-680.79" x2="-513.93" y2="431.21" xlink:href="#linear-gradient"/><linearGradient id="linear-gradient-32" x1="2156.47" y1="-665.45" x2="-507.53" y2="446.55" xlink:href="#linear-gradient"/><linearGradient id="linear-gradient-33" x1="2162.87" y1="-650.11" x2="-501.13" y2="461.89" xlink:href="#linear-gradient"/><linearGradient id="linear-gradient-34" x1="2169.28" y1="-634.77" x2="-494.72" y2="477.23" xlink:href="#linear-gradient"/><linearGradient id="linear-gradient-35" x1="2175.68" y1="-619.43" x2="-488.32" y2="492.57" xlink:href="#linear-gradient"/><linearGradient id="linear-gradient-36" x1="2182.08" y1="-604.09" x2="-481.92" y2="507.91" xlink:href="#linear-gradient"/><linearGradient id="linear-gradient-37" x1="2188.49" y1="-588.75" x2="-475.51" y2="523.25" xlink:href="#linear-gradient"/><linearGradient id="linear-gradient-38" x1="2220.46" y1="-512.15" x2="-443.54" y2="599.85" xlink:href="#linear-gradient"/><linearGradient id="linear-gradient-39" x1="2214.44" y1="-526.58" x2="-449.56" y2="585.42" xlink:href="#linear-gradient"/><linearGradient id="linear-gradient-40" x1="2226.49" y1="-497.72" x2="-437.51" y2="614.28" xlink:href="#linear-gradient"/><linearGradient id="linear-gradient-41" x1="1955.49" y1="582.43" x2="250.49" y2="1264.43" xlink:href="#linear-gradient"/><linearGradient id="linear-gradient-42" x1="1949.89" y1="568.43" x2="244.89" y2="1250.43" xlink:href="#linear-gradient"/><linearGradient id="linear-gradient-43" x1="1961.09" y1="596.43" x2="256.09" y2="1278.43" xlink:href="#linear-gradient"/><linearGradient id="linear-gradient-44" x1="2313.84" y1="-288.44" x2="-350.16" y2="823.56" xlink:href="#linear-gradient"/><linearGradient id="linear-gradient-45" x1="2364.57" y1="-166.92" x2="-299.43" y2="945.08" xlink:href="#linear-gradient"/><linearGradient id="linear-gradient-46" x1="2388.02" y1="-110.73" x2="-275.98" y2="1001.27" xlink:href="#linear-gradient"/></defs><title>Asset 2</title><g id="Layer_2" data-name="Layer 2"><g id="Layer_1-2" data-name="Layer 1"><path class="cls-1" d="M1923,129.09H0v-21H1923Zm-1920-3H1920v-15H3Z"/><path class="cls-2" d="M1923,147.11H0v-21H1923Zm-1920-3H1920v-15H3Z"/><path class="cls-3" d="M1923,165.12H0v-21H1923Zm-1920-3H1920v-15H3Z"/><path class="cls-4" d="M1923,75.05H0V54H1923ZM3,72.05H1920V57H3Z"/><path class="cls-5" d="M1923,93.07H0v-21H1923ZM3,90.07H1920v-15H3Z"/><path class="cls-6" d="M1923,111.08H0v-21H1923Zm-1920-3H1920v-15H3Z"/><path class="cls-7" d="M1923,21H0V0H1923ZM3,18H1920V3H3Z"/><path class="cls-8" d="M1923,39H0V18H1923ZM3,36H1920V21H3Z"/><path class="cls-9" d="M1923,57H0V36H1923ZM3,54H1920V39H3Z"/><path class="cls-10" d="M1923,489.09H0v-21H1923Zm-1920-3H1920v-15H3Z"/><path class="cls-11" d="M1923,507.11H0v-21H1923Zm-1920-3H1920v-15H3Z"/><path class="cls-12" d="M1923,525.12H0v-21H1923Zm-1920-3H1920v-15H3Z"/><path class="cls-13" d="M1923,543.13H808.63v-21H1923Zm-1111.37-3H1920v-15H811.63Z"/><path class="cls-14" d="M1923,561.15H808.63v-21H1923Zm-1111.37-3H1920v-15H811.63Z"/><path class="cls-15" d="M1923,579.16H808.63v-21H1923Zm-1111.37-3H1920v-15H811.63Z"/><path class="cls-16" d="M1923,597.17H808.63v-21H1923Zm-1111.37-3H1920v-15H811.63Z"/><path class="cls-17" d="M1923,615.19H808.63v-21H1923Zm-1111.37-3H1920v-15H811.63Z"/><path class="cls-18" d="M1923,633.2H808.63v-21H1923Zm-1111.37-3H1920v-15H811.63Z"/><path class="cls-19" d="M1114.37,705.25H0v-21H1114.37ZM3,702.25H1111.37v-15H3Z"/><path class="cls-20" d="M1114.37,723.27H0v-21H1114.37ZM3,720.27H1111.37v-15H3Z"/><path class="cls-21" d="M1114.37,741.28H0v-21H1114.37ZM3,738.28H1111.37v-15H3Z"/><path class="cls-22" d="M1114.37,759.29H0v-21H1114.37ZM3,756.29H1111.37v-15H3Z"/><path class="cls-23" d="M1114.37,777.31H0v-21H1114.37ZM3,774.31H1111.37v-15H3Z"/><path class="cls-24" d="M1922.51,795.32H0v-21H1922.51ZM3,792.32H1919.51v-15H3Z"/><path class="cls-25" d="M1923,651.21H0v-21H1923Zm-1920-3H1920v-15H3Z"/><path class="cls-26" d="M1923,669.23H0v-21H1923Zm-1920-3H1920v-15H3Z"/><path class="cls-27" d="M1923,687.24H0v-21H1923Zm-1920-3H1920v-15H3Z"/><path class="cls-28" d="M124.79,183.13H0v-21H124.79ZM3,180.13H121.79v-15H3Z"/><path class="cls-29" d="M1923,183.13H1740.08v-21H1923Zm-179.92-3H1920v-15H1743.08Z"/><path class="cls-30" d="M1923,450.52H1740.08V180.13H1923Zm-179.92-3H1920V183.13H1743.08Z"/><path class="cls-31" d="M124.79,201.15H0v-21H124.79ZM3,198.15H121.79v-15H3Z"/><path class="cls-32" d="M124.79,219.16H0v-21H124.79ZM3,216.16H121.79v-15H3Z"/><path class="cls-33" d="M124.79,237.17H0v-21H124.79ZM3,234.17H121.79v-15H3Z"/><path class="cls-34" d="M124.79,255.19H0v-21H124.79ZM3,252.19H121.79v-15H3Z"/><path class="cls-35" d="M124.79,273.2H0v-21H124.79ZM3,270.2H121.79v-15H3Z"/><path class="cls-36" d="M124.79,291.21H0v-21H124.79ZM3,288.21H121.79v-15H3Z"/><path class="cls-37" d="M124.79,309.23H0v-21H124.79ZM3,306.23H121.79v-15H3Z"/><path class="cls-38" d="M84.23,471.08H40.63V306.22h43.6Zm-40.6-3h37.6V309.22H43.63Z"/><path class="cls-39" d="M43.63,471.08H0V306.22h43.6Zm-40.6-3h37.6V309.22H3Z"/><path class="cls-40" d="M124.83,471.08H81.23V306.22h43.6Zm-40.6-3h37.6V309.22H84.23Z"/><path class="cls-41" d="M1606.6,777.17H1563V684.24h43.6Zm-40.6-3h37.6V687.24H1566Z"/><path class="cls-42" d="M1566,777.17h-43.6V684.24H1566Zm-40.6-3H1563V687.24h-37.6Z"/><path class="cls-43" d="M1647.19,777.17H1603.6V684.24h43.59Zm-40.59-3h37.59V687.24H1606.6Z"/><path class="cls-44" d="M1743.08,414.24H121.79V162.12H1743.08Zm-1618.29-3H1740.08V165.12H124.79Z"/><path class="cls-45" d="M1743.08,450.52H121.79V411.24H1743.08Zm-1618.29-3H1740.08V414.24H124.79Z"/><path class="cls-46" d="M1923,471.08H121.79V447.52H1923Zm-1798.21-3H1920V450.52H124.79Z"/></g></g></svg>