<svg xmlns="http://www.w3.org/2000/svg" xmlns:xlink="http://www.w3.org/1999/xlink" viewBox="0 0 716.91 404.58"><defs><style>.cls-1{fill:url(#linear-gradient);}.cls-2{fill:url(#linear-gradient-2);}.cls-3{fill:url(#linear-gradient-3);}.cls-4{fill:url(#linear-gradient-4);}.cls-5{fill:url(#linear-gradient-6);}.cls-6{fill:url(#linear-gradient-7);}.cls-7{fill:url(#linear-gradient-8);}.cls-8{fill:url(#linear-gradient-9);}.cls-9{fill:url(#linear-gradient-10);}.cls-10{fill:url(#linear-gradient-11);}.cls-11{fill:url(#linear-gradient-12);}.cls-12{fill:url(#linear-gradient-13);}.cls-13{fill:url(#linear-gradient-14);}.cls-14{fill:url(#linear-gradient-15);}</style><linearGradient id="linear-gradient" x1="854.71" y1="155.99" x2="-41.29" y2="604.99" gradientUnits="userSpaceOnUse"><stop offset="0" stop-color="#d3dee0"/><stop offset="0.08" stop-color="#b7e2ee"/><stop offset="0.19" stop-color="#6f9bd3"/><stop offset="0.21" stop-color="#72a0d4"/><stop offset="0.23" stop-color="#79add6"/><stop offset="0.25" stop-color="#85c3d9"/><stop offset="0.27" stop-color="#8ed3db"/><stop offset="0.34" stop-color="#8ed3db"/><stop offset="0.38" stop-color="#8ac4cf"/><stop offset="0.45" stop-color="#7f9daf"/><stop offset="0.54" stop-color="#6c5d7c"/><stop offset="0.64" stop-color="#57123f"/><stop offset="0.7" stop-color="#bc1d23"/><stop offset="0.73" stop-color="#e45f26"/><stop offset="0.77" stop-color="#e45f26"/><stop offset="0.89" stop-color="#bc1d23"/></linearGradient><linearGradient id="linear-gradient-2" x1="699.26" y1="-154.21" x2="-196.74" y2="294.79" xlink:href="#linear-gradient"/><linearGradient id="linear-gradient-3" x1="711.34" y1="-130.12" x2="-184.66" y2="318.88" xlink:href="#linear-gradient"/><linearGradient id="linear-gradient-4" x1="790.95" y1="28.76" x2="-105.05" y2="477.76" xlink:href="#linear-gradient"/><linearGradient id="linear-gradient-6" x1="656.71" y1="-239.13" x2="-239.29" y2="209.87" xlink:href="#linear-gradient"/><linearGradient id="linear-gradient-7" x1="669.59" y1="-213.44" x2="-226.41" y2="235.56" xlink:href="#linear-gradient"/><linearGradient id="linear-gradient-8" x1="682.46" y1="-187.74" x2="-213.54" y2="261.26" xlink:href="#linear-gradient"/><linearGradient id="linear-gradient-9" x1="695.34" y1="-162.04" x2="-200.66" y2="286.96" xlink:href="#linear-gradient"/><linearGradient id="linear-gradient-10" x1="708.22" y1="-136.34" x2="-187.78" y2="312.66" xlink:href="#linear-gradient"/><linearGradient id="linear-gradient-11" x1="753.08" y1="-46.81" x2="-142.92" y2="402.19" xlink:href="#linear-gradient"/><linearGradient id="linear-gradient-12" x1="748.54" y1="-55.88" x2="-147.46" y2="393.12" xlink:href="#linear-gradient"/><linearGradient id="linear-gradient-13" x1="800.99" y1="48.79" x2="-95.01" y2="497.79" xlink:href="#linear-gradient"/><linearGradient id="linear-gradient-14" x1="832.2" y1="111.07" x2="-63.8" y2="560.07" xlink:href="#linear-gradient"/><linearGradient id="linear-gradient-15" x1="854.02" y1="154.62" x2="-41.98" y2="603.62" xlink:href="#linear-gradient"/></defs><title>Asset 3</title><g id="Layer_2" data-name="Layer 2"><g id="Layer_1-2" data-name="Layer 1"><path class="cls-1" d="M716.91,381.64H669V92.43h47.88Zm-44.88-3h41.88V95.43H672Z"/><path class="cls-2" d="M716.91,33.14H0V0H716.91ZM3,30.14H713.91V3H3Z"/><path class="cls-3" d="M716.91,63.28H0V30.14H716.91ZM3,60.28H713.91V33.14H3Z"/><path class="cls-4" d="M716.91,95.43H669V60.28h47.88Zm-44.88-3h41.88V63.28H672Z"/><path class="cls-1" d="M716.91,381.64H669V92.43h47.88Zm-44.88-3h41.88V95.43H672Z"/><path class="cls-5" d="M48.29,95.43H0V60.28H48.29ZM3,92.43H45.29V63.28H3Z"/><path class="cls-6" d="M48.29,127.58H0V92.43H48.29ZM3,124.58H45.29V95.43H3Z"/><path class="cls-7" d="M48.29,159.73H0V124.58H48.29ZM3,156.73H45.29V127.58H3Z"/><path class="cls-8" d="M48.29,191.88H0V156.73H48.29ZM3,188.88H45.29V159.73H3Z"/><path class="cls-9" d="M48.29,224H0V188.88H48.29ZM3,221H45.29V191.88H3Z"/><path class="cls-10" d="M48.28,404.57H22.65V221H48.28Zm-22.63-3H45.28V224H25.65Z"/><path class="cls-11" d="M25.65,404.57H0V221H25.65ZM3,401.57H22.65V224H3Z"/><path class="cls-12" d="M414.67,351.5H45.29V318.36H414.67Zm-366.38-3H411.67V321.36H48.29Z"/><path class="cls-13" d="M605.35,381.64H45.29V348.5H605.35Zm-557.06-3H602.35V351.5H48.29Z"/><path class="cls-14" d="M716.91,404.58H45.29V378.64H716.91Zm-668.62-3H713.91V381.64H48.29Z"/></g></g></svg>