<svg xmlns="http://www.w3.org/2000/svg" preserveAspectRatio="none" xmlns:xlink="http://www.w3.org/1999/xlink" viewBox="0 0 764.02 849.25"><defs><style>.cls-1{fill:url(#linear-gradient);}.cls-2{fill:url(#linear-gradient-2);}.cls-3{fill:url(#linear-gradient-3);}.cls-4{fill:url(#linear-gradient-4);}.cls-5{fill:url(#linear-gradient-5);}.cls-6{fill:url(#linear-gradient-6);}.cls-7{fill:url(#linear-gradient-7);}.cls-8{fill:url(#linear-gradient-8);}.cls-9{fill:url(#linear-gradient-9);}.cls-10{fill:url(#linear-gradient-10);}.cls-11{fill:url(#linear-gradient-11);}.cls-12{fill:url(#linear-gradient-12);}.cls-13{fill:url(#linear-gradient-13);}.cls-14{fill:url(#linear-gradient-14);}.cls-15{fill:url(#linear-gradient-15);}.cls-16{fill:url(#linear-gradient-16);}.cls-17{fill:url(#linear-gradient-17);}.cls-18{fill:url(#linear-gradient-18);}.cls-19{fill:url(#linear-gradient-19);}.cls-20{fill:url(#linear-gradient-20);}.cls-21{fill:url(#linear-gradient-21);}.cls-22{fill:url(#linear-gradient-22);}.cls-23{fill:url(#linear-gradient-23);}.cls-24{fill:url(#linear-gradient-24);}.cls-25{fill:url(#linear-gradient-25);}.cls-26{fill:url(#linear-gradient-26);}.cls-27{fill:url(#linear-gradient-27);}.cls-28{fill:url(#linear-gradient-28);}.cls-29{fill:url(#linear-gradient-29);}.cls-30{fill:url(#linear-gradient-30);}.cls-31{fill:url(#linear-gradient-31);}.cls-32{fill:url(#linear-gradient-32);}.cls-33{fill:url(#linear-gradient-33);}.cls-34{fill:url(#linear-gradient-34);}.cls-35{fill:url(#linear-gradient-35);}.cls-36{fill:url(#linear-gradient-36);}.cls-37{fill:url(#linear-gradient-37);}.cls-38{fill:url(#linear-gradient-38);}.cls-39{fill:url(#linear-gradient-39);}.cls-40{fill:url(#linear-gradient-40);}.cls-41{fill:url(#linear-gradient-41);}.cls-42{fill:url(#linear-gradient-42);}.cls-43{fill:url(#linear-gradient-43);}.cls-44{fill:url(#linear-gradient-44);}.cls-45{fill:url(#linear-gradient-45);}</style><linearGradient id="linear-gradient" x1="900.61" y1="316.04" x2="-165.1" y2="760.89" gradientUnits="userSpaceOnUse"><stop offset="0" stop-color="#d3dee0"/><stop offset="0.08" stop-color="#b7e2ee"/><stop offset="0.19" stop-color="#6f9bd3"/><stop offset="0.21" stop-color="#72a0d4"/><stop offset="0.23" stop-color="#79add6"/><stop offset="0.25" stop-color="#85c3d9"/><stop offset="0.27" stop-color="#8ed3db"/><stop offset="0.34" stop-color="#8ed3db"/><stop offset="0.38" stop-color="#8ac4cf"/><stop offset="0.45" stop-color="#7f9daf"/><stop offset="0.54" stop-color="#6c5d7c"/><stop offset="0.64" stop-color="#57123f"/><stop offset="0.7" stop-color="#bc1d23"/><stop offset="0.73" stop-color="#e45f26"/><stop offset="0.77" stop-color="#e45f26"/><stop offset="0.89" stop-color="#bc1d23"/><stop offset="1" stop-color="#600e20"/></linearGradient><linearGradient id="linear-gradient-2" x1="903.17" y1="332.98" x2="-162.54" y2="777.83" xlink:href="#linear-gradient"/><linearGradient id="linear-gradient-3" x1="905.73" y1="349.93" x2="-159.98" y2="794.77" xlink:href="#linear-gradient"/><linearGradient id="linear-gradient-4" x1="862.72" y1="432.12" x2="102.42" y2="749.48" xlink:href="#linear-gradient"/><linearGradient id="linear-gradient-5" x1="864.55" y1="449.37" x2="104.24" y2="766.73" xlink:href="#linear-gradient"/><linearGradient id="linear-gradient-6" x1="866.38" y1="466.62" x2="106.07" y2="783.98" xlink:href="#linear-gradient"/><linearGradient id="linear-gradient-7" x1="862.72" y1="486.16" x2="102.42" y2="803.52" xlink:href="#linear-gradient"/><linearGradient id="linear-gradient-8" x1="864.55" y1="503.41" x2="104.24" y2="820.77" xlink:href="#linear-gradient"/><linearGradient id="linear-gradient-9" x1="866.38" y1="520.66" x2="106.07" y2="838.02" xlink:href="#linear-gradient"/><linearGradient id="linear-gradient-10" x1="447.62" y1="640.55" x2="-84.66" y2="862.73" xlink:href="#linear-gradient"/><linearGradient id="linear-gradient-11" x1="448.9" y1="658.03" x2="-83.38" y2="880.21" xlink:href="#linear-gradient"/><linearGradient id="linear-gradient-12" x1="450.17" y1="675.51" x2="-82.1" y2="897.69" xlink:href="#linear-gradient"/><linearGradient id="linear-gradient-13" x1="447.62" y1="694.59" x2="-84.66" y2="916.77" xlink:href="#linear-gradient"/><linearGradient id="linear-gradient-14" x1="448.9" y1="712.07" x2="-83.38" y2="934.25" xlink:href="#linear-gradient"/><linearGradient id="linear-gradient-15" x1="905.16" y1="620.27" x2="-159.88" y2="1064.83" xlink:href="#linear-gradient"/><linearGradient id="linear-gradient-16" x1="900.61" y1="478.16" x2="-165.1" y2="923.01" xlink:href="#linear-gradient"/><linearGradient id="linear-gradient-17" x1="903.17" y1="495.1" x2="-162.54" y2="939.95" xlink:href="#linear-gradient"/><linearGradient id="linear-gradient-18" x1="905.73" y1="512.05" x2="-159.98" y2="956.89" xlink:href="#linear-gradient"/><linearGradient id="linear-gradient-19" x1="1000.69" y1="56.26" x2="-291.77" y2="595.75" xlink:href="#linear-gradient"/><linearGradient id="linear-gradient-20" x1="1186.2" y1="148.48" x2="-791.67" y2="974.08" xlink:href="#linear-gradient"/><linearGradient id="linear-gradient-21" x1="857.98" y1="636.36" x2="-847.02" y2="1318.36" xlink:href="#linear-gradient"/><linearGradient id="linear-gradient-22" x1="852.38" y1="622.36" x2="-852.62" y2="1304.36" xlink:href="#linear-gradient"/><linearGradient id="linear-gradient-23" x1="863.58" y1="650.35" x2="-841.42" y2="1332.35" xlink:href="#linear-gradient"/><linearGradient id="linear-gradient-24" x1="965.55" y1="71.57" x2="-159.76" y2="541.29" xlink:href="#linear-gradient"/><linearGradient id="linear-gradient-25" x1="922.42" y1="259.23" x2="-82.81" y2="678.83" xlink:href="#linear-gradient"/><linearGradient id="linear-gradient-26" x1="944.89" y1="295.22" x2="-73.92" y2="720.49" xlink:href="#linear-gradient"/><linearGradient id="linear-gradient-27" x1="900.61" y1="-97.89" x2="-165.1" y2="346.96" xlink:href="#linear-gradient"/><linearGradient id="linear-gradient-28" x1="903.17" y1="-80.94" x2="-162.54" y2="363.9" xlink:href="#linear-gradient"/><linearGradient id="linear-gradient-29" x1="905.73" y1="-64" x2="-159.98" y2="380.85" xlink:href="#linear-gradient"/><linearGradient id="linear-gradient-30" x1="900.61" y1="-151.93" x2="-165.1" y2="292.92" xlink:href="#linear-gradient"/><linearGradient id="linear-gradient-31" x1="903.17" y1="-134.98" x2="-162.54" y2="309.86" xlink:href="#linear-gradient"/><linearGradient id="linear-gradient-32" x1="905.73" y1="-118.04" x2="-159.98" y2="326.81" xlink:href="#linear-gradient"/><linearGradient id="linear-gradient-33" x1="900.61" y1="-205.97" x2="-165.1" y2="238.88" xlink:href="#linear-gradient"/><linearGradient id="linear-gradient-34" x1="903.17" y1="-189.02" x2="-162.54" y2="255.82" xlink:href="#linear-gradient"/><linearGradient id="linear-gradient-35" x1="905.73" y1="-172.08" x2="-159.98" y2="272.77" xlink:href="#linear-gradient"/><linearGradient id="linear-gradient-36" x1="1491.31" y1="-432.29" x2="-363.64" y2="342" xlink:href="#linear-gradient"/><linearGradient id="linear-gradient-37" x1="1495.77" y1="-416.14" x2="-359.18" y2="358.15" xlink:href="#linear-gradient"/><linearGradient id="linear-gradient-38" x1="1500.22" y1="-399.98" x2="-354.72" y2="374.3" xlink:href="#linear-gradient"/><linearGradient id="linear-gradient-39" x1="1504.68" y1="-383.83" x2="-350.27" y2="390.46" xlink:href="#linear-gradient"/><linearGradient id="linear-gradient-40" x1="1509.14" y1="-367.68" x2="-345.81" y2="406.61" xlink:href="#linear-gradient"/><linearGradient id="linear-gradient-41" x1="1513.6" y1="-351.53" x2="-341.35" y2="422.76" xlink:href="#linear-gradient"/><linearGradient id="linear-gradient-42" x1="1518.06" y1="-335.37" x2="-336.89" y2="438.91" xlink:href="#linear-gradient"/><linearGradient id="linear-gradient-43" x1="1522.52" y1="-319.22" x2="-332.43" y2="455.07" xlink:href="#linear-gradient"/><linearGradient id="linear-gradient-44" x1="2652.59" y1="-665.56" x2="-544.86" y2="669.11" xlink:href="#linear-gradient"/><linearGradient id="linear-gradient-45" x1="2653.49" y1="-682.89" x2="-543.96" y2="651.78" xlink:href="#linear-gradient"/></defs><title>Asset 1</title><g id="Layer_2" data-name="Layer 2"><g id="Layer_1-2" data-name="Layer 1"><path class="cls-1" d="M764,543H0V522H764ZM3,540H761V525H3Z"/><path class="cls-2" d="M764,561H0V540H764ZM3,558H761V543H3Z"/><path class="cls-3" d="M764,579.05H0V558H764Zm-761-3H761V561H3Z"/><path class="cls-4" d="M764,597.06H221.46v-21H764Zm-539.56-3H761v-15H224.46Z"/><path class="cls-5" d="M764,615.07H221.46v-21H764Zm-539.56-3H761v-15H224.46Z"/><path class="cls-6" d="M764,633.09H221.46v-21H764Zm-539.56-3H761v-15H224.46Z"/><path class="cls-7" d="M764,651.1H221.46v-21H764Zm-539.56-3H761v-15H224.46Z"/><path class="cls-8" d="M764,669.11H221.46v-21H764Zm-539.56-3H761v-15H224.46Z"/><path class="cls-9" d="M764,687.13H221.46v-21H764Zm-539.56-3H761v-15H224.46Z"/><path class="cls-10" d="M377.2,759.18H0v-21H377.2ZM3,756.18H374.2v-15H3Z"/><path class="cls-11" d="M377.2,777.19H0v-21H377.2ZM3,774.19H374.2v-15H3Z"/><path class="cls-12" d="M377.2,795.21H0v-21H377.2ZM3,792.21H374.2v-15H3Z"/><path class="cls-13" d="M377.2,813.22H0v-21H377.2ZM3,810.22H374.2v-15H3Z"/><path class="cls-14" d="M377.2,831.23H0v-21H377.2ZM3,828.23H374.2v-15H3Z"/><path class="cls-15" d="M763.53,849.25H0v-21H763.53ZM3,846.25H760.53v-15H3Z"/><path class="cls-16" d="M764,705.14H0v-21H764Zm-761-3H761v-15H3Z"/><path class="cls-17" d="M764,723.15H0v-21H764Zm-761-3H761v-15H3Z"/><path class="cls-18" d="M764,741.17H0v-21H764Zm-761-3H761v-15H3Z"/><path class="cls-19" d="M764,183.13H679.79v-21H764Zm-81.23-3H761v-15H682.79Z"/><path class="cls-20" d="M764,504.45H679.79V180.13H764Zm-81.23-3H761V183.13H682.79Z"/><path class="cls-21" d="M509.08,831.1h-43.6V738.17h43.6Zm-40.6-3h37.6V741.17h-37.6Z"/><path class="cls-22" d="M468.48,831.1H424.89V738.17h43.59Zm-40.59-3h37.59V741.17H427.89Z"/><path class="cls-23" d="M549.68,831.1h-43.6V738.17h43.6Zm-40.6-3h37.6V741.17h-37.6Z"/><path class="cls-24" d="M682.8,468.16H81.24v-306H682.8Zm-598.56-3H679.8v-300H84.24Z"/><path class="cls-25" d="M682.8,504.45H81.24V465.16H682.8Zm-598.56-3H679.8V468.16H84.24Z"/><path class="cls-26" d="M764,525H81.24V501.45H764ZM84.24,522H761V504.45H84.24Z"/><path class="cls-27" d="M764,129.09H0v-21H764Zm-761-3H761v-15H3Z"/><path class="cls-28" d="M764,147.11H0v-21H764Zm-761-3H761v-15H3Z"/><path class="cls-29" d="M764,165.12H0v-21H764Zm-761-3H761v-15H3Z"/><path class="cls-30" d="M764,75.05H0V54H764Zm-761-3H761V57H3Z"/><path class="cls-31" d="M764,93.07H0v-21H764Zm-761-3H761v-15H3Z"/><path class="cls-32" d="M764,111.08H0v-21H764Zm-761-3H761v-15H3Z"/><path class="cls-33" d="M764,21H0V0H764ZM3,18H761V3H3Z"/><path class="cls-34" d="M764,39H0V18H764ZM3,36H761V21H3Z"/><path class="cls-35" d="M764,57H0V36H764ZM3,54H761V39H3Z"/><path class="cls-36" d="M84.23,183.14H0v-21H84.23ZM3,180.14H81.23v-15H3Z"/><path class="cls-37" d="M84.23,201.15H0v-21H84.23ZM3,198.15H81.23v-15H3Z"/><path class="cls-38" d="M84.23,219.16H0v-21H84.23ZM3,216.16H81.23v-15H3Z"/><path class="cls-39" d="M84.23,237.18H0v-21H84.23ZM3,234.18H81.23v-15H3Z"/><path class="cls-40" d="M84.23,255.19H0v-21H84.23ZM3,252.19H81.23v-15H3Z"/><path class="cls-41" d="M84.23,273.2H0v-21H84.23ZM3,270.2H81.23v-15H3Z"/><path class="cls-42" d="M84.23,291.22H0v-21H84.23ZM3,288.22H81.23v-15H3Z"/><path class="cls-43" d="M84.23,309.23H0v-21H84.23ZM3,306.23H81.23v-15H3Z"/><path class="cls-44" d="M84.23,525H40.63V306.22h43.6Zm-40.6-3h37.6V309.22H43.63Z"/><path class="cls-45" d="M43.63,525H0V306.22h43.6ZM3,522h37.6V309.22H3Z"/></g></g></svg>