<svg xmlns="http://www.w3.org/2000/svg" xmlns:xlink="http://www.w3.org/1999/xlink" width="45.026" height="45.026" viewBox="0 0 45.026 45.026"><defs><linearGradient id="a" x1="2.116" y1="0.762" x2="-3.804" y2="-0.198" gradientUnits="objectBoundingBox"><stop offset="0" stop-color="#d3dee0"/><stop offset="0.082" stop-color="#b7e2ee"/><stop offset="0.194" stop-color="#6f9bd3"/><stop offset="0.212" stop-color="#719fd3"/><stop offset="0.233" stop-color="#78acd5"/><stop offset="0.254" stop-color="#85c2d8"/><stop offset="0.267" stop-color="#8ed3db"/><stop offset="0.342" stop-color="#8ed3db"/><stop offset="0.378" stop-color="#89c3ce"/><stop offset="0.447" stop-color="#7e9caf"/><stop offset="0.542" stop-color="#6c5d7b"/><stop offset="0.643" stop-color="#57123f"/><stop offset="0.704" stop-color="#bc1d23"/><stop offset="0.728" stop-color="#e45f26"/><stop offset="0.775" stop-color="#e45f26"/><stop offset="0.892" stop-color="#bc1d23"/><stop offset="1" stop-color="#600e20"/></linearGradient><linearGradient id="b" x1="2.971" y1="0.93" x2="-5.99" y2="-0.737" xlink:href="#a"/></defs><g transform="translate(-1496.844 -1149.381)"><path d="M8220.224,3716.637a22.513,22.513,0,1,0,22.514,22.513A22.513,22.513,0,0,0,8220.224,3716.637Zm0,42.8a20.288,20.288,0,1,1,20.288-20.288A20.288,20.288,0,0,1,8220.224,3759.438Z" transform="translate(-6700.867 -2567.256)" fill="url(#a)"/><path d="M8221.776,3733.153c3.4-2.041,5.213.828,3.474,4.077s-3.321,5.36-4.152,5.36-1.467-2.168-2.416-5.966c-.982-3.923-.977-10.99-5.058-10.192-3.849.757-8.907,6.8-8.907,6.8l1.207,1.586s2.492-1.966,3.322-.983,4,12.838,5.058,15.024c.924,1.916,3.472,4.452,6.267,2.644s12.078-9.739,13.739-19.1S8223.136,3725,8221.776,3733.153Z" transform="translate(-6700.867 -2567.256)" fill="url(#b)"/></g></svg>