<svg xmlns="http://www.w3.org/2000/svg" xmlns:xlink="http://www.w3.org/1999/xlink" width="45.026" height="45.026" viewBox="0 0 45.026 45.026"><defs><linearGradient id="a" x1="17.264" y1="1.762" x2="-4.744" y2="0.095" gradientUnits="objectBoundingBox"><stop offset="0" stop-color="#d3dee0"/><stop offset="0.082" stop-color="#b7e2ee"/><stop offset="0.194" stop-color="#6f9bd3"/><stop offset="0.212" stop-color="#719fd3"/><stop offset="0.233" stop-color="#78acd5"/><stop offset="0.254" stop-color="#85c2d8"/><stop offset="0.267" stop-color="#8ed3db"/><stop offset="0.342" stop-color="#8ed3db"/><stop offset="0.378" stop-color="#89c3ce"/><stop offset="0.447" stop-color="#7e9caf"/><stop offset="0.542" stop-color="#6c5d7b"/><stop offset="0.643" stop-color="#57123f"/><stop offset="0.704" stop-color="#bc1d23"/><stop offset="0.728" stop-color="#e45f26"/><stop offset="0.775" stop-color="#e45f26"/><stop offset="0.892" stop-color="#bc1d23"/><stop offset="1" stop-color="#600e20"/></linearGradient><linearGradient id="b" x1="5.008" y1="1.232" x2="-0.911" y2="0.271" xlink:href="#a"/></defs><g transform="translate(-1363.183 -1149.381)"><path d="M8088.494,3731.88a1.1,1.1,0,0,1,1.147-1.247h2.911v-4.447l-4.009-.017c-4.45,0-5.461,3.317-5.461,5.44v2.346h-2.574v5.189h2.6v12.976h5.19v-12.976h3.852l.186-2.038.287-3.151h-4.124Z" transform="translate(-6700.867 -2567.256)" fill="url(#a)"/><path d="M8086.563,3716.637a22.513,22.513,0,1,0,22.513,22.513A22.513,22.513,0,0,0,8086.563,3716.637Zm0,42.8a20.288,20.288,0,1,1,20.288-20.288A20.288,20.288,0,0,1,8086.563,3759.438Z" transform="translate(-6700.867 -2567.256)" fill="url(#b)"/></g></svg>