<svg xmlns="http://www.w3.org/2000/svg" xmlns:xlink="http://www.w3.org/1999/xlink" width="45.025" height="45.026" viewBox="0 0 45.025 45.026"><defs><linearGradient id="a" x1="42.323" y1="7.28" x2="-42.017" y2="-6.394" gradientUnits="objectBoundingBox"><stop offset="0" stop-color="#d3dee0"/><stop offset="0.082" stop-color="#b7e2ee"/><stop offset="0.194" stop-color="#6f9bd3"/><stop offset="0.212" stop-color="#719fd3"/><stop offset="0.233" stop-color="#78acd5"/><stop offset="0.254" stop-color="#85c2d8"/><stop offset="0.267" stop-color="#8ed3db"/><stop offset="0.342" stop-color="#8ed3db"/><stop offset="0.378" stop-color="#89c3ce"/><stop offset="0.447" stop-color="#7e9caf"/><stop offset="0.542" stop-color="#6c5d7b"/><stop offset="0.643" stop-color="#57123f"/><stop offset="0.704" stop-color="#bc1d23"/><stop offset="0.728" stop-color="#e45f26"/><stop offset="0.775" stop-color="#e45f26"/><stop offset="0.892" stop-color="#bc1d23"/><stop offset="1" stop-color="#600e20"/></linearGradient><linearGradient id="b" x1="5.807" y1="1.362" x2="-4.458" y2="-0.305" xlink:href="#a"/><linearGradient id="c" x1="10.827" y1="2.176" x2="-9.146" y2="-1.065" xlink:href="#a"/><linearGradient id="d" x1="42.297" y1="7.283" x2="-41.991" y2="-6.395" xlink:href="#a"/><linearGradient id="e" x1="3.562" y1="0.997" x2="-2.357" y2="0.036" xlink:href="#a"/></defs><g transform="translate(-1430.014 -1149.381)"><path d="M8160.371,3730.66a1.582,1.582,0,0,0-1.582,1.593,1.6,1.6,0,0,0,1.592,1.57,1.573,1.573,0,0,0,1.568-1.58A1.545,1.545,0,0,0,8160.371,3730.66Z" transform="translate(-6700.867 -2567.256)" fill="url(#a)"/><path d="M8164.915,3729.109a6.662,6.662,0,0,0-3.077-2.3,11.344,11.344,0,0,0-3.535-.58c-1.127-.052-2.256-.058-3.384-.047-2.643.027-5.291-.1-7.928.175a7.174,7.174,0,0,0-3.376,1.208,6.836,6.836,0,0,0-2.907,4.8,22.63,22.63,0,0,0-.207,3.266c-.019,2.193-.007,4.385,0,6.578a30.385,30.385,0,0,0,.168,3.333,7.308,7.308,0,0,0,1.6,3.975,6.865,6.865,0,0,0,3.708,2.256,15.935,15.935,0,0,0,3.465.33c1.293.044,2.588.01,4.489.01,1.181-.021,2.97.043,4.759-.067a12.945,12.945,0,0,0,2.239-.273,6.878,6.878,0,0,0,3.2-1.688,7.037,7.037,0,0,0,2.045-3.882,15.935,15.935,0,0,0,.239-3.09c.008-3.37.138-6.742-.116-10.108A7.336,7.336,0,0,0,8164.915,3729.109Zm-.878,13.4a19.662,19.662,0,0,1-.21,3.222,4.769,4.769,0,0,1-1.127,2.385,4.618,4.618,0,0,1-2.662,1.394,12.763,12.763,0,0,1-1.972.178c-2.58.08-5.16.05-7.741.037a24.942,24.942,0,0,1-2.968-.132,5.054,5.054,0,0,1-2.622-1.01,4.492,4.492,0,0,1-1.561-2.516,10.492,10.492,0,0,1-.246-2.18c-.075-2.522-.067-5.045-.038-7.568.012-1,.015-2.012.115-3.014a5.35,5.35,0,0,1,1.012-2.867,4.533,4.533,0,0,1,2.951-1.665,18.049,18.049,0,0,1,2.491-.176c2.084-.059,4.169-.043,6.253-.032,1.221.006,2.444.009,3.66.126a5.024,5.024,0,0,1,3.065,1.226,4.488,4.488,0,0,1,1.256,2.075,9.76,9.76,0,0,1,.306,2.367c.07,1.594.049,3.19.045,4.786C8164.044,3740.268,8164.069,3741.391,8164.037,3742.511Z" transform="translate(-6700.867 -2567.256)" fill="url(#b)"/><path d="M8153.461,3732.472a6.672,6.672,0,1,0,6.673,6.673A6.672,6.672,0,0,0,8153.461,3732.472Zm0,10.921a4.249,4.249,0,1,1,4.248-4.248A4.248,4.248,0,0,1,8153.461,3743.393Z" transform="translate(-6700.867 -2567.256)" fill="url(#c)"/><circle cx="1.581" cy="1.581" r="1.581" transform="translate(1457.92 1163.404)" fill="url(#d)"/><path d="M8153.393,3716.637a22.513,22.513,0,1,0,22.513,22.513A22.513,22.513,0,0,0,8153.393,3716.637Zm0,42.8a20.288,20.288,0,1,1,20.289-20.288A20.288,20.288,0,0,1,8153.393,3759.438Z" transform="translate(-6700.867 -2567.256)" fill="url(#e)"/></g></svg>