<?xml version="1.0" standalone="no"?>
<!DOCTYPE svg PUBLIC "-//W3C//DTD SVG 20010904//EN"
 "http://www.w3.org/TR/2001/REC-SVG-20010904/DTD/svg10.dtd">
<svg version="1.0" xmlns="http://www.w3.org/2000/svg"
 width="2030.000000pt" height="2043.000000pt" viewBox="0 0 2030.000000 2043.000000"
 preserveAspectRatio="xMidYMid meet">
<metadata>
Created by potrace 1.16, written by Peter Selinger 2001-2019
</metadata>
<g transform="translate(0.000000,2043.000000) scale(0.100000,-0.100000)"
fill="#000000" stroke="none">
<path d="M6818 20269 c-26 -5 -87 -13 -134 -17 -66 -5 -90 -11 -98 -24 -16
-27 6 -41 71 -46 73 -5 128 10 181 48 37 27 55 52 35 49 -5 -1 -29 -5 -55 -10z"/>
<path d="M5155 20054 c-11 -9 -52 -32 -92 -51 -58 -28 -92 -37 -175 -46 -57
-6 -104 -12 -106 -13 -2 -1 2 -20 9 -42 6 -22 9 -49 5 -59 -6 -14 -13 -6 -36
40 -17 35 -31 53 -36 46 -17 -29 -342 15 -363 49 -8 14 -56 8 -76 -8 -9 -8
-15 -25 -13 -39 3 -25 4 -26 73 -24 l70 3 -30 -26 c-16 -14 -40 -35 -52 -45
-28 -23 -28 -30 -3 -62 35 -45 160 -54 229 -17 27 14 31 13 31 -10 0 -17 7
-20 53 -20 71 0 158 -22 196 -49 35 -26 56 -68 67 -137 l7 -46 71 6 c104 10
106 11 106 57 0 44 -21 71 -72 92 -18 8 -39 21 -46 30 -11 13 -7 20 34 48 102
70 210 89 260 46 42 -36 29 -79 -44 -148 -94 -88 -92 -150 7 -201 113 -59 178
-32 359 151 147 149 202 183 294 185 52 1 58 3 58 23 0 12 -11 35 -25 51 -14
17 -25 34 -25 39 0 17 22 31 41 26 15 -4 19 -14 19 -44 0 -45 18 -89 37 -89 8
0 13 12 13 31 l0 30 26 -20 c31 -24 62 -27 89 -7 17 12 17 17 5 45 -7 18 -25
38 -41 46 -34 18 -59 52 -59 82 0 21 -3 22 -52 16 -29 -3 -69 -12 -88 -20 -19
-8 -81 -30 -138 -49 -56 -18 -138 -49 -183 -69 -60 -26 -94 -35 -135 -35 -60
0 -98 14 -89 33 4 7 0 4 -8 -6 -14 -17 -18 -17 -44 -4 -75 39 -115 126 -77
168 13 14 13 20 2 38 -15 25 -26 26 -53 5z"/>
<path d="M11720 20057 c0 -20 -47 -57 -72 -57 -11 0 -31 9 -45 20 -28 22 -24
23 -101 -37 l-22 -18 33 -75 c51 -116 75 -157 115 -202 43 -48 85 -68 142 -68
35 0 41 3 36 18 -42 143 -53 243 -36 341 7 40 10 74 8 76 -1 2 -15 6 -31 10
-21 6 -27 4 -27 -8z"/>
<path d="M4158 19983 c-34 -5 -37 -33 -8 -70 28 -36 15 -46 -30 -23 -49 25
-72 25 -93 2 -32 -35 -22 -50 36 -55 28 -3 77 -12 107 -22 43 -13 61 -14 83
-6 l29 11 -23 19 c-22 18 -22 21 -11 70 18 79 17 81 -25 80 -21 -1 -50 -4 -65
-6z"/>
<path d="M10670 19671 c-42 -33 -109 -61 -149 -61 -32 0 -43 -25 -61 -145 -18
-126 -21 -135 -35 -135 -9 0 -16 -16 -20 -42 -7 -46 -28 -78 -62 -96 -15 -8
-32 -47 -63 -139 -23 -71 -46 -136 -51 -145 -6 -12 -6 -18 1 -18 21 0 11 -108
-14 -158 -44 -86 -167 -193 -186 -162 -12 20 -41 -166 -34 -221 8 -59 -1 -85
-101 -295 -51 -107 -84 -163 -114 -193 -44 -44 -83 -54 -100 -24 -7 14 -11 10
-20 -22 -13 -52 -31 -162 -31 -197 0 -17 7 -29 18 -32 11 -4 25 -19 33 -34 40
-80 39 -80 76 -11 18 35 46 77 62 94 23 23 34 50 49 120 26 119 86 279 187
505 86 191 157 372 194 498 12 40 37 98 55 130 102 175 186 369 186 427 0 9
13 34 29 54 50 64 118 165 141 210 20 40 52 121 47 121 -1 -1 -18 -13 -37 -29z"/>
<path d="M6851 19544 c-19 -13 -42 -24 -52 -24 -11 0 -19 -7 -19 -15 0 -8 3
-15 8 -15 4 0 16 -14 27 -30 24 -36 125 -120 175 -145 19 -10 62 -45 95 -79
60 -60 84 -108 86 -167 0 -27 60 -82 66 -62 3 7 11 9 19 6 10 -4 2 -16 -28
-44 -24 -21 -51 -41 -60 -44 -10 -4 -18 -13 -18 -20 0 -24 22 -64 34 -60 6 2
23 6 38 9 49 11 70 44 68 106 -3 86 -1 110 11 110 7 0 9 -16 4 -50 -9 -67 11
-100 59 -100 42 0 86 33 86 65 0 27 -26 45 -64 45 -28 0 -33 9 -14 28 6 6 11
31 11 56 0 50 -40 126 -105 201 -21 24 -38 48 -38 54 0 19 -25 12 -48 -12 -23
-25 -29 -47 -11 -47 5 0 7 -5 3 -12 -7 -11 -23 5 -46 47 -10 18 -10 19 6 5 16
-13 20 -12 32 5 18 25 17 42 -5 90 -23 51 -47 73 -63 57 -27 -27 -129 -5 -191
41 l-32 24 -34 -23z"/>
<path d="M7695 19340 c-3 -5 -15 -10 -26 -10 -23 0 -23 -1 -3 -44 17 -34 17
-35 -15 -72 -18 -23 -31 -50 -31 -66 0 -26 3 -28 38 -29 20 0 30 -3 22 -6 -55
-20 -69 -88 -25 -117 22 -14 25 -22 19 -51 -7 -37 3 -95 16 -95 17 0 49 88 61
169 12 89 7 230 -11 294 -10 35 -32 48 -45 27z"/>
<path d="M9243 19050 c-55 -51 -27 -251 42 -296 26 -17 27 -16 59 15 39 37 78
107 96 168 13 41 12 41 -25 75 -21 18 -47 38 -59 45 -33 19 -89 16 -113 -7z"/>
<path d="M12470 18849 c-71 -14 -165 -65 -231 -127 -33 -30 -119 -135 -192
-231 -153 -206 -197 -255 -332 -366 -112 -93 -185 -166 -334 -335 -106 -119
-126 -153 -232 -389 -64 -144 -62 -178 13 -217 26 -14 28 -13 34 13 4 16 22
66 41 113 18 47 36 101 40 120 3 21 26 59 57 95 28 33 100 129 160 213 146
204 211 274 290 311 61 30 64 33 167 188 57 87 106 162 108 168 2 5 30 47 63
92 44 62 73 91 118 118 33 20 69 48 81 63 11 15 38 32 60 38 38 11 168 101
169 117 0 4 -9 7 -21 7 -11 0 -17 5 -14 10 3 6 5 10 3 9 -2 -1 -23 -5 -48 -10z"/>
<path d="M7680 18826 c0 -7 -3 -34 -6 -60 -6 -39 -4 -46 11 -46 9 0 45 -27 79
-59 68 -67 102 -83 146 -75 24 5 30 12 30 33 0 68 -24 88 -63 54 -19 -17 -20
-17 -8 4 16 32 14 36 -16 30 -40 -8 -53 1 -75 52 -11 25 -27 54 -35 64 -19 20
-63 23 -63 3z"/>
<path d="M7084 18803 c-11 -10 -33 -35 -49 -55 -20 -28 -35 -38 -55 -38 -39 0
-60 -9 -60 -26 0 -8 -7 -17 -15 -20 -12 -5 -14 -15 -9 -40 7 -36 -5 -44 -36
-24 -12 8 -12 10 3 16 9 3 17 11 17 18 -1 6 -15 -5 -33 -25 -68 -78 -160 -115
-442 -180 -96 -22 -213 -53 -259 -69 -46 -17 -92 -30 -100 -30 -9 0 -16 -6
-16 -14 0 -16 -39 -26 -66 -16 -30 10 -104 0 -104 -15 0 -7 -10 -15 -22 -19
-36 -9 -48 -7 -48 9 0 23 -26 18 -43 -8 -20 -30 -80 -50 -99 -31 -11 10 -22
10 -67 -1 -50 -14 -57 -13 -100 6 -50 22 -113 77 -105 91 3 4 -10 -1 -29 -12
-34 -20 -34 -20 -40 -113 -4 -50 -9 -105 -12 -121 -20 -97 -130 -353 -156
-361 -18 -6 -34 -49 -24 -65 4 -6 36 -10 73 -10 37 -1 85 -7 107 -15 46 -16
55 -13 32 13 -16 17 -15 20 18 52 41 39 54 34 36 -16 -15 -42 -11 -50 20 -33
17 8 24 9 27 1 2 -6 26 -42 53 -79 27 -37 59 -87 70 -110 20 -41 49 -62 34
-25 -4 9 -9 32 -12 51 -6 31 -4 34 15 29 17 -5 14 1 -14 28 -20 18 -33 38 -29
44 14 23 -9 74 -61 129 l-54 59 33 24 c53 41 56 41 82 11 15 -17 28 -24 32
-18 26 34 106 -12 118 -67 9 -37 25 -44 64 -23 36 18 38 27 11 71 -12 18 -17
35 -11 38 5 4 12 -3 16 -14 7 -22 6 -22 73 -24 47 -1 49 0 61 34 24 67 24 79
5 87 -10 4 -19 2 -22 -5 -2 -7 -11 -16 -21 -21 -15 -9 -16 -6 -7 35 l10 44 31
-30 c34 -33 79 -40 89 -14 9 22 7 56 -2 50 -4 -2 -5 16 -2 42 l5 47 125 33
c393 104 545 147 644 180 l111 38 13 64 c23 110 52 193 84 244 l31 48 19 -36
c26 -50 91 -81 149 -69 47 9 39 46 -17 86 l-46 32 29 12 c43 17 54 36 56 90
l2 48 -45 3 c-31 1 -51 -3 -66 -15z"/>
<path d="M4450 18480 c0 -99 83 -156 138 -97 54 57 -3 137 -98 137 l-40 0 0
-40z"/>
<path d="M6335 18090 c-112 -20 -143 -145 -85 -334 12 -38 23 -76 25 -85 2 -9
12 -49 23 -90 l19 -74 64 -16 c117 -30 219 -110 278 -221 33 -62 61 -141 61
-174 0 -11 18 -41 40 -67 22 -26 40 -50 40 -53 0 -3 -25 -13 -55 -21 -71 -21
-85 -36 -85 -92 0 -39 2 -44 18 -38 30 13 76 21 94 17 22 -4 33 -58 19 -94 -5
-14 -7 -29 -4 -32 4 -3 1 -6 -6 -6 -7 0 -9 -4 -6 -10 3 -5 0 -10 -7 -11 -7 0
28 -13 79 -28 50 -15 103 -35 117 -44 l25 -17 -15 53 c-9 28 -26 76 -40 106
-27 61 -29 80 -11 105 12 17 16 15 50 -25 77 -90 106 -244 71 -379 -17 -65
-17 -72 -2 -104 l17 -34 -63 33 c-57 30 -151 53 -278 70 -27 3 -48 10 -48 16
0 5 -7 9 -15 9 -18 0 -18 -7 -6 -46 6 -16 12 -51 15 -79 3 -27 8 -62 11 -76 9
-34 -19 -95 -53 -117 -18 -12 -47 -15 -119 -14 -87 1 -100 4 -166 38 -40 20
-83 46 -97 59 -43 40 -123 85 -149 85 -15 0 -51 12 -81 26 -106 49 -268 104
-308 104 -42 0 -92 -17 -92 -31 0 -5 12 -11 28 -15 92 -19 157 -64 168 -115 5
-21 5 -102 1 -151 -1 -10 -5 -18 -10 -18 -4 0 -6 -4 -3 -8 3 -5 -4 -23 -14
-40 -13 -20 -15 -32 -8 -32 7 0 29 -12 50 -26 32 -23 38 -32 38 -63 0 -69 -86
-173 -169 -205 -54 -21 -143 -24 -193 -7 -33 11 -36 14 -26 31 14 23 1 41 -13
20 -8 -11 -12 -12 -16 -2 -6 14 -39 16 -48 2 -12 -20 -35 4 -52 56 -9 30 -21
54 -26 54 -5 0 -49 -18 -98 -40 -101 -45 -180 -60 -333 -62 -102 -1 -176 17
-176 42 0 6 -5 8 -11 4 -19 -11 32 -50 99 -74 34 -12 61 -24 59 -26 -8 -8
-131 17 -153 31 -34 22 -58 76 -50 110 4 16 8 62 10 104 2 72 14 110 54 169 5
7 44 17 93 22 46 5 110 19 142 31 50 19 58 25 52 43 -3 12 -11 49 -17 82 -25
142 54 250 282 383 129 75 270 176 270 193 0 5 -6 19 -12 31 -7 13 -13 59 -13
109 0 66 -4 91 -16 103 -15 15 -17 14 -33 -9 -9 -14 -25 -26 -36 -26 -22 0
-44 34 -36 56 8 20 0 17 -23 -7 -28 -31 -23 -117 11 -186 l26 -52 -46 -18
c-81 -30 -219 -121 -287 -187 -89 -87 -233 -164 -307 -165 -50 -1 -282 110
-321 152 -35 39 -83 125 -94 167 -8 29 -11 15 -26 -91 -9 -68 -17 -147 -17
-175 0 -68 -24 -97 -101 -125 -55 -20 -60 -24 -55 -48 3 -14 8 -48 12 -76 7
-53 27 -101 44 -107 6 -2 6 -16 -1 -43 -23 -83 10 -191 90 -292 58 -72 127
-176 155 -232 l26 -50 -66 -77 c-36 -43 -72 -91 -81 -108 -18 -35 -26 -141
-13 -166 7 -13 -3 -28 -41 -66 -49 -48 -60 -79 -37 -102 7 -7 20 -12 29 -12 9
0 23 -10 31 -21 16 -26 34 -19 87 30 18 17 39 31 47 31 7 0 40 -39 72 -88 33
-48 67 -93 75 -101 13 -10 14 -17 5 -31 -9 -14 -8 -28 6 -63 18 -49 61 -92
126 -129 l40 -23 -6 -52 -6 -52 40 -20 c48 -24 187 -128 222 -165 18 -20 24
-36 21 -61 -2 -32 -1 -34 36 -37 l38 -3 0 -99 c0 -70 4 -101 12 -103 9 -3 4
-15 -13 -39 l-26 -34 48 -1 c130 -2 151 -22 139 -134 l-6 -63 -93 -88 c-134
-128 -126 -124 -126 -65 0 45 -2 50 -28 59 -24 8 -31 7 -41 -9 -35 -58 -130
-75 -203 -38 -53 27 -138 107 -138 130 0 10 -13 27 -29 38 -30 21 -62 68 -136
196 l-41 70 -89 7 c-118 8 -194 37 -235 88 -16 21 -30 42 -30 48 0 30 -101
114 -153 128 -22 5 -27 3 -27 -13 0 -20 15 -35 148 -152 39 -34 70 -67 67 -71
-3 -4 -22 -11 -42 -14 -21 -4 -53 -12 -70 -17 l-33 -11 0 -79 0 -79 48 0 c51
0 93 18 141 62 28 26 30 26 36 7 4 -10 24 -28 45 -39 21 -11 65 -44 97 -73 32
-30 74 -59 94 -66 30 -10 40 -21 65 -74 15 -34 45 -87 66 -118 l37 -56 -105
-6 c-82 -5 -125 -13 -206 -41 -56 -19 -106 -32 -110 -30 -4 3 -8 20 -8 38 0
43 -28 78 -93 115 -28 16 -79 57 -112 90 -41 43 -67 61 -85 61 -33 0 -93 37
-84 52 5 8 -4 9 -31 5 -20 -3 -40 -9 -43 -12 -9 -9 16 -78 46 -125 l28 -45
-30 -15 c-31 -15 -52 -59 -42 -85 4 -11 21 -15 56 -15 40 0 56 5 74 23 l23 23
26 -22 c20 -17 27 -33 29 -70 3 -45 5 -49 36 -58 27 -8 38 -5 63 13 l31 23 23
-22 24 -23 -57 -37 c-66 -43 -169 -135 -263 -235 -64 -69 -132 -168 -200 -292
-38 -70 -31 -68 -151 -42 -109 24 -185 107 -172 188 5 31 1 51 -21 95 -23 47
-27 65 -23 114 3 31 11 71 17 87 7 17 12 32 11 34 -1 2 3 7 8 10 14 9 89 155
97 189 3 9 11 44 20 77 36 144 3 175 -58 54 -26 -52 -93 -105 -194 -156 -79
-39 -128 -41 -179 -8 -55 36 -105 151 -74 170 6 4 7 12 3 18 -4 7 -6 20 -5 30
2 9 0 17 -5 17 -4 0 -9 21 -11 47 -3 46 -15 73 -33 73 -5 0 -8 -5 -6 -11 4
-19 -59 -51 -93 -47 l-32 3 53 40 c311 235 592 726 653 1137 43 287 -2 675
-100 870 -44 87 -145 193 -221 232 -67 33 -138 35 -202 4 -63 -30 -186 -151
-261 -256 -119 -166 -454 -894 -576 -1251 -15 -46 -30 -79 -32 -73 -2 6 1 44
7 84 20 140 35 560 23 650 -19 143 -49 209 -106 237 -61 29 -84 -2 -172 -233
-29 -78 -73 -194 -99 -258 -42 -108 -149 -502 -271 -993 -26 -104 -48 -191
-48 -192 -3 -5 -123 29 -153 43 -17 7 -37 14 -45 14 -8 0 -68 27 -134 60
l-119 61 -3 -55 -3 -54 -32 9 c-65 19 -64 3 5 -51 46 -37 57 -41 102 -39 51 1
67 -5 251 -91 22 -10 52 -22 67 -25 16 -4 28 -10 28 -12 0 -3 -20 -106 -45
-228 -108 -535 -150 -877 -125 -1023 19 -115 64 -194 166 -293 96 -93 139
-115 205 -106 90 12 145 82 173 222 8 39 33 219 56 400 42 335 66 484 98 610
12 52 18 63 20 42 3 -21 12 -31 40 -43 47 -19 77 -48 109 -101 22 -38 23 -47
13 -78 -6 -19 -14 -34 -18 -34 -39 6 -62 -26 -25 -33 20 -4 19 0 23 -186 l3
-123 56 6 c81 9 147 25 213 51 31 13 59 24 62 24 2 0 9 -20 15 -44 14 -55 34
-71 87 -70 52 1 74 17 74 55 0 15 4 30 8 33 16 9 77 -31 95 -62 17 -29 17 -34
3 -63 -20 -41 -20 -49 2 -49 9 0 35 -10 57 -22 52 -28 122 -49 140 -42 7 3 17
18 20 34 7 31 35 60 81 84 31 15 32 15 27 -7 -11 -44 -61 -146 -101 -203 -56
-83 -162 -185 -262 -253 -114 -77 -116 -78 -90 -43 12 16 25 51 28 77 l5 48
-39 -7 c-114 -21 -245 -126 -280 -224 l-19 -53 -107 -34 c-422 -137 -702 -148
-965 -41 -72 30 -105 32 -127 10 -35 -34 -18 -97 84 -310 53 -109 70 -135 133
-198 48 -47 98 -85 147 -111 l75 -39 -35 -9 c-30 -7 -73 -33 -45 -26 6 1 18
-1 28 -6 10 -4 33 -5 51 -2 19 3 38 1 43 -4 6 -6 20 -6 37 1 21 7 42 6 85 -5
99 -25 269 -41 361 -33 419 38 927 242 1163 467 44 42 99 104 123 138 53 73
116 205 140 291 17 59 30 77 39 50 2 -7 5 -54 7 -104 3 -73 1 -91 -9 -87 -8 3
-13 -3 -13 -16 0 -12 5 -21 10 -21 6 0 10 -7 10 -15 0 -8 4 -15 8 -15 5 0 16
-35 25 -78 22 -101 81 -223 141 -289 100 -111 252 -149 411 -104 38 11 72 18
74 16 10 -11 -33 -54 -73 -73 -61 -29 -191 -55 -245 -49 -33 4 -52 0 -75 -15
-23 -14 -25 -18 -8 -13 39 11 24 -11 -20 -30 -24 -10 -57 -24 -73 -31 -17 -7
-51 -14 -75 -15 -56 -2 -245 -41 -358 -74 -47 -14 -102 -24 -122 -24 -34 1
-33 2 15 14 28 7 41 14 30 15 -61 8 -85 7 -85 -1 0 -6 -4 -8 -9 -4 -5 3 -12 1
-16 -5 -3 -5 0 -10 7 -10 9 0 9 -3 -2 -10 -14 -9 -214 -6 -297 5 -17 3 -89 9
-160 15 -114 9 -157 14 -173 20 -3 2 -29 2 -57 0 -29 -1 -53 3 -53 8 0 12
-141 22 -156 11 -13 -10 -84 0 -84 12 0 5 -5 9 -11 9 -5 0 -7 -5 -3 -11 5 -9
-1 -10 -22 -4 -31 10 -57 10 -296 7 -127 -2 -158 -5 -158 -16 0 -26 99 -59
201 -67 53 -4 123 -13 155 -19 102 -19 108 -21 167 -34 45 -10 77 -11 137 -4
86 11 183 4 203 -16 22 -22 67 -49 73 -43 3 3 20 1 37 -4 18 -5 61 -10 97 -10
36 0 98 -10 139 -21 71 -19 162 -21 299 -5 18 2 56 0 85 -4 29 -5 88 -11 132
-15 44 -3 84 -8 88 -11 4 -3 14 1 22 7 8 7 15 9 15 5 0 -5 9 0 19 9 28 25 119
35 167 19 22 -8 73 -13 114 -12 47 1 91 -5 118 -14 23 -9 43 -16 45 -15 1 1
32 -9 68 -21 37 -12 79 -24 95 -27 40 -7 56 -18 101 -67 23 -25 44 -43 46 -40
3 2 5 -2 4 -9 0 -7 1 -22 2 -33 1 -16 3 -17 10 -6 10 15 13 4 26 -93 7 -50 11
-55 37 -48 22 5 22 5 6 -20 -71 -109 -118 -201 -129 -256 -7 -34 -18 -62 -25
-62 -6 0 -14 -13 -17 -29 -8 -37 -43 -78 -123 -142 -53 -42 -75 -53 -112 -56
-47 -5 -107 10 -98 25 2 4 -9 8 -26 9 -16 0 -38 10 -49 22 -29 31 -77 53 -107
49 -67 -8 -21 -136 66 -185 l47 -26 -20 -43 c-14 -31 -29 -46 -52 -54 -22 -8
-36 -22 -47 -50 -8 -21 -26 -44 -38 -51 -13 -7 -90 -16 -173 -21 -82 -4 -188
-15 -235 -24 -47 -9 -94 -18 -106 -19 -11 -2 -39 -12 -62 -24 -23 -12 -48 -21
-57 -21 -8 0 -15 -5 -15 -11 0 -6 -7 -9 -15 -5 -8 3 -15 1 -15 -5 0 -6 -7 -8
-16 -5 -10 4 -13 2 -8 -6 5 -7 0 -9 -14 -6 -12 3 -26 0 -32 -6 -28 -35 -268
-51 -333 -23 -33 14 -38 14 -50 1 -34 -42 -49 -54 -74 -60 -43 -10 -53 -23
-53 -65 0 -39 14 -51 36 -29 6 6 28 8 51 4 l41 -6 -6 -41 -5 -40 34 8 c19 4
46 7 61 7 15 -1 51 10 80 23 29 14 71 25 93 25 23 0 54 9 75 22 19 12 42 23
50 24 58 8 140 30 282 74 161 51 164 51 278 49 63 -2 122 0 130 4 13 6 15 -5
15 -74 l0 -81 37 -21 c33 -20 40 -21 70 -8 18 7 50 16 71 18 37 5 37 5 37 52
0 30 9 65 25 98 30 59 44 74 77 76 13 0 43 13 68 28 24 15 46 26 47 25 5 -4
-18 -46 -44 -83 -13 -17 -23 -39 -23 -48 0 -15 3 -15 33 4 17 11 32 24 32 28
0 4 11 27 25 51 l24 42 78 0 78 0 0 41 c0 40 1 41 28 36 156 -32 142 -33 214
4 26 13 31 11 25 -11 -3 -10 -1 -20 3 -22 11 -4 -9 -101 -23 -110 -6 -3 -38
-12 -72 -18 -58 -11 -106 -29 -78 -30 7 0 10 -6 7 -14 -3 -8 -1 -17 5 -21 17
-10 13 -25 -6 -25 -15 0 -15 -1 1 -13 16 -12 16 -14 -7 -38 -41 -45 -207 -92
-207 -60 0 5 17 23 38 41 20 17 25 24 11 16 -14 -9 -30 -13 -35 -9 -5 5 -6 4
-3 0 7 -8 -97 -122 -111 -122 -5 0 -12 -3 -16 -8 -4 -4 -2 -7 5 -7 7 0 9 -5 6
-10 -4 -6 -10 -8 -15 -5 -5 3 -11 1 -15 -5 -3 -5 -1 -10 5 -10 6 0 2 -10 -10
-22 -11 -12 -20 -27 -20 -32 0 -7 -3 -7 -8 0 -4 7 -17 -3 -35 -28 -16 -22 -23
-36 -16 -32 7 4 0 -9 -15 -29 -15 -20 -33 -35 -39 -34 -7 1 -11 -6 -9 -17 3
-13 -1 -17 -11 -13 -8 3 -14 0 -13 -6 0 -7 -2 -12 -5 -12 -14 0 -40 -29 -35
-40 2 -7 -9 -28 -25 -46 -17 -19 -27 -27 -23 -19 5 10 0 8 -15 -4 -12 -11 -20
-25 -17 -32 5 -14 -17 -37 -27 -29 -4 3 -5 2 -2 -1 6 -9 -15 -47 -23 -40 -9 9
-62 -46 -55 -57 3 -6 1 -7 -4 -4 -6 4 -17 -1 -24 -10 -10 -11 -10 -14 -2 -9 9
5 11 2 7 -8 -3 -9 -12 -12 -22 -9 -9 4 -14 3 -11 -1 4 -4 -8 -22 -26 -39 -18
-18 -32 -34 -32 -37 3 -9 -33 -55 -41 -52 -4 2 -9 -5 -10 -15 -2 -10 -13 -25
-24 -34 -10 -8 -21 -28 -22 -43 -2 -15 -13 -34 -25 -42 -12 -9 -19 -20 -16
-25 10 -15 -5 -49 -20 -49 -9 0 -12 -6 -8 -17 4 -10 2 -14 -4 -10 -7 5 -9 0
-6 -13 4 -14 1 -20 -8 -18 -9 2 -13 -5 -12 -20 2 -13 -1 -21 -6 -18 -4 3 -13
-5 -19 -19 -13 -28 -4 -95 12 -95 6 0 0 -10 -14 -21 -22 -18 -22 -19 -3 -10
27 14 54 51 46 64 -4 6 -1 7 7 2 10 -6 12 -4 7 8 -3 9 -1 19 5 23 7 5 8 2 4
-7 -4 -8 2 -3 13 11 11 14 21 31 21 38 0 16 140 185 147 178 6 -6 53 48 53 61
0 5 16 22 35 37 37 30 44 36 275 258 85 82 162 155 170 162 127 105 184 139
307 180 43 14 119 30 168 36 50 6 107 15 127 19 23 6 40 5 47 -2 6 -6 57 -9
130 -8 135 3 214 -6 208 -23 -2 -6 -31 -20 -65 -32 -62 -21 -151 -79 -104 -67
32 8 52 -14 52 -58 0 -54 -24 -98 -76 -139 -24 -19 -44 -37 -44 -40 0 -3 16
-5 36 -4 30 1 46 11 99 64 50 49 62 57 58 39 -2 -13 2 -32 9 -41 11 -14 21
-15 62 -7 66 12 119 -3 147 -43 l22 -31 -44 -35 c-105 -85 -181 -187 -194
-262 -3 -19 -11 -41 -18 -49 -9 -12 -9 -13 0 -8 18 11 28 -39 14 -70 -10 -23
-16 -25 -49 -20 l-37 6 32 -20 c30 -19 130 -42 146 -32 4 2 7 -37 7 -86 0 -56
-4 -91 -10 -91 -14 0 -85 36 -131 67 -39 26 -30 26 -191 -11 -36 -9 -76 -16
-87 -16 -27 0 -64 37 -57 56 4 10 -3 14 -25 14 -25 0 -30 -5 -36 -30 -5 -28
-8 -30 -38 -24 -38 7 -105 -18 -105 -39 0 -24 27 -39 58 -32 22 4 36 -1 67
-25 55 -44 79 -47 116 -16 17 15 33 25 35 23 2 -2 -1 -29 -7 -61 -9 -43 -9
-63 0 -83 10 -21 9 -28 -1 -34 -10 -7 -9 -9 5 -9 9 0 17 -5 17 -11 0 -5 5 -7
10 -4 6 3 15 3 20 0 6 -4 -3 -21 -22 -40 -34 -37 -48 -37 -48 1 0 33 -49 121
-83 150 -30 25 -71 31 -97 14 -13 -8 -13 -10 2 -10 21 0 78 -48 78 -66 0 -7
-18 -23 -40 -34 -72 -37 -234 -20 -288 30 -15 15 -22 32 -22 60 0 34 -5 42
-49 74 l-49 37 24 24 c20 20 24 34 22 62 -3 33 -12 45 -78 100 -41 35 -78 63
-82 63 -4 0 -14 -15 -22 -34 -24 -57 -87 -92 -182 -101 -55 -5 -60 -8 -140
-85 -73 -70 -89 -80 -117 -79 -17 1 -51 -7 -74 -19 -49 -26 -76 -28 -93 -7
-15 18 8 50 72 100 50 40 61 77 19 69 -14 -3 -46 -8 -71 -12 -55 -9 -68 -31
-81 -138 -5 -41 -14 -86 -20 -101 -6 -16 -7 -58 -3 -103 8 -94 -12 -181 -60
-260 -26 -43 -96 -177 -96 -184 0 0 29 -1 64 -1 57 1 70 5 122 39 33 21 124
105 204 185 203 205 311 271 447 275 53 1 65 -2 88 -24 30 -27 55 -77 55 -109
0 -17 -4 -19 -32 -10 -58 16 -143 10 -212 -15 -75 -27 -178 -106 -227 -173
l-32 -46 45 -41 c24 -23 61 -56 81 -74 63 -57 64 -66 4 -85 -29 -10 -81 -33
-117 -52 -180 -98 -269 -137 -294 -131 l-26 6 36 47 c40 52 45 100 9 95 -11
-2 -49 -7 -85 -13 -136 -21 -159 -22 -186 -5 -13 9 -22 21 -19 26 4 6 2 10 -4
10 -6 0 -31 -31 -56 -69 -25 -38 -75 -94 -114 -127 -38 -32 -72 -65 -75 -71
-4 -10 25 -13 127 -13 140 0 752 -15 998 -25 l146 -6 -5 71 c-3 52 0 82 12
115 18 47 35 56 56 30 23 -27 76 -13 64 18 -3 9 -13 17 -22 19 -10 2 11 11 46
20 48 12 62 13 62 3 0 -19 48 -62 78 -70 15 -3 53 -16 84 -28 53 -20 57 -25
63 -59 4 -21 11 -38 16 -38 6 0 8 -4 5 -9 -8 -12 53 -81 71 -81 7 0 13 9 13
20 0 15 -7 20 -25 20 -23 0 -25 4 -25 45 0 41 2 45 25 45 36 0 31 15 -12 34
-21 9 -62 26 -91 39 l-53 24 78 45 c54 32 107 52 173 68 123 30 174 54 220
100 37 38 70 96 70 124 0 18 15 21 25 6 3 -5 22 -10 41 -10 l34 0 0 75 0 75
-40 0 c-47 0 -53 19 -13 37 23 11 31 10 62 -9 53 -32 143 -115 167 -154 28
-46 24 -136 -8 -199 -18 -34 -159 -173 -228 -225 -90 -67 -222 -210 -259 -277
-15 -29 -15 -29 18 -43 26 -10 38 -8 95 14 35 14 69 26 75 26 5 0 19 21 30 46
27 60 156 186 296 289 60 44 134 104 166 133 l57 52 36 -37 c54 -56 115 -184
131 -278 7 -44 11 -83 8 -88 -3 -5 -33 -5 -68 -2 -69 8 -105 1 -105 -20 0 -7
14 -17 31 -20 21 -5 27 -10 19 -15 -7 -4 -10 -17 -8 -28 4 -14 -4 -30 -28 -53
-48 -47 -64 -87 -64 -163 l0 -66 30 0 c27 0 30 -2 20 -19 -14 -27 -13 -144 2
-159 7 -7 22 -12 35 -12 13 0 32 -9 43 -20 19 -19 25 -19 89 -9 90 15 141 6
141 -25 0 -12 6 -31 14 -41 8 -11 12 -24 9 -31 -2 -6 3 -14 11 -17 23 -9 20
-37 -4 -37 -13 0 -20 -7 -20 -20 0 -24 13 -26 34 -5 14 14 17 13 30 -7 8 -13
22 -40 32 -60 18 -38 34 -50 34 -25 0 8 4 7 10 -3 6 -8 10 -53 9 -100 0 -47 0
-98 1 -115 4 -50 1 -55 -25 -55 -16 0 -25 -6 -25 -15 0 -9 9 -15 23 -15 16 0
32 -12 50 -41 15 -22 27 -44 27 -49 0 -4 9 -19 21 -34 l21 -27 -23 -57 c-12
-31 -26 -62 -31 -69 -6 -7 1 -17 21 -29 17 -10 31 -21 31 -25 0 -4 14 -9 31
-13 47 -9 99 -45 99 -67 0 -14 7 -19 28 -19 24 0 32 -8 50 -44 14 -28 33 -48
53 -56 42 -18 58 -44 52 -88 -4 -33 -1 -39 26 -54 37 -20 42 -44 9 -33 -59 18
-71 18 -86 -1 -10 -13 -16 -15 -19 -6 -3 6 -9 12 -14 12 -6 0 -7 -4 -4 -10 10
-17 -28 -11 -61 9 -18 11 -40 38 -50 60 -9 22 -25 43 -33 46 -9 3 -42 23 -73
43 -47 30 -61 45 -73 81 -10 30 -12 49 -5 61 14 26 12 50 -2 50 -8 0 -14 15
-14 38 -1 20 -5 58 -9 84 -7 42 -11 48 -32 48 -14 0 -26 -7 -29 -18 -3 -9 -12
-30 -20 -47 -7 -16 -25 -61 -40 -100 -18 -48 -39 -81 -66 -107 -49 -45 -46
-63 11 -63 40 0 44 -3 63 -40 26 -52 47 -75 68 -75 16 0 63 -54 58 -66 -2 -4
21 -17 50 -30 28 -12 52 -27 52 -32 0 -6 14 -15 30 -21 22 -7 30 -16 30 -33 0
-51 10 -63 79 -91 37 -15 88 -45 114 -66 62 -52 136 -63 202 -31 38 18 45 26
45 51 0 35 12 36 65 6 29 -16 42 -32 50 -59 5 -20 20 -47 31 -60 12 -13 26
-33 32 -44 6 -12 36 -34 67 -49 31 -15 61 -37 67 -50 18 -39 76 -57 98 -30 15
18 88 20 123 4 l24 -11 -29 -195 -29 -195 -57 -70 c-38 -47 -71 -76 -98 -88
l-41 -18 -6 -83 c-4 -46 -7 -147 -7 -224 0 -265 -30 -406 -103 -490 -41 -48
-44 -55 -61 -158 -9 -60 -26 -143 -36 -185 -20 -79 -109 -271 -137 -294 -15
-12 -16 -7 -10 52 4 36 21 112 37 170 59 204 74 318 50 399 -8 28 -6 38 10 59
11 13 20 33 20 44 0 10 12 30 26 43 33 31 27 63 -16 88 -17 11 -29 22 -28 25
51 95 60 126 56 187 -4 58 -2 65 19 74 29 14 49 79 37 123 -8 28 -15 34 -49
39 -32 5 -42 2 -61 -16 -32 -33 -55 -152 -35 -184 7 -11 1 -19 -22 -31 -30
-16 -33 -23 -40 -86 -5 -38 -18 -105 -29 -149 -11 -44 -21 -89 -23 -100 -2
-11 -18 -63 -36 -115 -26 -76 -33 -115 -35 -195 l-4 -99 -67 -50 c-95 -70 -97
-72 -94 -121 2 -32 -6 -59 -29 -105 -25 -49 -31 -73 -28 -107 3 -40 -1 -49
-33 -83 -66 -69 -70 -106 -56 -525 6 -169 10 -202 23 -210 33 -20 74 -57 74
-66 0 -6 -13 -27 -30 -47 -71 -89 -99 -218 -82 -377 6 -54 13 -99 15 -102 10
-9 83 29 115 60 44 42 73 101 117 235 19 60 46 126 60 146 20 29 23 41 15 62
-24 62 0 143 49 169 l31 16 0 -33 c0 -18 6 -55 13 -83 12 -43 11 -59 -4 -116
-22 -84 -26 -135 -39 -474 -10 -280 -27 -437 -56 -537 -19 -62 -78 -180 -103
-202 -15 -14 -16 -25 -6 -103 l10 -88 -34 -20 c-45 -26 -70 -62 -78 -108 l-6
-38 84 3 84 3 16 70 c9 39 24 108 32 154 26 137 51 177 222 346 207 205 247
267 401 624 62 143 124 348 161 538 25 124 26 136 13 204 -17 90 -7 152 55
344 100 306 111 385 75 560 -25 122 -24 227 4 400 28 172 38 338 26 449 -10
94 -10 110 8 167 28 90 60 241 68 323 5 52 9 64 17 50 6 -11 7 -80 3 -186 -4
-99 -3 -174 2 -181 5 -7 6 -54 3 -107 -4 -52 -3 -98 2 -101 9 -6 19 -86 21
-174 1 -27 6 -59 11 -69 5 -12 4 -98 -3 -219 -12 -198 -12 -199 11 -256 20
-50 23 -71 21 -189 -2 -87 -8 -152 -19 -189 -14 -49 -15 -57 -2 -65 27 -15 40
-98 28 -182 -7 -52 -8 -99 -1 -147 8 -53 6 -102 -6 -202 -9 -79 -13 -159 -9
-198 5 -49 2 -79 -11 -118 -15 -48 -16 -64 -4 -166 7 -62 10 -120 7 -129 -3
-8 0 -31 8 -50 19 -46 19 -120 0 -139 -28 -29 -20 -145 22 -297 8 -30 17 -70
20 -88 6 -35 51 -83 166 -177 57 -47 58 -48 115 -42 31 3 75 2 97 -3 41 -9
158 10 200 33 11 6 40 12 65 12 l44 0 9 45 c5 25 17 54 28 66 10 11 19 29 19
40 0 11 13 33 29 48 27 26 33 41 47 137 9 59 -13 139 -56 204 -22 33 -40 70
-40 81 0 12 -7 27 -15 34 -8 7 -15 23 -15 37 0 13 -6 34 -12 46 -8 13 -13 63
-14 122 -4 333 -15 588 -25 607 -6 11 -13 84 -16 162 -3 77 -8 147 -12 154 -4
7 -1 54 6 105 14 98 10 154 -14 201 -10 19 -13 42 -8 72 3 23 6 109 6 190 0
106 4 156 14 181 12 29 13 52 5 120 -6 56 -6 92 0 104 6 10 10 37 9 61 -2 116
20 366 36 408 18 47 25 106 28 252 1 63 6 89 16 93 9 3 11 14 7 31 -5 17 2 44
19 81 14 30 25 62 25 69 0 9 11 14 28 14 46 0 118 88 83 102 -5 2 -4 14 1 28
l10 25 44 -50 c25 -27 54 -66 65 -85 22 -37 83 -90 106 -90 19 0 16 24 -8 77
-13 28 -19 57 -15 74 4 23 1 28 -22 34 -49 12 -90 45 -111 89 -12 23 -21 49
-21 58 0 21 43 38 95 38 31 0 45 4 45 13 0 7 14 26 30 42 l30 29 0 -36 c0 -22
-6 -38 -15 -42 -8 -3 -12 -12 -9 -21 8 -20 24 -19 25 3 1 18 16 -31 18 -60 1
-14 -5 -16 -30 -11 -28 5 -30 4 -27 -18 2 -17 14 -28 46 -39 40 -15 48 -24 91
-106 26 -49 67 -123 90 -164 24 -41 45 -85 47 -96 2 -12 11 -38 19 -57 8 -20
15 -44 15 -54 0 -10 7 -31 15 -46 18 -34 39 -146 56 -287 9 -82 17 -111 35
-135 51 -67 57 -96 67 -345 5 -129 8 -276 7 -326 -2 -103 27 -235 80 -370 50
-124 135 -251 163 -241 6 2 16 28 23 58 7 30 31 98 53 151 51 126 65 195 57
282 -12 126 -66 261 -205 511 -61 109 -61 110 -61 192 0 164 -33 316 -138 643
-95 293 -118 398 -129 586 -4 79 -3 113 6 118 15 10 14 36 -2 36 -19 0 -65 51
-69 76 -2 15 10 34 39 62 54 53 92 128 101 200 6 49 11 59 39 77 18 11 39 35
48 53 20 40 36 41 59 1 13 -23 24 -30 44 -29 68 5 102 0 102 -15 0 -8 6 -12
14 -9 15 6 46 -99 46 -158 1 -31 19 -68 34 -68 3 0 6 11 6 25 0 14 4 25 9 25
5 0 12 21 16 48 8 44 8 45 14 17 4 -16 6 -104 6 -195 -1 -134 2 -172 15 -205
13 -30 16 -56 11 -106 l-6 -66 30 12 c33 14 75 68 75 96 0 11 3 19 8 19 4 0
16 16 27 35 12 23 24 34 33 30 7 -3 19 -5 26 -5 7 0 22 -21 34 -47 23 -51 51
-297 58 -518 2 -60 6 -125 9 -142 6 -35 24 -45 26 -15 4 71 11 107 20 113 9 5
9 27 -1 88 -8 54 -9 85 -3 94 6 6 10 19 11 27 1 48 13 220 17 250 3 19 0 59
-6 89 -9 46 -9 56 4 66 12 8 17 41 22 134 7 130 0 177 -37 249 -11 22 -14 38
-8 40 5 2 10 27 10 55 0 39 -8 67 -36 120 -27 52 -34 75 -29 98 7 33 8 33 36
18 29 -15 79 -14 90 2 5 8 9 29 9 46 0 27 7 37 38 57 20 13 43 31 51 40 18 22
6 82 -21 104 -78 64 -72 49 -60 143 6 46 15 85 20 87 5 1 47 24 93 51 46 27
86 45 89 41 3 -3 35 -20 72 -37 99 -47 140 -93 162 -190 23 -95 98 -245 195
-385 92 -133 108 -154 115 -147 3 3 -10 93 -30 200 -27 149 -34 212 -31 274 6
127 49 189 148 216 63 17 106 6 228 -58 131 -68 200 -93 262 -93 42 0 54 -5
95 -41 27 -23 66 -64 88 -93 23 -28 49 -60 59 -71 10 -11 39 -51 65 -89 l47
-68 3 196 2 197 -40 48 c-22 26 -40 53 -40 59 0 7 -9 37 -19 67 -20 56 -61
119 -136 210 -30 36 -44 62 -48 93 -3 24 -16 65 -29 92 -15 30 -19 46 -11 43
7 -3 34 -2 59 2 42 6 46 9 41 31 -4 22 2 26 82 51 47 15 111 44 141 64 30 20
69 44 85 53 17 9 45 26 64 37 28 17 39 18 64 10 55 -20 67 -15 67 27 0 34 3
39 43 56 46 20 120 40 179 49 31 5 40 2 49 -15 6 -11 8 -33 5 -49 -5 -27 -4
-29 28 -29 31 0 35 -4 41 -32 6 -27 91 -198 99 -198 1 0 0 29 -2 63 -4 68 12
117 47 139 17 10 17 15 -6 96 l-24 84 45 44 c26 24 46 52 47 61 0 14 2 15 6 3
13 -33 71 -42 94 -14 18 22 64 44 91 44 43 0 94 -48 176 -162 91 -128 97 -135
230 -273 118 -122 205 -222 221 -252 10 -19 20 -23 64 -23 l52 0 -51 34 c-47
32 -69 63 -80 116 -2 8 -31 42 -65 75 -51 49 -285 304 -348 379 -15 17 -13 17
25 -2 45 -23 185 -65 192 -58 4 4 -11 48 -58 166 l-21 55 61 -60 c71 -69 103
-120 122 -188 7 -27 21 -53 31 -59 10 -5 37 -26 60 -46 l42 -37 -35 44 c-31
41 -35 52 -38 120 -2 42 -8 80 -13 86 -13 14 -11 252 2 261 6 4 25 36 41 73
46 104 51 112 80 127 24 13 32 13 56 0 37 -19 123 -36 181 -36 61 0 158 -18
192 -36 46 -23 84 -70 138 -166 28 -52 68 -113 89 -136 l37 -42 115 -2 115 -2
75 -77 c62 -63 139 -119 165 -119 19 0 -2 32 -46 70 -29 25 -90 82 -138 127
-81 78 -91 85 -177 113 -145 49 -225 117 -284 245 -15 33 -54 89 -86 124 -37
40 -65 81 -74 110 l-15 46 -90 18 c-114 23 -284 27 -348 8 -76 -22 -128 -78
-200 -216 -83 -158 -98 -169 -222 -160 -51 3 -105 14 -125 23 -33 16 -35 20
-42 80 -8 77 -67 192 -118 233 -65 52 -205 73 -322 48 -63 -14 -108 -55 -126
-118 -21 -70 -42 -81 -146 -81 -99 0 -231 -27 -295 -59 -45 -23 -98 -81 -107
-116 -3 -14 -11 -25 -18 -25 -6 0 0 -10 14 -21 l25 -21 -33 19 c-19 10 -60 54
-93 98 -67 91 -99 115 -157 115 -84 0 -137 -85 -113 -180 11 -45 10 -57 -10
-125 -13 -43 -25 -71 -30 -64 -9 15 -38 -29 -49 -75 -5 -25 -3 -41 8 -58 12
-18 9 -17 -16 6 -18 17 -32 39 -33 50 0 22 -23 68 -76 157 -18 30 -54 116 -79
192 -52 156 -89 219 -155 263 l-46 31 57 11 c174 36 336 194 440 428 l36 82
18 -52 c43 -124 127 -239 216 -296 66 -42 190 -82 265 -83 74 -2 120 22 152
79 35 63 71 215 94 389 41 323 110 710 164 920 36 140 127 411 143 427 15 15
20 -39 32 -327 17 -384 33 -506 91 -676 67 -197 147 -284 357 -386 159 -77
220 -88 314 -58 91 31 222 184 302 353 l30 62 35 -34 c35 -34 128 -83 138 -73
3 3 0 29 -6 57 -13 58 -15 170 -3 170 51 -1 352 -91 352 -105 0 -12 -54 -115
-138 -263 -41 -72 -82 -159 -82 -171 1 -3 13 17 27 44 14 28 60 113 103 190
110 199 130 240 130 274 0 35 -34 66 -90 81 -20 5 -68 30 -105 55 -88 58 -152
79 -213 71 -26 -3 -56 -7 -68 -7 -18 -1 -23 -11 -33 -66 -30 -163 -96 -319
-186 -439 l-53 -70 -110 -18 c-161 -25 -222 -12 -369 83 -98 62 -126 73 -183
69 -45 -3 -45 -3 -78 52 -43 72 -99 248 -117 369 -8 53 -22 236 -30 406 -8
171 -20 327 -26 349 -9 34 -12 37 -25 24 -18 -18 -93 -233 -139 -398 -57 -206
-132 -613 -175 -950 -21 -169 -60 -336 -87 -379 l-15 -23 -26 25 c-31 29 -70
42 -167 56 -38 6 -110 24 -160 41 -74 25 -99 39 -140 79 -27 27 -60 54 -71 60
-12 6 -32 35 -45 65 l-22 55 -52 -107 c-71 -146 -145 -248 -187 -260 -18 -5
-69 -24 -113 -42 -115 -47 -170 -60 -252 -60 -95 0 -158 24 -287 110 -151 100
-204 122 -245 101 -17 -10 -24 -6 -44 21 -108 144 -138 402 -70 598 65 185
124 290 222 394 95 99 212 140 333 116 131 -25 225 -98 254 -197 16 -54 16
-66 1 -178 -23 -163 -40 -225 -89 -325 -56 -111 -116 -173 -192 -195 -31 -9
-56 -17 -56 -18 0 -19 47 -161 65 -196 34 -67 47 -76 93 -63 57 17 188 108
275 191 88 84 151 173 203 288 77 167 76 163 85 453 7 263 19 374 42 411 24
38 76 54 172 53 105 -1 145 -15 209 -74 70 -65 104 -158 145 -398 18 -107 18
-107 33 -77 9 17 23 71 33 120 36 198 91 378 196 646 110 279 199 398 327 435
90 26 165 1 243 -83 118 -126 175 -252 204 -445 9 -56 26 -150 40 -208 13 -58
29 -150 35 -205 14 -123 75 -521 91 -592 7 -29 17 -53 22 -53 66 0 228 275
291 494 32 110 32 121 -1 160 -77 92 -91 194 -48 361 68 262 211 497 402 659
118 100 161 121 248 121 39 0 81 -3 95 -7 14 -4 9 -1 -10 8 -53 25 -153 14
-221 -22 -71 -38 -282 -248 -341 -339 -123 -190 -208 -431 -208 -587 0 -81 24
-146 75 -206 l28 -33 -27 -101 c-43 -165 -166 -400 -244 -469 l-37 -32 -12 44
c-15 53 -67 384 -88 564 -9 72 -25 171 -36 220 -11 50 -31 151 -43 225 -27
160 -59 246 -132 357 -69 103 -131 159 -201 179 -146 42 -278 -48 -388 -265
-96 -191 -239 -628 -276 -846 -17 -104 -25 -108 -38 -24 -23 144 -64 290 -95
342 -62 103 -169 154 -303 144 -87 -7 -131 -29 -155 -77 -23 -48 -39 -234 -40
-448 0 -204 -6 -237 -78 -388 -88 -189 -190 -308 -350 -414 -118 -77 -145 -88
-169 -65 -39 34 -103 208 -87 233 3 6 21 13 40 16 149 28 285 317 289 616 1
80 -2 101 -20 136 -30 57 -104 119 -172 145 -78 31 -203 31 -283 0 -138 -53
-273 -240 -364 -506 -35 -102 -44 -270 -20 -384 18 -85 62 -186 107 -242 17
-21 26 -39 21 -39 -27 0 -142 42 -166 61 -31 25 -32 33 -5 93 11 26 19 51 17
55 -6 16 -114 103 -152 123 -28 15 -51 19 -80 15 -52 -7 -67 2 -116 68 -23 31
-51 57 -65 61 -33 8 -39 38 -22 96 13 42 13 48 -2 62 -44 40 -149 48 -218 16
-50 -22 -55 -45 -18 -80 14 -13 25 -28 25 -34 0 -6 -27 -44 -61 -85 -55 -67
-60 -78 -54 -108 7 -38 -13 -79 -62 -125 l-28 -27 -91 32 -92 32 161 168 c133
140 159 172 150 185 -14 24 -76 26 -120 5 -21 -9 -59 -39 -85 -64 -26 -26 -58
-51 -70 -55 -48 -14 -117 -54 -198 -114 -80 -60 -84 -62 -119 -52 -20 6 -85
23 -146 37 -172 40 -189 45 -206 61 -9 8 -24 12 -33 8 -14 -5 -16 3 -16 60 0
74 -7 79 -54 39 l-31 -26 -3 37 c-3 31 -6 35 -18 25 -8 -6 -14 -21 -14 -32 0
-15 -3 -18 -10 -11 -12 12 6 64 22 64 4 0 8 7 8 15 0 17 31 85 39 85 27 -3 77
-39 79 -58 4 -25 6 -26 31 -10 15 9 28 9 59 0 56 -17 79 -15 96 9 18 26 13 41
-17 54 -31 14 -30 56 3 72 14 7 60 13 102 13 86 0 98 9 113 78 5 23 12 32 26
32 23 0 24 10 4 36 -25 33 -19 49 11 29 14 -9 28 -14 32 -11 3 3 -9 52 -27
109 -37 119 -40 187 -11 235 26 42 25 44 -7 40 -16 -2 -32 -12 -39 -25 l-11
-23 -23 25 -23 24 78 98 c101 128 490 514 630 627 142 114 353 255 466 311
141 71 242 98 379 99 131 1 199 -16 262 -66 24 -19 76 -90 140 -194 105 -170
151 -219 199 -212 36 5 49 43 49 144 0 322 -217 807 -469 1047 -50 47 -102 92
-114 98 -12 6 -6 -2 13 -17 170 -133 352 -398 461 -671 71 -179 115 -434 92
-538 -12 -54 -46 -59 -96 -16 -42 38 -192 282 -202 331 -18 86 -68 144 -163
187 -227 105 -567 -14 -972 -337 -123 -98 -460 -431 -547 -540 -76 -95 -133
-180 -168 -250 -15 -30 -69 -113 -120 -185 -170 -237 -397 -639 -411 -726 -9
-54 -23 -49 446 -164 431 -105 553 -146 775 -258 281 -141 540 -359 658 -555
86 -142 177 -377 219 -564 20 -89 23 -129 22 -293 -1 -206 -11 -271 -61 -369
-40 -79 -64 -108 -80 -94 -24 19 -88 1 -229 -65 -357 -169 -606 -176 -957 -30
-83 34 -126 46 -167 47 -52 2 -56 4 -87 44 -40 52 -52 97 -87 317 -29 180 -31
252 -7 247 439 -95 730 -72 1041 83 87 43 220 126 220 138 0 4 -32 39 -70 77
-40 38 -66 71 -60 75 5 3 10 18 10 32 0 40 -64 93 -186 156 -216 110 -483 184
-905 252 -320 51 -419 81 -634 191 -109 56 -154 74 -178 72 -26 -2 -37 3 -61
32 -39 47 -92 162 -110 235 -29 123 -45 632 -26 795 49 406 304 939 665 1390
113 142 321 359 441 460 76 66 80 71 83 114 1 35 -2 47 -19 59 -20 14 -20 14
7 33 15 10 45 18 66 19 31 0 47 9 87 45 47 44 49 47 40 80 -5 19 -12 52 -15
72 -7 45 -21 53 -100 62 -33 4 -72 9 -86 12 -51 8 -119 -12 -153 -45 -39 -38
-66 -39 -148 -6 -66 27 -117 32 -136 13 -8 -8 -15 -8 -26 1 -22 19 -56 93 -56
124 0 38 -25 34 -39 -5 -13 -38 -39 -68 -58 -68 -9 0 -13 15 -13 51 0 48 -1
50 -22 43 -38 -12 -93 -50 -121 -84 -50 -59 -44 -110 12 -110 15 0 36 -6 46
-14 18 -13 19 -19 7 -112 -17 -135 -16 -147 13 -174 21 -20 25 -32 25 -86 0
-66 -27 -169 -58 -219 -13 -20 -16 -37 -11 -50 4 -11 8 -35 8 -54 l1 -34 43
35 c47 38 87 107 87 150 0 21 5 28 20 28 11 0 52 16 90 36 39 19 78 34 87 32
10 -2 24 -17 32 -33 8 -17 20 -33 27 -38 10 -6 10 -14 -2 -43 -8 -19 -14 -50
-12 -68 2 -29 -8 -45 -63 -107 -36 -41 -83 -96 -105 -124 -21 -27 -42 -51 -46
-53 -4 -2 -35 -21 -69 -43 -34 -22 -62 -39 -64 -37 -1 2 -8 32 -14 67 -15 74
-27 111 -39 111 -4 0 -37 -35 -72 -77 -75 -91 -80 -95 -100 -87 -50 21 -59 17
-80 -30 -14 -33 -25 -46 -40 -46 -11 0 -48 -8 -82 -17 -59 -17 -62 -16 -72 1
-34 57 -40 60 -89 47 -66 -19 -79 -11 -71 41 17 110 68 154 168 144 34 -3 74
-7 90 -8 26 -3 34 5 71 58 72 105 98 193 175 595 11 59 20 130 20 158 0 49 -1
51 -27 51 -57 0 -127 -114 -148 -245 -4 -22 -19 -54 -35 -72 -43 -49 -73 -106
-125 -240 -45 -117 -49 -123 -76 -123 -19 0 -32 -7 -40 -22 -6 -13 -36 -61
-66 -107 -30 -45 -64 -103 -75 -127 -15 -36 -23 -44 -38 -39 -10 3 -35 -1 -56
-10 -20 -8 -39 -13 -41 -11 -3 2 23 45 56 95 34 50 61 94 61 99 0 5 -14 12
-31 16 -64 12 -104 6 -150 -23 -44 -27 -46 -28 -57 -10 -17 26 -45 25 -37 -1
3 -11 3 -20 -2 -20 -19 1 -39 22 -68 71 -17 29 -35 54 -41 56 -5 2 -18 -19
-28 -47 -10 -27 -22 -50 -27 -50 -5 0 -17 13 -28 30 -20 34 -34 30 -20 -7 13
-34 4 -43 -30 -33 -25 7 -34 3 -70 -30 -48 -45 -149 -105 -159 -95 -4 4 16 28
44 54 66 59 88 94 80 125 -5 19 -1 26 14 31 13 4 20 15 20 30 0 15 10 31 26
41 18 13 24 24 21 40 -4 21 1 23 55 29 47 6 63 4 77 -9 22 -20 31 -20 31 -1 0
17 25 32 90 51 57 17 73 33 68 71 -3 25 -7 28 -39 28 -70 0 -92 56 -43 109 27
28 113 87 147 99 22 8 22 49 2 108 -14 40 -14 45 1 56 19 14 10 33 -15 33 -22
0 -45 25 -36 40 3 5 19 10 36 10 16 0 29 3 29 8 -1 4 -37 36 -82 72 -131 106
-185 187 -176 266 5 40 -11 45 -42 14 -16 -16 -18 -24 -10 -46 6 -15 9 -28 7
-30 -8 -8 -99 25 -151 54 -57 33 -66 32 -66 -5 0 -23 -24 -42 -38 -29 -3 4 7
45 23 92 23 66 33 83 45 78 198 -83 496 -60 785 61 215 90 406 210 658 413 37
30 70 52 74 49 3 -3 0 -55 -6 -114 -12 -116 -7 -150 37 -259 15 -38 18 -54 9
-63 -8 -8 -8 -11 1 -11 7 0 12 5 12 12 0 7 13 -8 28 -33 34 -52 106 -120 153
-144 43 -23 99 -24 131 -3 16 11 56 75 106 170 305 586 776 1317 959 1488 l58
55 3 -50 c2 -27 -4 -121 -13 -208 -9 -88 -14 -161 -12 -163 6 -6 27 184 34
314 6 103 5 112 -12 112 -25 0 -150 -129 -232 -240 -205 -278 -522 -793 -791
-1288 -26 -48 -41 -68 -45 -58 -9 23 -72 36 -172 36 -59 0 -100 -5 -118 -15
-28 -14 -28 -14 -58 33 -16 26 -41 83 -55 127 -26 83 -26 86 1 303 2 17 2 32
-1 32 -2 0 -22 -13 -44 -29 -33 -24 -47 -28 -79 -24 -49 7 -109 -20 -241 -106
-201 -131 -473 -252 -654 -293 -116 -26 -302 -28 -397 -5 -82 20 -316 121
-348 150 -13 12 -39 54 -57 94 -19 39 -41 77 -49 83 -8 7 -15 19 -15 26 0 15
-16 19 -24 6 -3 -5 -21 -9 -40 -10 -50 -2 -84 -22 -201 -117 -258 -209 -369
-260 -608 -283 -73 -7 -105 -14 -126 -30 l-28 -20 -21 36 c-26 47 -49 138 -57
227 -15 176 -15 176 -36 165 -13 -8 -31 -7 -58 1 -68 20 -125 -6 -311 -140
-276 -201 -432 -286 -583 -317 -74 -16 -106 -14 -220 13 -39 9 -91 13 -124 11
l-55 -5 -30 46 c-33 53 -70 163 -89 271 -9 47 -14 149 -14 270 0 163 4 213 23
307 63 311 201 571 417 788 152 151 320 256 480 300 214 57 438 9 574 -125 68
-67 102 -122 130 -214 70 -226 -41 -461 -180 -379 -32 19 -46 46 -28 52 28 9
50 43 47 73 -3 27 -13 37 -84 78 -157 89 -254 102 -394 50 -103 -37 -234 -124
-299 -198 -53 -59 -111 -161 -111 -194 0 -10 -20 -53 -45 -96 -115 -200 -167
-419 -114 -486 17 -22 28 -26 73 -26 68 0 155 42 301 145 150 107 376 262 520
360 176 118 296 151 385 105 46 -23 83 -76 100 -137 8 -34 8 -60 -4 -120 -53
-279 -37 -487 40 -522 39 -18 68 -13 130 20 101 52 201 137 429 360 l220 217
18 88 c77 377 308 740 587 923 132 87 286 141 402 141 61 0 187 -29 240 -56
117 -59 152 -136 146 -316 -3 -83 -9 -124 -22 -153 l-19 -40 -9 38 c-21 81
-134 149 -256 156 -68 3 -79 1 -147 -33 -51 -25 -89 -54 -128 -95 -56 -61
-117 -168 -117 -206 0 -11 -23 -57 -51 -100 -140 -221 -232 -487 -228 -659 1
-39 4 -30 10 38 27 281 186 607 395 813 109 106 225 156 319 139 42 -8 98 -54
115 -96 10 -23 19 -30 40 -30 44 0 59 10 80 51 47 91 46 284 -1 384 -41 87
-137 144 -282 166 -442 69 -950 -427 -1083 -1058 -17 -81 -18 -82 -93 -157
l-77 -76 -83 17 -84 18 -18 -25 c-10 -14 -61 -83 -114 -155 -52 -71 -112 -163
-133 -202 -28 -55 -45 -77 -71 -89 l-33 -16 -52 50 c-28 27 -58 52 -67 55 -32
11 -32 155 0 252 5 17 12 82 15 145 5 103 8 121 35 170 55 102 86 119 142 79
16 -11 36 -19 43 -16 10 4 16 -6 21 -31 9 -50 32 -102 44 -102 5 0 46 44 91
97 97 116 164 241 156 290 -4 28 -1 35 24 50 16 9 34 27 41 40 7 13 23 26 36
29 33 9 28 23 -13 40 -20 8 -38 24 -41 35 -8 27 -24 24 -69 -16 -21 -19 -41
-35 -44 -35 -3 0 -7 11 -8 25 -5 60 -61 123 -97 109 -35 -14 36 97 71 112 22
9 33 22 37 44 4 16 16 52 28 79 18 42 27 51 67 66 64 24 72 32 72 70 0 20 9
42 25 59 14 15 25 37 25 49 0 15 11 28 34 41 19 10 52 35 73 55 21 21 129 111
240 200 112 90 216 175 232 190 17 16 41 36 56 45 37 24 419 351 495 424 36
34 69 62 73 62 11 0 363 313 395 352 13 15 74 70 135 121 62 52 202 182 312
289 110 107 225 216 255 243 114 98 506 505 487 505 -10 0 -16 4 -13 9 4 5
-12 12 -34 16 -22 4 -38 10 -35 15 3 4 -5 14 -18 23 -24 16 -49 91 -41 124 5
16 30 30 109 58 l102 36 -4 67 c-4 52 2 96 27 202 30 124 32 145 27 250 -6
114 -24 217 -71 406 -26 105 -35 159 -36 211 0 29 -4 33 -41 43 -53 15 -79 42
-79 84 0 30 4 36 35 46 40 13 48 40 12 40 -23 0 -48 -28 -104 -117 -47 -74
-111 -84 -189 -29 -27 19 -65 44 -85 55 l-35 20 -27 -42 c-15 -23 -32 -60 -38
-82 -17 -61 -5 -225 26 -345 32 -127 40 -190 40 -295 -1 -77 -17 -142 -39
-157 -6 -4 -13 -41 -16 -83 -4 -62 -2 -79 11 -91 14 -12 19 -9 48 26 36 45 61
52 61 16 0 -35 -35 -73 -72 -79 -59 -8 -152 -38 -160 -50 -4 -7 -10 -3 -16 13
-48 123 -67 162 -86 172 -11 6 -18 7 -14 3 17 -17 -66 -59 -125 -63 -72 -5
-120 12 -216 78 -77 53 -87 57 -93 38 -3 -7 -20 -11 -45 -10 -27 2 -46 -3 -57
-13 -9 -9 -16 -12 -16 -7 0 6 -13 13 -30 17 -16 4 -30 12 -30 18 0 43 -23 86
-50 97 -34 14 -95 77 -105 109 -3 11 -1 29 4 40 9 16 4 24 -34 55 l-44 36 31
50 c26 41 30 59 29 107 -2 101 -10 104 -47 17 -19 -43 -48 -91 -64 -106 l-30
-27 6 25 c4 17 -5 46 -34 102 -22 42 -70 170 -106 283 -52 161 -78 224 -116
285 -60 97 -122 159 -175 173 -56 16 -201 22 -260 11z m-3290 -1959 c56 -25
161 -124 207 -196 44 -67 89 -204 113 -340 22 -127 30 -368 16 -492 -31 -267
-139 -552 -300 -789 -56 -83 -74 -102 -119 -125 -56 -29 -302 -212 -342 -254
-26 -28 -30 -73 -6 -90 13 -10 5 -20 -58 -71 -40 -32 -82 -64 -91 -70 -24 -13
-14 -21 90 -75 297 -152 537 -395 675 -684 52 -108 116 -297 135 -396 43 -230
1 -467 -118 -661 -33 -54 -49 -70 -77 -79 -50 -17 -121 -53 -235 -122 -353
-213 -748 -337 -1076 -337 -195 0 -310 27 -529 122 -73 32 -131 51 -158 52
-39 1 -46 5 -68 41 -32 51 -108 211 -130 273 -19 53 -13 99 13 109 9 3 64 -10
122 -31 301 -105 545 -88 1021 70 407 136 690 365 790 642 59 162 51 250 -30
348 -21 26 -41 58 -45 72 -22 90 -169 219 -323 283 -144 60 -400 120 -513 120
-107 1 -180 -40 -199 -111 -21 -77 -71 -398 -105 -675 -50 -396 -73 -495 -128
-542 -22 -18 -22 -18 -4 3 32 38 2 69 -101 106 -38 13 -89 21 -150 23 -110 4
-117 8 -158 98 -29 62 -29 63 -29 262 1 223 7 274 86 688 63 332 115 554 250
1077 130 504 146 557 211 720 28 69 66 168 85 220 49 135 81 197 105 203 70
19 129 -94 144 -273 8 -95 -12 -493 -31 -625 -8 -55 -14 -109 -14 -120 0 -31
48 68 84 175 64 187 249 616 400 923 98 199 169 306 280 419 119 121 212 154
310 109z m1919 -1301 c84 -152 85 -155 66 -172 -11 -9 -25 -18 -31 -20 -8 -3
-6 -15 6 -38 l18 -35 -21 19 c-12 10 -24 27 -27 36 -4 13 -16 18 -39 18 -60 0
-120 43 -114 81 2 12 -14 43 -40 76 -43 55 -44 57 -37 114 4 31 10 62 13 67
11 17 95 32 109 20 6 -6 50 -81 97 -166z m324 -1342 c-2 -6 -21 -17 -43 -25
-53 -18 -65 -31 -65 -67 l0 -31 88 0 c71 -1 98 -5 146 -27 59 -25 59 -26 29
-32 -36 -8 -136 7 -221 34 -35 11 -78 21 -95 21 -32 2 -32 2 -4 6 22 4 28 9
24 23 -5 21 40 65 94 92 41 20 52 22 47 6z m-663 -487 c22 -11 47 -22 57 -25
31 -9 139 -270 122 -297 -4 -7 -131 -97 -262 -186 l-63 -42 -72 26 c-105 38
-399 161 -411 173 -15 15 188 209 269 256 88 51 188 91 257 103 29 5 55 9 58
10 3 1 23 -8 45 -18z m1374 -1052 c38 -13 51 -35 51 -85 0 -33 -8 -45 -65
-102 -36 -35 -72 -73 -81 -85 l-15 -22 -18 22 c-10 12 -21 43 -25 69 -3 27
-15 57 -27 70 l-20 21 73 62 c40 33 78 61 84 61 6 0 25 -5 43 -11z m-977 -784
c18 -78 28 -146 25 -170 -5 -48 -44 -133 -90 -198 l-34 -48 -6 152 c-4 84 -7
178 -7 210 l0 58 35 7 35 6 1 77 c1 42 3 67 6 56 2 -11 18 -78 35 -150z m1301
-1166 c24 -12 92 -72 158 -140 92 -94 117 -126 122 -154 3 -19 3 -35 -1 -35
-23 1 -57 53 -48 75 3 10 -11 19 -47 29 -37 11 -79 37 -148 93 -52 43 -105 85
-116 93 -17 12 -19 20 -12 38 11 28 37 28 92 1z m-2097 -2200 c43 -12 128 -25
188 -28 108 -7 108 -7 141 -42 18 -20 34 -42 37 -49 3 -10 9 -10 24 -2 29 15
139 26 158 15 15 -8 12 -14 -23 -46 l-40 -36 -78 5 c-43 3 -91 9 -107 15 -43
14 -45 13 -66 -36 -34 -79 -86 -79 -127 -2 -14 28 -15 28 -94 25 -43 -2 -79
-6 -79 -9 0 -12 -49 -27 -71 -22 -14 4 -20 2 -16 -4 8 -13 -53 -26 -77 -17 -9
3 -16 1 -16 -5 0 -6 7 -11 15 -11 8 0 15 -3 15 -7 0 -17 -17 -30 -63 -47 -27
-10 -51 -24 -54 -32 -3 -8 -9 -11 -14 -8 -5 3 -9 0 -9 -6 0 -7 -6 -10 -14 -7
-9 3 -17 -3 -21 -16 -6 -19 -8 -20 -12 -4 -10 36 18 88 70 129 29 22 61 53 72
69 15 21 28 29 53 29 17 0 32 3 32 8 0 4 -23 21 -51 37 -72 43 -78 53 -49 77
67 53 148 61 276 27z m7915 -339 c23 0 30 -9 56 -67 30 -66 46 -127 57 -208 4
-29 3 -34 -3 -19 -5 11 -23 26 -39 33 -25 10 -35 10 -59 -3 -45 -23 -56 -41
-51 -87 l4 -41 -57 4 c-65 5 -118 38 -138 86 -11 26 -9 36 18 90 25 50 37 62
66 72 20 7 44 10 54 7 16 -4 17 0 9 36 -5 22 -11 44 -15 49 -3 6 3 25 13 43
16 31 19 32 38 19 11 -8 32 -14 47 -14z m-348 -334 c20 -54 35 -102 32 -105
-2 -4 -47 -25 -100 -46 l-95 -39 -41 40 c-76 72 -99 112 -99 167 0 41 2 47 14
38 16 -14 48 -2 114 42 23 15 57 34 74 42 31 12 33 12 49 -14 9 -14 32 -71 52
-125z m-667 -209 c-20 -15 -19 -84 1 -80 7 2 10 -4 7 -12 -4 -8 -9 -15 -13
-15 -3 0 -12 -4 -19 -8 -10 -7 -9 -16 3 -44 l15 -36 -56 -51 c-31 -28 -59 -49
-64 -46 -9 6 -53 146 -73 232 -8 40 -10 59 -3 54 13 -10 86 -22 86 -14 0 3 -8
12 -17 19 -15 11 -6 13 66 14 72 0 82 -2 67 -13z m337 7 c78 -13 37 -35 -111
-60 -53 -9 -116 -22 -140 -30 -52 -17 -52 -17 -52 0 0 12 101 56 130 56 7 0
10 8 7 20 -5 19 0 20 61 20 37 0 84 -3 105 -6z m-3574 -1449 c57 -14 138 -27
179 -29 l74 -4 28 -48 c15 -27 71 -96 123 -153 94 -103 150 -183 161 -231 6
-25 6 -25 -6 -2 -6 13 -18 21 -27 18 -9 -3 -41 -8 -71 -11 -30 -4 -74 -15 -96
-25 -23 -10 -53 -15 -68 -13 -14 3 -32 1 -39 -4 -37 -30 -116 -18 -152 21 -5
6 -9 9 -8 7 3 -4 -57 -43 -67 -44 -3 0 -37 -24 -77 -54 -39 -29 -74 -49 -77
-44 -4 5 27 33 66 61 40 29 82 63 94 76 12 13 23 21 26 18 3 -2 8 2 11 10 4
10 1 13 -7 10 -17 -7 -95 70 -141 138 -45 68 -86 183 -93 261 l-5 59 -41 -6
c-28 -3 -35 -2 -21 4 37 16 129 10 234 -15z"/>
<path d="M2892 15863 c-146 -148 -249 -312 -402 -645 -171 -373 -456 -1098
-432 -1098 15 0 216 136 297 200 114 90 270 251 342 354 78 110 171 291 216
422 44 127 101 352 117 463 12 81 9 290 -6 354 -11 49 -46 36 -132 -50z m125
10 c17 -119 8 -309 -22 -443 -33 -153 -109 -389 -163 -504 -103 -218 -271
-425 -487 -597 -77 -61 -267 -190 -272 -185 -6 6 102 293 215 571 104 256 237
556 323 727 95 189 330 486 386 488 7 0 15 -24 20 -57z"/>
<path d="M7822 18045 c-21 -22 -21 -24 -6 -61 48 -114 60 -188 79 -462 14
-212 34 -361 55 -416 6 -17 4 -30 -7 -45 -13 -20 -8 -19 41 9 30 17 60 29 65
25 10 -6 9 36 -4 300 -7 133 -29 284 -56 383 -18 68 -18 77 -4 118 15 45 12
119 -6 130 -5 3 -6 11 -2 17 3 7 -3 4 -14 -5 -27 -25 -56 -22 -90 6 l-29 24
-22 -23z"/>
<path d="M8977 17990 c-24 -27 -44 -40 -61 -40 -30 0 -32 -10 -11 -50 19 -37
57 -48 89 -26 30 19 83 94 92 129 6 26 4 27 -33 27 -34 0 -45 -6 -76 -40z"/>
<path d="M9730 17377 c0 -19 -11 -61 -25 -94 -13 -34 -27 -79 -30 -100 l-6
-38 93 -47 c51 -26 103 -56 115 -67 25 -23 40 -21 151 28 40 18 76 30 81 27 5
-3 11 8 15 25 l6 31 28 -24 c20 -16 27 -30 24 -45 -5 -28 9 -30 25 -4 6 10 36
32 67 49 67 39 98 82 57 82 -46 0 -51 9 -25 47 13 20 24 46 24 59 0 22 -4 24
-42 24 -31 0 -55 -9 -87 -30 -61 -41 -112 -53 -212 -48 -89 4 -133 21 -146 55
-8 19 -93 103 -105 103 -4 0 -8 -15 -8 -33z"/>
<path d="M9671 17322 c-1 -9 -11 -11 -35 -7 -40 8 -98 -16 -119 -48 -16 -27
-54 -130 -62 -174 -4 -21 0 -45 13 -74 l19 -42 7 39 c13 69 75 183 132 242 30
31 52 61 50 67 -2 5 -5 4 -5 -3z"/>
<path d="M5851 17251 c-12 -8 -13 -12 -1 -26 11 -13 9 -20 -14 -44 -18 -19
-23 -30 -15 -33 7 -2 9 -9 5 -17 -6 -9 -11 -9 -22 0 -8 6 -14 8 -14 4 0 -4 -8
3 -18 15 l-17 22 -28 -26 c-15 -14 -27 -34 -27 -45 0 -18 5 -20 50 -14 46 5
50 4 50 -16 0 -21 94 -154 103 -145 11 12 -18 113 -44 151 -16 25 -23 43 -16
43 7 0 32 21 56 46 39 41 43 48 33 70 -12 25 -53 33 -81 15z"/>
<path d="M12461 17226 c-79 -10 -86 -13 -105 -43 -24 -37 -81 -70 -181 -104
-83 -29 -145 -81 -145 -123 0 -27 1 -28 43 -21 101 16 235 58 364 116 220 98
223 100 223 108 0 4 -19 7 -42 7 -27 -1 -43 4 -44 12 -1 6 -2 23 -3 37 0 14
-7 24 -13 24 -7 -1 -51 -7 -97 -13z"/>
<path d="M13465 17097 c-179 -91 -545 -307 -545 -321 0 -7 134 51 210 91 106
55 523 316 500 312 -3 0 -77 -37 -165 -82z"/>
<path d="M6156 16985 c-10 -28 -7 -65 7 -62 20 4 20 -60 -1 -106 -35 -78 -41
-105 -26 -111 7 -3 20 -30 29 -61 19 -65 35 -72 35 -14 0 59 20 117 47 139
l24 18 -25 37 c-14 20 -30 60 -36 89 -12 60 -43 99 -54 71z"/>
<path d="M11836 16920 c-26 -10 -57 -27 -67 -36 -23 -21 -25 -57 -4 -74 13
-11 18 -10 31 8 9 13 35 25 72 33 58 13 107 49 99 72 -6 19 -78 18 -131 -3z"/>
<path d="M11395 16781 c-48 -29 -62 -58 -64 -135 -1 -39 -6 -89 -11 -113 -10
-42 2 -83 23 -83 4 0 7 53 6 117 l-1 117 58 16 c61 16 124 55 124 76 0 28 -92
32 -135 5z"/>
<path d="M12685 16580 c-60 -54 -121 -115 -135 -135 -14 -20 -44 -59 -68 -87
-27 -31 -42 -58 -40 -71 3 -20 27 -31 44 -18 11 7 58 80 66 101 11 31 132 187
191 248 34 34 59 62 57 62 -3 0 -54 -45 -115 -100z"/>
<path d="M15155 16448 c-29 -20 -84 -37 -127 -40 -21 -1 -38 -6 -38 -12 0 -5
-3 -7 -6 -3 -8 8 -54 -15 -132 -66 -53 -35 -62 -45 -55 -62 4 -11 6 -90 5
-176 -3 -123 -1 -158 10 -167 24 -19 83 5 140 57 l52 48 -12 40 c-15 50 -15
75 -1 123 11 36 14 38 62 44 33 3 94 26 172 65 66 33 130 62 143 66 31 9 24
24 -26 60 -34 23 -55 30 -105 33 -41 2 -69 -1 -82 -10z"/>
<path d="M13792 16330 c-26 -11 -44 -52 -40 -89 2 -21 10 -27 43 -34 53 -11
112 7 127 38 6 13 8 39 4 59 -7 36 -7 36 -59 35 -29 0 -62 -4 -75 -9z"/>
<path d="M13165 16204 c-33 -9 -104 -14 -205 -14 l-155 0 -92 -66 c-51 -36
-93 -70 -93 -75 0 -6 8 -5 20 1 11 6 57 12 102 13 81 2 83 1 96 -25 7 -16 21
-32 30 -37 20 -10 123 2 200 25 85 24 162 107 162 174 0 23 2 23 -65 4z"/>
<path d="M12434 15991 c-109 -6 -126 -9 -186 -39 -149 -73 -213 -219 -121
-279 22 -15 26 -13 96 49 69 62 204 172 261 212 30 22 84 67 76 64 -3 -1 -59
-4 -126 -7z"/>
<path d="M13930 15943 c-55 -29 -72 -34 -109 -29 -24 3 -63 17 -87 30 -42 23
-43 23 -72 6 -37 -23 -61 -84 -64 -169 l-3 -64 40 -15 c66 -25 184 -20 317 13
l116 29 6 50 c3 28 9 81 12 119 l6 67 -48 -1 c-34 -1 -68 -12 -114 -36z"/>
<path d="M15576 15707 c2 -7 -25 -42 -61 -77 -113 -113 -175 -130 -187 -50 -3
22 -6 20 -52 -33 -27 -32 -47 -59 -45 -62 3 -2 28 3 57 11 28 9 60 14 69 12
36 -7 -24 -46 -107 -72 -72 -22 -88 -32 -136 -80 -48 -51 -56 -55 -79 -46 -15
6 -83 10 -153 10 -128 0 -165 9 -224 52 -29 21 -32 1 -7 -49 37 -74 67 -86
205 -84 117 2 139 -3 182 -42 33 -31 27 -42 -32 -60 -73 -23 -106 -51 -106
-88 l0 -29 53 6 c59 7 108 -11 127 -46 18 -34 42 -40 101 -26 103 24 133 49
196 164 57 104 82 134 130 156 l39 17 -4 59 c-4 53 0 68 42 158 38 81 46 108
46 155 0 57 0 57 -30 57 -20 0 -28 -4 -24 -13z"/>
<path d="M14821 15676 c-13 -13 -51 -38 -85 -54 -62 -30 -126 -77 -126 -93 0
-4 12 -15 28 -23 25 -14 26 -16 7 -21 -19 -6 -53 -61 -43 -70 2 -2 23 -7 46
-11 34 -5 43 -3 48 11 4 9 2 20 -5 24 -6 4 -9 15 -6 24 5 12 15 14 42 10 28
-5 51 2 120 37 l85 44 -6 45 c-12 86 -62 123 -105 77z"/>
<path d="M15767 15523 c-9 -2 -25 -19 -33 -36 -9 -18 -60 -97 -114 -177 -115
-172 -166 -260 -150 -260 6 0 53 13 103 30 51 16 128 38 172 48 l80 18 -3 58
c-4 56 -3 58 35 91 l38 33 1 91 c1 84 0 91 -17 86 -10 -3 -32 1 -48 9 -31 16
-34 17 -64 9z"/>
<path d="M12770 15390 c-11 -26 -18 -30 -49 -30 -86 0 -237 -65 -289 -125 -39
-43 -40 -69 -6 -91 25 -17 26 -16 62 19 47 45 133 84 223 99 64 11 70 14 66
34 -3 16 4 26 25 38 32 19 35 32 12 64 -20 29 -29 28 -44 -8z"/>
<path d="M14137 15279 c-23 -48 -47 -83 -59 -88 -18 -7 -18 -8 6 -19 31 -14
32 -22 5 -56 -38 -48 -75 -60 -184 -61 -166 -2 -170 -3 -210 -72 -19 -32 -19
-33 5 -83 13 -28 41 -68 62 -88 21 -20 45 -54 53 -75 11 -26 20 -37 30 -33 8
3 41 11 74 17 52 11 62 11 85 -4 14 -10 26 -21 26 -25 0 -10 -303 -16 -468
-10 -64 3 -71 1 -103 -27 -31 -28 -51 -33 -249 -69 -704 -126 -763 -140 -828
-200 -31 -27 -62 -88 -62 -119 0 -48 17 -49 163 -12 121 30 305 68 782 159 71
14 131 23 134 20 4 -4 -11 -100 -30 -194 l-10 -45 -142 0 c-119 0 -153 -4
-212 -22 -169 -54 -255 -159 -255 -313 0 -92 30 -113 85 -61 70 68 192 107
366 117 l106 7 -23 -124 c-13 -68 -23 -135 -22 -149 0 -14 13 42 30 124 16 81
27 151 24 153 -10 10 -192 25 -244 20 -75 -8 -154 -48 -223 -114 -58 -55 -61
-57 -75 -38 -8 10 -14 40 -14 65 0 217 207 348 516 326 l92 -6 26 137 c14 76
30 170 36 208 14 92 27 123 61 140 99 52 291 -50 362 -191 48 -97 61 -153 61
-261 -1 -121 -14 -113 171 -113 136 0 282 18 373 45 66 20 82 10 82 -49 0 -57
-45 -144 -90 -174 -28 -19 -44 -22 -75 -18 -39 6 -504 -9 -511 -17 -6 -6 -55
-300 -50 -304 5 -5 20 63 43 194 l17 93 42 0 c24 0 46 -4 49 -10 3 -5 1 -10
-4 -10 -6 0 -11 -7 -11 -15 0 -26 65 -30 111 -5 32 16 51 20 81 15 22 -4 42
-13 45 -21 11 -30 -22 -90 -84 -150 -57 -55 -63 -65 -54 -83 9 -15 8 -23 -2
-33 -11 -10 -9 -16 15 -36 l29 -25 -27 -28 c-15 -16 -43 -34 -62 -40 -49 -16
-194 -6 -207 15 -6 11 -23 -56 -57 -232 -47 -245 -57 -308 -34 -222 10 37 17
45 41 50 72 15 97 50 50 72 -19 8 -28 8 -40 -2 -8 -7 -18 -11 -20 -8 -6 6 26
171 35 182 11 12 120 -22 127 -39 3 -9 -2 -26 -11 -40 -21 -32 -20 -35 8 -35
17 0 34 12 51 34 l26 35 62 -45 c33 -25 68 -49 76 -54 14 -7 11 -14 -16 -42
-18 -19 -33 -41 -33 -50 0 -25 36 -63 105 -113 60 -43 79 -65 55 -65 -18 0
-11 -30 8 -31 9 0 -5 -7 -32 -14 -63 -18 -136 -56 -136 -73 0 -38 -93 -85
-188 -95 -22 -3 -46 -17 -73 -43 l-40 -39 16 40 c9 22 21 44 26 49 22 24 9 33
-33 25 -24 -4 -59 -5 -79 -2 l-36 5 5 47 c2 25 2 44 -1 41 -5 -5 -127 -718
-127 -742 0 -6 3 -9 6 -6 4 5 54 278 54 300 0 7 235 168 246 168 12 0 135 91
227 168 117 99 320 216 347 202 35 -19 43 -48 26 -85 -15 -32 -18 -33 -46 -24
-32 12 -90 -2 -108 -24 -14 -16 13 -132 38 -167 19 -27 19 -27 -5 -60 -17 -23
-25 -28 -25 -17 0 14 -10 17 -59 17 -74 0 -91 -6 -91 -34 0 -14 -15 -35 -40
-55 -27 -22 -40 -40 -40 -56 0 -29 0 -28 36 -15 31 12 91 16 100 7 6 -6 -126
-183 -266 -358 -140 -175 -299 -319 -352 -319 -28 0 -51 46 -58 118 l-7 67 -2
-58 c-1 -63 19 -124 44 -133 92 -36 328 217 765 820 72 100 101 149 122 210
42 120 92 219 166 331 74 112 241 290 342 365 320 237 685 252 905 36 99 -97
145 -209 145 -350 0 -125 -31 -204 -93 -241 -36 -22 -91 -14 -123 16 -30 28
-30 33 1 47 35 16 50 58 31 87 -8 12 -62 46 -121 76 -94 48 -114 54 -180 57
-88 5 -159 -14 -265 -69 -88 -45 -165 -107 -222 -175 -47 -57 -88 -134 -88
-166 0 -13 -9 -36 -21 -53 -80 -118 -158 -322 -166 -437 -5 -72 -4 -78 20
-102 21 -21 36 -26 76 -26 70 0 174 56 386 206 94 67 190 134 215 150 25 16
78 53 118 82 113 83 227 149 299 173 121 40 216 11 262 -80 32 -62 34 -100 11
-237 -27 -157 -25 -357 3 -411 37 -70 83 -79 173 -33 103 52 192 128 459 391
198 195 268 258 293 264 106 23 181 -155 119 -287 -33 -70 -92 -138 -121 -138
-29 0 -105 -53 -237 -166 -307 -260 -461 -345 -663 -364 -143 -14 -160 -18
-184 -40 l-22 -21 -20 33 c-41 66 -70 212 -70 351 0 61 -1 63 -31 47 -13 -8
-31 -7 -58 1 -63 19 -128 -7 -256 -103 -430 -320 -634 -402 -855 -344 -38 11
-89 16 -125 14 l-60 -3 -32 60 c-39 73 -68 179 -84 305 -7 52 -13 96 -15 98
-4 6 -175 -169 -227 -230 -57 -69 -195 -192 -291 -259 -127 -90 -278 -119
-436 -84 -77 17 -136 19 -145 5 -3 -5 -10 -10 -14 -10 -11 0 -58 88 -82 152
-10 29 -17 40 -14 24 7 -34 30 -36 -213 27 -95 24 -176 48 -180 52 -10 10 39
45 64 45 11 0 47 -9 79 -20 32 -11 97 -27 144 -36 47 -9 90 -21 94 -28 5 -6 6
-1 3 14 -5 23 -18 137 -32 278 l-6 53 -30 -26 c-17 -14 -42 -25 -59 -25 -47 0
-86 -21 -224 -124 -206 -152 -306 -194 -518 -214 -75 -7 -105 -14 -127 -31
l-29 -21 -22 41 c-35 69 -48 128 -60 264 -6 72 -13 131 -14 133 -2 2 -13 -2
-25 -8 -16 -8 -30 -8 -56 0 -66 22 -110 3 -279 -120 -315 -228 -476 -315 -631
-340 -60 -10 -82 -9 -168 9 -109 23 -176 27 -193 10 -13 -13 -60 61 -90 141
-20 53 -44 174 -59 289 l-6 54 -35 -42 c-19 -23 -52 -48 -71 -57 -23 -9 -93
-74 -190 -174 -167 -173 -247 -235 -370 -282 -121 -47 -174 -52 -308 -28 -104
19 -118 20 -145 6 l-30 -15 -30 47 c-49 77 -71 162 -79 307 l-7 130 -1 -106
c-2 -128 20 -227 74 -330 64 -121 159 -186 309 -211 54 -9 67 -7 127 15 92 35
170 91 290 205 102 98 310 325 402 440 59 73 58 74 76 -63 47 -365 267 -562
542 -486 150 41 253 102 616 365 l93 67 129 -32 128 -32 6 -39 c11 -68 46
-145 87 -191 47 -54 117 -82 185 -74 52 5 167 59 266 123 105 68 124 79 116
70 -13 -16 35 -68 81 -89 35 -15 82 -22 205 -29 89 -5 170 -11 181 -13 11 -3
32 -25 47 -53 33 -58 103 -125 152 -146 67 -28 147 -31 223 -8 168 51 441 284
675 574 47 59 88 104 92 101 3 -4 6 -22 6 -42 0 -20 10 -79 22 -131 23 -104
25 -127 14 -152 -6 -13 -3 -15 13 -11 16 4 25 -6 50 -55 l30 -59 -34 -50 c-41
-60 -96 -106 -150 -123 -22 -7 -45 -17 -51 -22 -27 -21 -195 -97 -270 -122
-99 -33 -120 -56 -198 -218 -30 -62 -82 -154 -115 -205 -53 -82 -61 -101 -70
-168 -6 -42 -11 -78 -11 -81 0 -2 34 -27 76 -54 47 -31 81 -47 89 -42 15 8 44
48 145 201 75 113 124 219 135 292 l7 45 46 -7 c26 -4 62 -10 80 -14 30 -7 32
-6 32 18 0 33 39 79 109 127 31 21 66 47 78 59 30 29 39 27 107 -19 35 -24 70
-40 87 -40 27 0 29 3 29 40 0 23 -7 54 -14 69 -19 36 -79 89 -110 97 l-23 5
29 54 c38 71 62 77 141 34 45 -24 77 -33 128 -37 58 -4 68 -7 73 -26 10 -37 6
-99 -9 -156 -21 -77 -19 -123 5 -145 17 -15 153 -70 205 -82 16 -3 40 16 101
79 124 129 175 254 159 390 -6 52 -10 59 -33 64 -15 3 -35 8 -45 11 -13 3 16
28 108 91 147 102 170 115 199 112 11 -1 60 -1 109 -1 90 0 102 5 125 47 6 11
31 32 56 45 68 36 59 46 -41 48 -48 1 -89 3 -90 5 -2 1 38 30 87 63 81 55 90
59 90 40 2 -115 32 -279 65 -353 13 -30 20 -52 15 -49 -6 4 -10 -3 -10 -14 0
-14 6 -21 20 -21 10 0 36 -11 56 -25 103 -70 189 -59 370 48 79 47 94 52 119
44 63 -19 62 -17 41 -32 -15 -12 -18 -23 -13 -62 6 -57 28 -78 164 -159 116
-69 153 -100 153 -128 0 -12 6 -31 14 -41 12 -17 18 -18 40 -7 14 6 26 17 26
24 0 7 13 27 30 44 16 18 26 35 23 38 -4 3 -1 6 5 6 6 0 14 15 17 33 5 26 1
42 -19 71 -40 59 -65 140 -77 244 -6 53 -17 137 -24 185 l-13 88 153 154 c176
177 215 237 215 334 0 81 -17 130 -59 173 -36 35 -40 37 -97 34 -76 -3 -89
-10 -107 -54 -21 -52 -485 -511 -497 -492 -9 14 -180 31 -180 18 0 -14 23 -20
88 -23 37 -1 69 -6 72 -11 6 -13 -126 -100 -173 -114 -53 -15 -90 0 -113 48
-15 33 -15 36 0 47 15 11 14 13 -5 18 -21 6 -22 9 -16 139 3 73 13 177 22 230
21 116 15 168 -25 231 -54 85 -143 107 -271 67 -70 -21 -155 -70 -317 -185
-549 -386 -613 -425 -695 -425 -37 0 -49 5 -66 26 -29 36 -29 99 0 114 18 10
20 18 14 63 -4 39 -2 60 12 87 22 42 37 46 114 29 51 -11 57 -15 48 -31 -6
-10 -7 -28 -4 -38 9 -27 77 -27 125 -1 105 58 96 56 140 38 l40 -15 6 26 c14
64 27 92 60 130 43 51 105 72 211 72 40 0 73 2 73 5 0 2 -5 15 -11 29 -18 39
-2 86 56 165 30 41 55 80 55 89 0 8 17 -4 38 -28 33 -37 44 -43 88 -47 43 -5
54 -2 81 21 19 16 34 22 38 16 22 -36 69 46 48 85 -6 10 -6 38 -1 73 5 31 7
80 4 107 -5 42 -4 47 6 30 6 -11 12 -47 12 -80 l1 -60 36 3 c44 4 70 -19 88
-78 6 -22 22 -52 35 -66 19 -23 25 -25 44 -15 13 7 25 28 32 54 14 58 23 71
51 77 33 8 36 43 6 67 l-25 19 54 28 c64 34 143 109 180 172 19 32 30 42 37
35 6 -6 19 -11 28 -11 23 0 76 45 94 80 19 37 27 116 18 170 -8 40 -12 45 -37
48 -17 2 -48 -7 -75 -21 -67 -36 -165 -67 -210 -67 -40 0 -229 45 -310 75 -30
10 -68 38 -113 84 -64 65 -81 91 -58 91 6 0 1 10 -10 23 -16 16 -21 34 -20 67
1 25 1 60 1 78 -1 30 -2 32 -17 18 -22 -23 -81 -18 -164 12 -8 3 -18 4 -22 4
-14 -3 -8 23 12 53 36 55 20 102 -38 109 -18 3 -30 1 -27 -4 3 -4 -2 -13 -10
-20 -13 -10 -24 -11 -57 -1 -31 10 -38 15 -27 22 10 6 7 9 -13 9 -16 0 -37 9
-49 21 l-20 20 26 21 c25 19 26 25 21 77 -3 31 -5 57 -6 59 0 1 -17 1 -37 1
-21 -1 -30 -3 -20 -6 23 -6 21 -19 -11 -78 -23 -42 -33 -51 -59 -53 -37 -4
-77 15 -121 56 -30 29 -45 61 -20 46 6 -4 8 -3 5 4 -4 5 -31 13 -60 17 -82 11
-127 33 -127 60 0 77 56 102 98 45 30 -41 60 -38 104 8 44 44 58 78 58 135 -1
120 -113 218 -251 220 -33 0 -61 -2 -63 -4 -3 -2 0 -23 7 -45 15 -57 -10 -119
-68 -173 -30 -28 -39 -41 -29 -45 21 -8 17 -32 -8 -56 -16 -15 -35 -20 -74
-20 -89 0 -125 54 -56 83 33 14 32 22 -10 90 -34 53 -64 61 -97 28 -30 -30
-95 -43 -194 -39 -73 2 -91 6 -102 22 -12 16 -22 17 -72 11 -96 -11 -194 -35
-270 -67 -71 -29 -73 -31 -73 -65 l0 -34 48 1 c26 1 53 1 60 1 19 -2 14 -36
-10 -67 -23 -29 -32 -104 -13 -111 63 -21 105 -80 105 -148 l0 -35 -82 0
c-131 0 -130 0 -123 79 9 87 -14 196 -60 285 -19 38 -34 70 -32 71 1 1 36 14
77 29 41 16 79 32 84 37 5 4 21 5 37 2 27 -5 27 -5 23 38 -3 24 -7 52 -9 61
-2 13 7 20 38 28 23 6 53 15 67 19 14 4 48 38 77 77 80 107 81 107 49 149 -45
59 -57 102 -65 229 -6 114 -13 147 -29 145 -4 0 -24 -36 -45 -80z m763 -1167
c0 -5 -13 -26 -30 -48 -32 -42 -43 -111 -16 -101 7 3 34 9 60 12 53 8 236 -14
236 -28 0 -19 -41 -65 -69 -77 -17 -7 -50 -10 -73 -8 -37 4 -51 -1 -98 -33
-73 -50 -160 -136 -160 -158 0 -6 -8 -15 -17 -18 -10 -4 -58 -48 -108 -99 -93
-95 -123 -118 -207 -164 l-50 -27 36 -7 c20 -4 36 -10 36 -14 0 -5 -18 -25
-39 -46 -30 -29 -44 -36 -61 -31 -29 9 -47 49 -31 69 10 12 2 13 -52 9 -57 -5
-65 -3 -94 21 -31 26 -63 81 -63 109 0 13 6 14 37 5 69 -19 172 -5 241 32 65
35 148 110 190 173 32 48 24 64 -63 132 -55 42 -83 73 -73 79 2 1 17 11 33 21
17 11 57 31 91 46 33 14 80 39 105 56 84 58 174 103 207 103 17 0 32 -4 32 -8z"/>
<path d="M15856 14989 c-22 -17 -40 -20 -133 -21 -80 0 -131 -6 -198 -24 -71
-19 -103 -22 -157 -17 -72 6 -118 -10 -118 -42 0 -16 7 -15 90 6 48 12 60 11
60 -5 0 -9 20 -19 53 -27 44 -10 63 -23 121 -81 l69 -69 45 16 c24 10 76 42
115 71 40 30 89 62 109 72 21 9 38 22 38 27 0 10 -58 115 -64 115 -2 0 -15 -9
-30 -21z"/>
<path d="M8308 14684 c-26 -11 -43 -28 -57 -57 -29 -62 -130 -578 -145 -747
-5 -54 -5 -54 4 -10 4 25 18 106 30 180 36 229 100 532 121 573 41 80 139 83
241 7 99 -75 164 -175 198 -304 10 -39 19 -62 19 -50 2 73 -71 227 -147 306
-88 92 -192 132 -264 102z"/>
<path d="M12253 14196 c-13 -7 -20 -16 -15 -21 4 -4 -1 -5 -10 -2 -29 10 -22
-34 9 -58 32 -26 24 -45 -21 -45 -56 0 -73 36 -34 77 12 13 19 25 16 28 -11
11 -55 -14 -61 -34 -3 -12 -19 -29 -36 -38 -17 -10 -31 -20 -31 -23 0 -3 29
-42 64 -86 71 -89 176 -177 275 -230 l64 -35 101 7 c56 4 95 9 88 12 -9 3 -10
7 -2 17 26 32 19 52 -23 71 -58 26 -221 191 -287 292 -30 45 -59 82 -65 81 -5
-1 -20 -7 -32 -13z"/>
<path d="M16350 14170 c-54 -11 -65 -14 -70 -22 -3 -4 -21 -10 -40 -13 -53 -9
-127 -54 -186 -112 -30 -30 -54 -58 -54 -63 0 -13 41 -50 68 -61 45 -17 96 -9
177 29 64 30 162 83 183 98 2 2 6 20 7 41 2 21 7 55 11 76 6 37 6 37 -27 36
-19 -1 -50 -5 -69 -9z"/>
<path d="M18509 13557 c-88 -33 -137 -94 -234 -291 -109 -222 -158 -384 -214
-716 -34 -201 -72 -507 -70 -571 1 -24 7 14 15 85 45 434 116 797 200 1023 43
117 153 327 200 382 43 49 125 91 178 91 60 -1 165 -41 245 -95 198 -131 266
-341 265 -825 0 -452 -71 -917 -210 -1390 -85 -288 -216 -648 -262 -723 -30
-50 -37 -71 -40 -126 -6 -114 69 -480 134 -653 29 -77 71 -128 106 -128 64 0
266 162 353 284 122 172 234 487 269 756 11 87 19 117 33 128 25 18 72 7 103
-24 24 -23 25 -29 22 -127 -6 -226 -123 -759 -200 -912 -47 -94 -82 -135 -116
-135 -16 0 -85 -27 -153 -60 -260 -128 -372 -120 -606 43 -51 35 -124 82 -163
104 -39 22 -96 61 -128 87 -31 25 -61 46 -66 46 -5 0 -26 33 -46 73 l-37 72
-27 -105 c-37 -139 -64 -216 -94 -261 -21 -30 -29 -36 -51 -31 -15 2 -73 -1
-128 -7 -164 -19 -234 3 -441 138 -60 39 -124 74 -144 77 -28 6 -38 14 -51 45
-16 38 -34 49 -46 29 -8 -13 -47 -166 -85 -335 -38 -167 -73 -283 -106 -348
l-24 -47 -28 20 c-22 16 -48 20 -137 23 -89 4 -130 11 -210 37 -119 38 -137
36 -267 -21 -155 -69 -236 -65 -440 22 -88 37 -136 52 -176 54 -39 1 -59 7
-68 20 -12 16 -14 14 -27 -16 -7 -19 -30 -84 -51 -145 -38 -116 -88 -211 -134
-255 -25 -24 -144 -74 -237 -98 -50 -14 -156 -14 -214 0 -24 5 -91 32 -150 60
-58 28 -143 64 -189 81 -79 29 -85 33 -123 90 -41 60 -49 79 -69 156 l-11 43
-35 -46 c-110 -143 -266 -374 -276 -407 -10 -34 -8 -46 17 -106 55 -133 39
-285 -49 -459 -51 -102 -66 -118 -118 -119 -48 -2 -335 -111 -382 -146 l-29
-21 -34 36 c-40 45 -42 72 -8 164 13 37 22 69 20 71 -2 2 -16 -31 -31 -72 -25
-67 -32 -77 -61 -87 -103 -34 -94 -145 17 -226 25 -17 54 -41 66 -52 12 -12
33 -21 48 -21 26 0 26 0 11 31 -17 32 -33 129 -21 129 4 0 21 -10 37 -22 43
-32 117 -30 183 4 l50 25 54 -44 c62 -51 158 -101 169 -89 4 5 -31 45 -78 90
l-86 81 72 71 c53 52 83 94 118 160 47 93 97 243 97 296 0 16 4 28 8 26 5 -1
78 -30 162 -63 l152 -60 -4 -65 c-6 -72 -33 -137 -73 -168 -23 -18 -34 -42
-19 -42 3 0 33 14 67 32 64 35 103 79 134 153 10 25 21 45 25 45 4 0 16 -9 26
-20 14 -15 40 -23 98 -31 43 -5 111 -15 149 -22 63 -11 70 -15 74 -37 1 -14
13 -38 25 -55 17 -25 21 -44 21 -110 0 -79 -1 -83 -72 -231 -40 -83 -77 -172
-82 -197 -10 -41 -6 -107 6 -107 3 0 23 18 45 41 59 60 135 91 239 97 97 5
143 -6 190 -45 40 -34 62 -78 69 -136 l5 -49 98 -33 c56 -18 114 -45 135 -62
45 -37 83 -107 90 -169 l5 -46 64 6 c81 8 163 39 198 74 23 23 65 91 65 106 0
2 -26 2 -59 -1 -53 -5 -60 -3 -75 18 -31 46 -23 55 73 79 82 20 90 20 126 6
20 -9 41 -16 45 -16 12 0 39 70 66 170 30 113 62 158 98 136 15 -10 40 -11 84
-7 42 5 76 3 100 -6 20 -6 38 -11 40 -9 9 10 -105 96 -169 128 -75 38 -104 44
-214 40 -45 -2 -56 -5 -45 -13 21 -14 -11 -5 -135 38 -158 55 -215 72 -285 84
-45 8 -84 23 -130 52 -90 56 -150 81 -346 146 -190 63 -239 92 -228 136 3 14
12 25 19 25 25 0 158 -52 385 -150 336 -145 416 -174 651 -236 272 -72 253
-68 268 -50 8 9 22 16 32 16 11 0 19 7 19 15 0 8 -7 15 -16 15 -12 0 -15 5 -9
23 4 12 9 38 12 59 5 35 4 37 -43 57 -56 25 -77 42 -115 94 -25 35 -26 40 -13
65 8 15 14 33 14 41 0 9 4 10 13 3 7 -5 21 -6 32 -1 11 4 14 8 7 8 -7 1 -10 6
-7 11 6 9 -7 14 -31 11 -6 -1 -11 14 -11 31 0 18 -2 88 -4 156 -3 110 -5 122
-21 122 -13 0 -18 -8 -18 -26 0 -32 -83 -115 -151 -149 -37 -19 -64 -25 -116
-25 -93 0 -195 24 -257 58 -70 40 -111 52 -209 62 -56 6 -101 17 -134 33 -44
23 -51 24 -76 11 -15 -8 -36 -31 -46 -52 -11 -20 -52 -68 -91 -107 -40 -38
-84 -88 -99 -111 l-27 -41 -19 25 c-18 25 -18 25 1 19 12 -5 9 0 -8 14 -16 11
-28 27 -28 34 0 7 -6 16 -12 18 -9 4 -8 6 2 6 10 1 17 12 18 30 2 27 -1 30
-38 36 -46 8 -55 17 -40 44 5 11 13 47 16 79 l7 59 61 -4 c44 -3 66 -1 80 10
19 14 19 15 -10 31 l-29 16 27 -6 c15 -3 60 -1 100 6 92 15 172 64 278 170 88
87 137 174 195 347 l38 112 24 -37 c14 -20 39 -51 55 -69 29 -30 30 -32 14
-54 -9 -13 -16 -38 -16 -56 0 -29 3 -33 28 -33 15 0 53 11 84 24 l57 23 83
-19 c171 -41 307 -10 409 92 l52 52 41 -40 c53 -52 113 -88 195 -119 122 -46
215 -21 334 88 l66 59 24 -24 c33 -33 95 -48 178 -44 73 3 79 0 79 -48 0 -21
5 -24 38 -24 34 0 38 3 48 35 12 38 5 45 -44 45 l-27 1 30 16 c56 29 115 97
115 133 0 5 -14 10 -30 10 -48 0 -81 23 -128 87 -42 59 -85 93 -116 93 -22 0
-21 1 24 80 21 39 42 86 46 105 l6 35 55 -51 c68 -61 283 -170 371 -188 95
-19 182 8 268 83 67 58 108 148 164 365 l12 44 50 -102 c85 -170 177 -253 430
-385 127 -66 185 -81 294 -73 225 16 435 147 531 332 88 170 192 611 214 907
10 145 5 168 -43 198 -33 21 -90 22 -110 2 -6 -6 -16 -61 -24 -123 -18 -141
-44 -247 -100 -412 -93 -269 -208 -435 -394 -565 -123 -87 -152 -80 -209 51
-64 150 -151 576 -137 677 4 25 23 72 46 110 41 69 59 115 175 465 200 602
288 1093 289 1615 1 463 -48 664 -199 809 -119 114 -295 176 -396 138z m-4011
-4714 c72 -75 175 -140 287 -185 51 -20 63 -27 43 -28 -20 0 -29 -6 -33 -23
-7 -25 -60 -72 -100 -87 -64 -25 -171 -4 -246 47 -47 32 -279 143 -341 163
-21 6 -38 16 -38 22 0 11 91 143 149 218 19 25 37 47 39 50 2 3 15 -8 28 -23
26 -30 31 -63 12 -70 -7 -2 6 -6 30 -8 l42 -5 0 42 c0 77 11 82 37 16 18 -43
44 -80 91 -129z"/>
<path d="M5819 13431 c-18 -14 -24 -32 -30 -86 -7 -72 -22 -95 -64 -95 -25 0
-45 -18 -45 -40 0 -11 17 -19 62 -27 34 -7 74 -21 89 -32 35 -26 54 -26 71 -2
8 11 26 25 41 32 15 7 26 15 25 19 -31 75 -115 249 -119 250 -4 0 -17 -8 -30
-19z"/>
<path d="M18715 13266 c-65 -111 -110 -268 -149 -517 -65 -415 -73 -601 -57
-1246 12 -506 17 -603 31 -603 24 0 114 258 175 500 34 136 75 327 75 351 0
32 -11 -7 -35 -126 -44 -222 -157 -609 -199 -685 -14 -23 -14 -22 -20 30 -3
30 -11 287 -17 570 -9 394 -9 555 0 684 22 317 76 676 127 838 31 99 89 228
102 228 11 0 65 -191 82 -290 33 -189 29 -616 -10 -945 -29 -246 -33 -298 -15
-201 43 239 74 822 55 1014 -11 106 -32 225 -51 292 -22 75 -52 150 -60 150
-4 0 -20 -20 -34 -44z"/>
<path d="M11507 13106 c-102 -36 -203 -101 -283 -180 -71 -71 -134 -173 -134
-217 0 -12 -13 -43 -30 -68 -33 -52 -105 -203 -114 -241 l-6 -25 12 25 c6 14
26 57 44 97 86 191 252 364 437 452 216 104 368 92 453 -36 34 -51 68 -83 89
-83 5 0 -5 9 -22 20 -41 24 -41 35 -3 67 55 45 37 81 -70 140 -144 79 -249 92
-373 49z"/>
<path d="M13157 13020 l-6 -30 -73 0 c-159 -1 -322 -61 -398 -147 -44 -51 -56
-80 -46 -119 6 -24 9 -25 24 -11 9 8 41 20 71 26 29 6 121 45 205 86 83 41
164 78 180 81 l28 7 -7 -61 c-4 -34 -12 -121 -19 -193 -12 -127 -13 -133 -42
-158 -49 -44 -320 -325 -298 -310 11 8 94 89 182 180 159 163 162 168 162 210
0 24 11 138 25 254 22 196 26 257 12 185z"/>
<path d="M16735 12785 c-62 -22 -164 -146 -165 -202 0 -6 25 -14 60 -18 78 -9
92 -25 52 -62 -17 -15 -34 -40 -37 -55 -7 -27 -6 -28 26 -22 77 15 90 35 100
164 9 105 28 143 72 148 35 4 34 18 0 35 -47 24 -67 26 -108 12z"/>
<path d="M2335 12585 c-75 -18 -118 -39 -163 -79 -42 -39 -80 -113 -84 -167
l-3 -34 57 -3 c66 -3 111 13 180 65 62 48 92 107 85 170 -2 24 -9 48 -13 53
-5 4 -31 2 -59 -5z"/>
<path d="M12275 12145 c3 -157 36 -225 107 -225 56 0 206 93 313 194 47 44 45
43 -25 -12 -147 -115 -151 -117 -161 -101 -5 8 -9 18 -9 24 0 5 -19 38 -42 72
-37 55 -49 65 -92 78 -33 10 -54 12 -67 5 -16 -9 -18 -5 -22 32 -3 24 -3 -7
-2 -67z"/>
<path d="M17976 11838 c-24 -296 -34 -1076 -16 -1323 8 -117 7 -124 -25 -250
-56 -219 -149 -428 -224 -499 l-29 -28 -31 53 c-35 63 -94 234 -115 339 -8 41
-19 125 -25 185 -12 118 -49 272 -80 333 -42 82 -117 121 -234 122 -107 0
-116 -10 -152 -166 -73 -317 -162 -629 -220 -768 -15 -36 -17 -37 -39 -22 -18
11 -26 12 -36 3 -9 -8 -11 -8 -7 -1 4 7 -2 14 -14 17 -14 4 -19 11 -16 24 3
10 8 54 11 98 4 66 3 72 -4 35 -6 -25 -13 -134 -16 -244 -6 -168 -5 -198 7
-194 18 6 30 31 80 163 122 325 181 519 259 859 40 173 50 186 142 186 85 0
132 -15 178 -56 65 -59 111 -200 131 -397 13 -134 42 -276 76 -372 34 -94 91
-205 105 -205 22 0 90 86 128 160 53 106 108 256 141 389 l29 114 -11 181
c-13 197 -6 808 11 1145 11 198 8 268 -4 119z"/>
<path d="M15703 11600 c-75 -34 -49 -61 77 -79 36 -5 74 -12 85 -16 17 -5 23
0 33 28 17 49 15 57 -15 57 -16 1 -39 7 -53 15 -34 20 -77 18 -127 -5z"/>
<path d="M3355 11462 c-16 -1 -59 -7 -95 -13 -36 -6 -99 -13 -140 -15 -84 -5
-123 -24 -128 -66 -5 -40 32 -52 135 -45 48 4 113 13 143 22 58 16 184 30 262
29 41 -1 47 2 51 22 5 27 -2 31 -82 40 -33 3 -58 10 -56 14 6 9 -47 16 -90 12z"/>
<path d="M15635 11239 c-11 -17 -40 -46 -64 -65 -54 -42 -99 -44 -163 -10
l-46 24 -44 -46 c-84 -88 -119 -142 -143 -220 -5 -19 -1 -25 29 -37 41 -17 64
-11 139 37 l48 31 31 -29 c43 -41 66 -97 73 -184 12 -149 14 -160 37 -160 15
0 18 -4 12 -17 -4 -10 -19 -52 -33 -93 -14 -41 -27 -76 -27 -78 -1 -2 -24 21
-52 50 -49 51 -84 73 -222 137 -36 17 -73 36 -83 43 -16 11 -22 9 -48 -20 -29
-32 -39 -82 -21 -109 14 -22 113 -27 156 -9 47 19 46 19 46 1 0 -44 120 -115
193 -115 22 0 28 -4 23 -15 -3 -8 -8 -43 -12 -78 l-6 -62 -192 -1 c-190 0
-355 -14 -473 -38 -55 -12 -68 -11 -115 5 -34 12 -78 18 -123 17 l-70 -1 85
-7 c133 -11 210 -64 245 -170 8 -25 44 -249 80 -498 62 -438 66 -456 100 -528
40 -84 42 -84 109 -17 64 64 145 244 252 558 73 215 94 321 104 545 11 229 34
348 85 450 30 59 51 77 103 89 105 23 166 -31 210 -184 36 -123 49 -207 112
-685 24 -176 55 -319 92 -412 20 -50 26 -58 49 -58 23 0 31 10 66 87 37 80 39
91 29 128 -5 22 -10 146 -10 280 0 239 0 241 37 416 44 210 76 323 123 436 71
172 153 289 244 347 150 96 352 92 493 -10 66 -48 74 -68 42 -100 -28 -27 -41
-28 -103 -3 -46 19 -58 8 -119 -102 -44 -79 -58 -118 -88 -244 -49 -204 -97
-444 -93 -464 2 -9 18 58 36 149 59 293 98 438 144 529 67 132 87 150 132 116
47 -36 135 7 121 58 -16 54 -145 129 -257 148 -141 23 -301 -32 -400 -139
-116 -127 -239 -434 -283 -709 -6 -39 -9 -41 -43 -45 -21 -2 -51 0 -67 3 -17
4 -67 7 -112 8 -77 1 -83 2 -83 22 0 33 -38 210 -61 285 -16 53 -32 79 -66
114 -115 114 -146 269 -103 506 26 141 25 148 -5 162 -14 7 -27 12 -28 12 -1
0 -11 -14 -22 -31z m-485 -1094 c47 -8 133 -15 193 -15 l107 0 0 -71 c0 -172
-47 -373 -156 -667 -87 -236 -144 -353 -199 -408 -25 -24 -48 -44 -53 -44 -5
0 -24 32 -42 71 -29 64 -37 103 -84 437 -44 306 -50 368 -39 375 8 5 51 11 96
13 90 5 123 20 133 60 9 35 -8 44 -76 43 -49 -1 -51 -2 -22 -9 45 -11 49 -18
18 -30 -40 -15 -177 -13 -175 3 5 22 -20 117 -41 157 l-21 40 28 11 c16 6 55
17 88 24 52 12 80 17 145 23 8 1 53 -5 100 -13z m993 -41 l59 -6 -6 -37 c-14
-81 -18 -405 -7 -509 l12 -107 -36 -77 c-47 -103 -64 -104 -99 -5 -47 133 -67
237 -106 547 -11 91 -23 176 -26 189 l-5 23 78 -6 c43 -4 104 -9 136 -12z"/>
<path d="M730 11169 c0 -30 17 -62 53 -104 30 -33 37 -37 51 -26 8 7 19 10 25
7 17 -11 43 6 38 25 -5 17 2 19 69 19 69 0 75 2 86 25 6 14 16 21 22 17 11 -6
87 -16 236 -28 83 -7 130 5 130 33 0 24 -5 24 -258 23 -56 0 -108 2 -113 6 -6
3 -57 6 -113 5 -55 0 -129 3 -163 7 -56 7 -63 6 -63 -9z"/>
<path d="M3280 10831 c-18 -6 2 -9 70 -10 86 -1 228 -14 288 -25 41 -9 132
-55 138 -70 3 -9 10 -13 15 -10 5 3 9 -2 9 -11 0 -9 4 -14 9 -11 5 3 12 -1 15
-10 4 -10 2 -13 -6 -8 -8 5 -9 2 -5 -10 4 -10 10 -29 13 -43 5 -18 9 -21 15
-11 6 9 9 7 9 -9 0 -12 14 -38 31 -58 29 -32 34 -34 72 -28 23 3 50 12 60 18
20 14 19 15 -38 46 -16 9 -43 36 -59 60 -17 24 -36 48 -43 52 -7 4 -13 15 -13
23 0 8 -4 13 -9 10 -5 -3 -12 1 -15 10 -8 20 -118 71 -181 84 -67 14 -344 22
-375 11z"/>
<path d="M13770 10182 c85 -59 115 -104 107 -162 -2 -20 -61 -155 -130 -301
-69 -145 -138 -293 -153 -329 -34 -81 -80 -234 -89 -293 -9 -56 2 -64 131
-107 50 -17 122 -49 159 -71 45 -28 74 -39 88 -35 13 3 69 68 137 158 63 84
157 196 209 248 l94 95 1 285 c1 157 4 299 7 315 4 17 4 22 2 13 -5 -22 -1
-22 -54 -1 -26 10 -75 17 -119 18 -41 0 -119 1 -172 3 l-98 2 0 26 c0 15 -9
41 -20 58 -18 31 -99 97 -117 95 -4 0 3 -8 17 -17z m131 -216 c-20 -21 -20
-24 -6 -30 14 -5 16 -15 12 -49 -17 -133 -18 -155 -8 -195 10 -37 18 -45 61
-66 49 -24 50 -24 50 -4 0 11 5 37 11 58 l11 37 87 16 c136 26 195 32 187 19
-4 -6 -2 -89 4 -184 l11 -173 -29 -26 c-29 -26 -30 -26 -98 -14 -243 46 -338
40 -381 -24 -33 -49 -32 -133 1 -166 39 -39 146 -61 146 -30 0 51 80 105 155
105 l45 0 -58 -72 c-32 -40 -91 -117 -130 -171 -40 -54 -79 -100 -87 -104 -9
-3 -45 13 -83 35 -37 22 -116 57 -175 77 -60 21 -111 44 -114 51 -7 20 35 179
74 279 20 50 94 212 164 362 71 150 129 277 129 283 0 5 10 10 22 10 l21 0
-22 -24z"/>
<path d="M15943 8991 c-48 -12 -116 -56 -153 -97 -55 -63 -73 -129 -50 -188 8
-22 14 -25 42 -20 90 17 182 78 222 148 23 40 54 142 45 150 -10 10 -76 14
-106 7z"/>
<path d="M4780 8841 c-30 -10 -88 -32 -129 -50 -57 -26 -83 -32 -114 -28 -27
4 -48 0 -70 -13 -18 -11 -56 -24 -84 -30 -62 -14 -98 -39 -108 -77 -3 -15 -15
-39 -26 -54 -31 -45 -26 -58 20 -48 23 5 69 5 111 0 86 -11 96 -8 104 29 4 21
10 28 21 24 10 -4 15 0 15 14 0 11 8 23 18 26 14 4 163 26 178 26 2 0 4 18 4
40 0 59 29 75 120 66 70 -6 70 -6 70 19 0 21 -5 25 -30 25 -25 0 -30 4 -30 25
0 29 1 29 -70 6z"/>
<path d="M10306 8825 c-64 -147 -101 -329 -88 -428 l7 -49 33 55 c60 100 85
189 85 302 0 55 -5 114 -10 130 l-10 30 -17 -40z m27 -112 c0 -99 -18 -174
-65 -267 -31 -60 -31 -61 -39 -32 -4 15 -4 64 1 107 11 94 78 305 93 290 5 -5
10 -49 10 -98z"/>
<path d="M14020 7672 c0 -27 44 -78 84 -99 17 -9 67 -50 111 -91 92 -87 149
-117 207 -109 22 3 42 8 46 11 8 9 -38 103 -62 125 -12 10 -38 22 -59 25 -47
9 -188 68 -236 99 -99 65 -91 62 -91 39z"/>
<path d="M16569 7563 c-10 -26 -7 -98 4 -110 3 -2 19 3 36 11 16 9 47 16 67
16 21 0 45 7 55 16 15 14 20 14 55 -1 21 -9 93 -29 159 -46 138 -35 176 -50
264 -107 73 -48 119 -60 161 -42 41 17 54 34 41 58 -8 14 -29 21 -92 30 -47 7
-158 38 -258 72 -104 35 -216 66 -273 75 -54 9 -118 24 -144 35 -59 26 -62 25
-75 -7z"/>
<path d="M4505 6796 c-56 -18 -76 -30 -145 -86 -64 -54 -118 -121 -170 -213
-23 -41 -40 -59 -58 -63 -49 -12 -98 -42 -135 -83 l-37 -41 0 -105 c0 -58 3
-105 8 -105 4 0 23 11 42 24 26 17 41 40 59 87 63 166 192 295 360 360 54 21
63 28 71 59 5 19 30 60 55 90 53 64 58 90 18 89 -16 0 -46 -6 -68 -13z"/>
<path d="M13162 6668 c25 -29 55 -68 67 -85 13 -19 46 -45 79 -60 43 -21 72
-47 118 -101 73 -88 106 -112 157 -112 41 0 46 12 26 68 -8 24 -24 37 -66 57
-31 14 -70 40 -87 58 -17 18 -73 55 -124 82 -51 28 -117 71 -147 98 -29 26
-56 47 -60 47 -4 0 13 -24 37 -52z"/>
<path d="M14730 6440 c0 -121 -3 -220 -6 -220 -4 0 -25 16 -47 36 -57 52 -119
77 -207 82 -98 5 -171 -21 -235 -84 -79 -80 -78 -73 -83 -682 -4 -655 0 -693
90 -779 114 -109 303 -102 431 16 24 23 47 41 51 41 3 0 6 -25 6 -55 l0 -55
215 0 215 0 0 960 0 960 -215 0 -215 0 0 -220z m-31 -389 c29 -29 33 -105 29
-571 -4 -480 -4 -483 -70 -488 -70 -6 -68 -19 -68 530 0 281 4 497 9 512 15
38 70 47 100 17z"/>
<path d="M15720 6530 l0 -120 58 0 c33 0 134 -3 225 -7 l167 -6 0 126 0 127
-225 0 -225 0 0 -120z"/>
<path d="M11818 6603 c-10 -2 -18 -8 -18 -11 0 -4 33 -74 73 -155 l73 -148 24
19 c14 11 40 27 57 36 l33 16 -56 78 c-31 42 -67 98 -80 125 -22 42 -28 47
-57 46 -17 -1 -40 -3 -49 -6z"/>
<path d="M12081 6328 c-73 -21 -148 -89 -187 -172 -20 -40 -37 -48 -30 -13 3
12 8 55 11 95 l6 72 -220 0 -221 0 0 -785 0 -785 219 0 220 0 3 453 c4 484 4
485 56 540 29 30 105 57 164 57 l38 0 0 275 c0 214 -3 275 -12 274 -7 0 -28
-5 -47 -11z"/>
<path d="M12975 6330 c-159 -32 -293 -138 -330 -263 -18 -59 -35 -202 -35
-294 l0 -63 204 0 203 0 5 162 c4 153 6 162 27 180 31 24 57 23 86 -6 28 -28
41 -120 32 -229 -8 -88 -19 -101 -140 -157 -407 -190 -404 -186 -414 -445 -10
-256 23 -385 115 -443 147 -93 323 -71 410 51 l37 52 3 -68 3 -67 209 0 210 0
0 573 c0 738 -6 787 -101 892 -58 63 -125 99 -224 120 -74 16 -233 18 -300 5z
m190 -1238 c-8 -83 -21 -102 -70 -102 -59 0 -70 30 -70 185 0 161 13 202 88
272 l52 48 3 -165 c2 -91 0 -198 -3 -238z"/>
<path d="M17067 6319 c-77 -16 -153 -54 -208 -105 -65 -61 -93 -111 -121 -210
-21 -76 -22 -96 -23 -504 0 -382 2 -432 18 -489 62 -218 196 -303 477 -304
175 -1 286 39 373 132 59 63 101 151 118 244 20 105 19 821 0 897 -39 157
-133 260 -287 317 -56 20 -91 26 -184 29 -63 2 -137 -1 -163 -7z m184 -278
l24 -19 3 -479 c3 -547 2 -556 -60 -561 -70 -6 -68 -20 -68 536 l0 493 25 24
c29 30 45 31 76 6z"/>
<path d="M5243 6310 c-35 -8 -63 -27 -63 -41 0 -5 17 -17 37 -28 l38 -19 -4
-114 c-3 -128 8 -183 45 -228 14 -16 23 -30 19 -30 -4 0 0 -11 9 -25 9 -13 16
-31 16 -39 0 -7 11 -17 25 -20 13 -3 37 -11 52 -17 l28 -11 -24 -9 c-17 -7
-22 -15 -18 -29 3 -11 0 -20 -5 -20 -6 0 -3 -9 7 -20 10 -11 13 -20 7 -20 -20
0 -13 -29 9 -40 27 -15 49 -6 49 20 0 19 2 19 23 6 12 -8 43 -18 70 -21 39 -6
47 -5 47 9 0 23 -39 44 -98 52 -46 6 -50 8 -35 19 13 9 33 10 73 4 29 -5 56
-6 59 -3 4 3 11 20 18 37 6 18 12 24 12 15 1 -21 31 -25 31 -4 0 7 -3 28 -6
45 -6 27 -11 32 -33 29 -23 -3 -27 2 -34 37 l-9 40 -69 0 c-49 0 -69 -4 -69
-12 0 -7 7 -13 15 -13 8 0 15 -9 15 -19 0 -17 -4 -15 -31 10 -17 16 -36 29
-41 29 -6 0 -7 11 -4 25 5 21 2 27 -18 35 -19 7 -29 23 -41 67 -10 32 -23 69
-30 83 -7 15 -9 35 -4 50 4 14 7 48 8 76 1 49 3 52 31 58 21 4 30 11 30 26 0
18 -6 20 -52 19 -29 -1 -68 -5 -85 -9z"/>
<path d="M15720 5515 l0 -785 225 0 225 0 0 785 0 785 -225 0 -225 0 0 -785z"/>
<path d="M12180 6080 c0 -72 5 -140 10 -151 7 -13 7 -19 0 -19 -5 0 -10 -11
-10 -25 0 -18 5 -25 19 -25 11 0 23 5 26 11 5 6 13 2 24 -13 11 -16 16 -47 17
-101 2 -71 6 -87 46 -170 46 -95 243 -397 259 -397 5 0 9 30 9 68 0 37 5 86
10 109 11 47 8 55 -46 148 -76 130 -88 165 -94 260 -5 85 -6 90 -32 102 -16 7
-40 19 -54 26 -19 8 -30 25 -39 57 -19 68 -38 113 -57 134 -10 11 -18 23 -18
27 0 4 -16 26 -35 49 l-35 42 0 -132z"/>
<path d="M5150 5110 c0 -12 8 -21 23 -24 152 -29 180 -34 285 -42 69 -6 82 -4
82 9 0 18 -57 33 -160 42 -41 4 -100 13 -131 21 -79 19 -99 18 -99 -6z"/>
<path d="M10506 5098 c-15 -59 -6 -124 30 -198 43 -91 67 -177 93 -340 29
-175 30 -181 43 -215 29 -75 109 -138 154 -121 20 8 44 67 44 109 0 19 -9 75
-19 125 -11 51 -17 101 -14 112 4 15 -4 31 -24 53 -44 48 -69 93 -108 202 -58
160 -77 198 -124 248 -49 52 -66 58 -75 25z"/>
<path d="M11908 4919 l-3 -204 -37 -3 c-21 -2 -38 -6 -38 -9 0 -26 268 -395
360 -497 35 -38 49 -62 54 -95 4 -24 27 -84 51 -134 31 -62 45 -102 45 -131 0
-37 5 -46 55 -89 83 -72 146 -192 181 -343 12 -52 40 -101 176 -307 209 -315
290 -442 347 -545 25 -45 91 -158 145 -250 105 -177 295 -510 330 -577 12 -22
26 -43 31 -47 6 -4 7 -8 3 -8 -6 0 144 -262 286 -498 l87 -144 14 -111 c9 -62
20 -114 26 -116 6 -2 45 -34 87 -72 86 -77 170 -124 238 -135 42 -6 48 -4 81
27 45 44 63 79 63 125 0 55 -29 105 -137 240 -319 395 -405 516 -435 612 -29
94 -63 157 -164 307 -206 304 -274 411 -316 498 -25 50 -71 145 -103 209 -46
94 -71 131 -125 188 -53 56 -75 88 -100 148 -73 178 -286 586 -443 851 -51 84
-91 157 -90 162 2 5 -2 9 -7 9 -6 0 -10 4 -10 10 0 12 -33 63 -245 385 -171
257 -173 260 -226 284 -98 43 -106 52 -113 128 -11 109 -47 317 -57 327 -5 6
-10 -74 -11 -195z"/>
<path d="M8876 5058 c-23 -32 -20 -65 9 -93 32 -33 74 -32 110 0 21 21 26 31
21 53 -10 39 -42 62 -87 62 -28 0 -42 -6 -53 -22z"/>
<path d="M16210 4833 c0 -19 30 -69 67 -112 50 -59 110 -101 145 -101 22 0 28
-5 28 -20 0 -40 29 -75 103 -127 l75 -52 4 34 c4 32 1 35 -62 71 -36 20 -81
53 -100 73 -19 20 -65 60 -102 89 -37 29 -87 76 -112 104 -26 27 -46 46 -46
41z"/>
<path d="M13069 4714 c-13 -7 -45 -18 -71 -24 l-47 -12 74 -97 c78 -103 103
-151 167 -326 22 -60 51 -129 64 -152 42 -72 104 -102 174 -83 33 9 41 17 55
55 34 87 7 145 -126 266 -74 68 -100 101 -158 198 -38 64 -78 132 -88 152 -18
35 -21 36 -44 23z"/>
<path d="M13663 4663 c-8 -3 -13 -25 -13 -59 0 -47 4 -59 27 -80 47 -44 109
-46 130 -4 7 14 13 44 13 68 0 60 -25 82 -92 81 -29 0 -59 -3 -65 -6z"/>
<path d="M6266 4623 c-4 -5 -17 -8 -29 -9 -56 -3 -62 -4 -49 -13 20 -12 -28
-28 -121 -41 -145 -19 -244 -9 -273 26 -9 12 -15 8 -28 -20 -25 -53 -29 -90
-16 -133 18 -55 37 -73 79 -73 65 0 104 18 146 65 30 34 50 47 78 52 48 7 227
-18 198 -28 -28 -11 -54 -54 -46 -79 9 -28 50 -26 80 5 29 28 32 60 8 73 -14
9 -14 10 4 16 37 12 46 98 13 118 -11 7 -20 21 -20 30 0 19 -11 23 -24 11z"/>
<path d="M9180 4364 c-7 -19 -7 -31 1 -40 13 -16 72 -19 98 -5 15 9 17 3 17
-57 0 -45 8 -90 25 -138 l25 -70 20 40 c30 63 28 210 -5 240 -60 56 -61 56
-116 56 -51 0 -56 -2 -65 -26z"/>
<path d="M8502 4148 c-7 -7 -12 -20 -12 -30 0 -16 -3 -16 -35 3 -54 32 -95 4
-83 -58 5 -29 70 -56 103 -43 23 9 27 15 23 40 -4 25 -2 27 13 19 19 -10 50
-2 61 15 5 7 12 5 20 -7 8 -11 32 -21 57 -24 47 -6 61 4 61 44 0 45 -81 71
-115 37 -15 -15 -17 -15 -34 0 -21 19 -42 21 -59 4z"/>
<path d="M17435 3660 c26 -46 71 -91 113 -112 26 -13 68 -45 92 -72 51 -55 97
-83 113 -67 12 12 -56 101 -79 101 -8 0 -14 7 -14 15 0 8 -6 12 -13 9 -8 -3
-25 7 -38 21 -13 14 -51 40 -84 57 -33 16 -69 38 -79 47 -15 13 -18 13 -11 1z"/>
<path d="M9410 3292 c-12 -10 -28 -34 -35 -54 -12 -36 -12 -37 25 -67 40 -32
95 -47 135 -37 26 7 75 73 75 101 0 8 3 14 8 14 21 -4 24 3 6 17 -10 8 -12 12
-4 8 12 -7 13 -5 3 8 -7 8 -9 19 -5 24 4 4 0 3 -10 -4 -11 -9 -18 -10 -23 -2
-3 5 -39 10 -79 10 -56 0 -79 -4 -96 -18z"/>
<path d="M9300 3145 c0 -9 21 -38 46 -65 48 -52 114 -153 114 -176 0 -8 9 -14
19 -14 13 0 21 -9 26 -29 3 -16 31 -61 61 -101 30 -39 54 -76 54 -80 0 -15 31
-40 51 -40 11 0 21 9 25 24 7 30 -44 112 -106 171 -23 22 -52 61 -65 86 -13
25 -50 74 -82 110 -32 35 -69 79 -81 97 -24 33 -62 44 -62 17z"/>
<path d="M4933 2214 c23 -7 22 -14 -13 -63 -37 -51 -73 -70 -100 -53 -17 10
-23 7 -44 -21 -45 -58 -58 -104 -55 -187 3 -65 0 -80 -18 -103 -11 -14 -26
-40 -33 -57 -7 -16 -16 -30 -21 -30 -17 0 -9 -36 16 -70 14 -19 25 -44 25 -57
0 -30 9 -29 58 7 55 40 88 100 123 226 35 127 48 153 90 188 23 19 29 31 23
44 -4 9 -10 53 -13 97 -6 77 -7 80 -31 82 -14 1 -18 0 -7 -3z"/>
<path d="M9117 2153 c-4 -3 -7 -26 -7 -49 0 -24 -6 -49 -15 -57 -13 -13 -11
-26 10 -109 32 -128 74 -379 85 -513 19 -238 89 -729 124 -880 13 -53 21 -66
70 -108 l55 -49 -20 -21 c-17 -18 -20 -31 -16 -72 35 -328 24 -295 101 -295
l63 0 -18 92 c-41 200 -61 339 -104 726 -45 407 -77 635 -115 817 -38 184
-126 481 -151 511 -12 15 -51 19 -62 7z"/>
<path d="M5858 1073 c-43 -5 -41 -2 -64 -133 -11 -68 -17 -187 -21 -415 l-5
-320 -34 -92 c-19 -51 -34 -97 -34 -103 0 -6 36 -10 95 -10 l95 0 -6 143 -6
142 36 68 c41 79 41 75 29 495 -7 261 3 234 -85 225z"/>
</g>
</svg>
